<svg xmlns="http://www.w3.org/2000/svg" width="820" height="421" viewBox="0 0 820 421">
  <g id="Grupo_1107554" data-name="Grupo 1107554" transform="translate(-389.967 -2853.757)">
    <path id="Trazado_892105" data-name="Trazado 892105" d="M0,0H190V42H0Z" transform="translate(390.018 2854.258)"/>
    <path id="Trazado_892106" data-name="Trazado 892106" d="M0,0H190V42H0Z" transform="translate(390.018 2896.258)" fill="#804000"/>
    <path id="Trazado_892107" data-name="Trazado 892107" d="M0,0H190V42H0Z" transform="translate(390.018 3106.258)" fill="#0b47d0"/>
    <path id="Trazado_892108" data-name="Trazado 892108" d="M0,0H190V42H0Z" transform="translate(390.018 2938.258)" fill="red"/>
    <path id="Trazado_892109" data-name="Trazado 892109" d="M0,0H190V42H0Z" transform="translate(390.018 3148.258)" fill="#5e23b7"/>
    <path id="Trazado_892110" data-name="Trazado 892110" d="M0,0H190V42H0Z" transform="translate(390.018 2980.258)" fill="#ff8000"/>
    <path id="Trazado_892111" data-name="Trazado 892111" d="M0,0H190V42H0Z" transform="translate(390.018 3190.258)" fill="#707070"/>
    <path id="Trazado_892112" data-name="Trazado 892112" d="M0,0H190V42H0Z" transform="translate(390.018 3022.258)" fill="#ff0"/>
    <path id="Trazado_892113" data-name="Trazado 892113" d="M0,0H190V42H0Z" transform="translate(390.018 3232.258)" fill="#fff"/>
    <path id="Trazado_892114" data-name="Trazado 892114" d="M0,0H190V42H0Z" transform="translate(390.018 3064.258)" fill="#00913f"/>
    <path id="Trazado_890651" data-name="Trazado 890651" d="M-8264.051-1001.723h820" transform="translate(8654.018 3855.98)" fill="none" stroke="#000" stroke-width="1"/>
    <path id="Trazado_890652" data-name="Trazado 890652" d="M-8264.051-1001.723h820" transform="translate(8654.018 3897.981)" fill="none" stroke="#000" stroke-width="1"/>
    <path id="Trazado_890653" data-name="Trazado 890653" d="M-8264.051-527.019h820" transform="translate(8654.018 3801.276)" fill="none" stroke="#000" stroke-width="1"/>
    <path id="Trazado_892115" data-name="Trazado 892115" d="M-15.893,0h-2.073L-25.84-12.053V0h-2.073V-15.641h2.073l7.9,12.106V-15.641h2.052Zm8.175.215a5.078,5.078,0,0,1-3.846-1.552,5.761,5.761,0,0,1-1.482-4.152v-.365a6.975,6.975,0,0,1,.661-3.088,5.154,5.154,0,0,1,1.848-2.127,4.645,4.645,0,0,1,2.573-.768,4.353,4.353,0,0,1,3.523,1.493A6.465,6.465,0,0,1-3.185-6.069v.827h-7.874a4.132,4.132,0,0,0,1,2.777A3.157,3.157,0,0,0-7.611-1.407a3.461,3.461,0,0,0,1.783-.43A4.48,4.48,0,0,0-4.549-2.976l1.214.945A4.881,4.881,0,0,1-7.718.215Zm-.247-10.42a2.651,2.651,0,0,0-2.02.875,4.255,4.255,0,0,0-1.01,2.455h5.822v-.15a3.785,3.785,0,0,0-.816-2.347A2.5,2.5,0,0,0-7.965-10.205Zm6.606,4.3A6.831,6.831,0,0,1-.1-10.232a4.019,4.019,0,0,1,3.33-1.606,4,4,0,0,1,3.319,1.5l.1-1.289H8.459V-.279A4.728,4.728,0,0,1,7.122,3.276a4.935,4.935,0,0,1-3.593,1.3,5.978,5.978,0,0,1-2.46-.537A4.235,4.235,0,0,1-.768,2.567L.263,1.375A3.886,3.886,0,0,0,3.389,2.954,3.045,3.045,0,0,0,5.65,2.138a3.12,3.12,0,0,0,.811-2.3v-1A4.085,4.085,0,0,1,3.207.215,3.97,3.97,0,0,1-.1-1.429,7.182,7.182,0,0,1-1.359-5.908Zm2,.226a5.211,5.211,0,0,0,.806,3.088A2.618,2.618,0,0,0,3.7-1.472,2.911,2.911,0,0,0,6.461-3.18V-8.486a2.945,2.945,0,0,0-2.739-1.665A2.641,2.641,0,0,0,1.456-9.023,5.676,5.676,0,0,0,.639-5.683ZM17.075-9.84a5.955,5.955,0,0,0-.978-.075A2.619,2.619,0,0,0,13.444-8.25V0H11.457V-11.623H13.39l.032,1.343a3.094,3.094,0,0,1,2.771-1.558,2.03,2.03,0,0,1,.881.15ZM18.16-5.919a6.865,6.865,0,0,1,.671-3.072A5.008,5.008,0,0,1,20.7-11.1a5.088,5.088,0,0,1,2.734-.741,4.9,4.9,0,0,1,3.84,1.644,6.323,6.323,0,0,1,1.466,4.372v.14a6.925,6.925,0,0,1-.65,3.045,4.935,4.935,0,0,1-1.858,2.1,5.146,5.146,0,0,1-2.777.752,4.889,4.889,0,0,1-3.83-1.644A6.291,6.291,0,0,1,18.16-5.779Zm2,.236a4.972,4.972,0,0,0,.9,3.1,2.871,2.871,0,0,0,2.4,1.171,2.853,2.853,0,0,0,2.406-1.187,5.437,5.437,0,0,0,.892-3.325,4.964,4.964,0,0,0-.908-3.1,2.886,2.886,0,0,0-2.412-1.187A2.854,2.854,0,0,0,21.06-9.034,5.4,5.4,0,0,0,20.158-5.683Z" transform="translate(485.018 2884.258)" fill="#fff"/>
    <path id="Trazado_892116" data-name="Trazado 892116" d="M4.931-6.671A9.089,9.089,0,0,1,3.738-1.482,4.241,4.241,0,0,1,.011.215,4.272,4.272,0,0,1-3.7-1.445,8.627,8.627,0,0,1-4.941-6.4V-9.056A8.887,8.887,0,0,1-3.749-14.18,4.273,4.273,0,0,1-.011-15.855a4.312,4.312,0,0,1,3.717,1.617,8.576,8.576,0,0,1,1.225,4.99ZM2.943-9.389a7.282,7.282,0,0,0-.709-3.679A2.44,2.44,0,0,0-.011-14.223a2.408,2.408,0,0,0-2.224,1.149,7.11,7.11,0,0,0-.72,3.534v3.18a7.4,7.4,0,0,0,.736,3.744A2.436,2.436,0,0,0,.011-1.407,2.4,2.4,0,0,0,2.2-2.546a7.131,7.131,0,0,0,.747-3.588Z" transform="translate(643.018 2884.258)" fill="#12263f"/>
    <path id="Trazado_892117" data-name="Trazado 892117" d="M-6.155-9.646l3.749-5.994H.021L-4.92-7.885.14,0H-2.31L-6.155-6.1-10.022,0h-2.438l5.07-7.885-4.952-7.756h2.417ZM8.551,0h-2V-13.245L2.546-11.773v-1.8l5.693-2.138h.312Z" transform="translate(780.018 2884.258)" fill="#12263f"/>
    <path id="Trazado_892118" data-name="Trazado 892118" d="M-18.96-8.39H-14.6v1.88H-18.96v4.941h-2V-6.51h-4.361V-8.39h4.361v-4.565h2Zm7.176,9.732h-1.708l6.531-16.983h1.7Zm12.8-7.176H-4.222V-7.455H1.021ZM13,0H2.75V-1.429L8.164-7.444a12.862,12.862,0,0,0,1.66-2.218,3.7,3.7,0,0,0,.457-1.767,2.806,2.806,0,0,0-.741-2.009,2.592,2.592,0,0,0-1.977-.784,3.069,3.069,0,0,0-2.3.843,3.221,3.221,0,0,0-.822,2.347H2.449A4.613,4.613,0,0,1,3.84-14.523a5.157,5.157,0,0,1,3.722-1.332,4.955,4.955,0,0,1,3.448,1.144,3.9,3.9,0,0,1,1.268,3.045q0,2.31-2.943,5.5L5.146-1.622H13ZM24.911-6.671a9.089,9.089,0,0,1-1.192,5.188,4.241,4.241,0,0,1-3.728,1.7,4.272,4.272,0,0,1-3.706-1.66A8.627,8.627,0,0,1,15.039-6.4V-9.056a8.887,8.887,0,0,1,1.192-5.124,4.273,4.273,0,0,1,3.738-1.676,4.312,4.312,0,0,1,3.717,1.617,8.576,8.576,0,0,1,1.225,4.99ZM22.924-9.389a7.282,7.282,0,0,0-.709-3.679,2.44,2.44,0,0,0-2.245-1.155,2.408,2.408,0,0,0-2.224,1.149,7.11,7.11,0,0,0-.72,3.534v3.18a7.4,7.4,0,0,0,.736,3.744,2.436,2.436,0,0,0,2.229,1.208,2.4,2.4,0,0,0,2.186-1.139,7.131,7.131,0,0,0,.747-3.588Z" transform="translate(1124.018 2884.258)" fill="#12263f"/>
    <path id="Trazado_892119" data-name="Trazado 892119" d="M-36.26-6.972a9.7,9.7,0,0,1-3.862-1.875,3.582,3.582,0,0,1-1.208-2.745,3.783,3.783,0,0,1,1.477-3.056,5.87,5.87,0,0,1,3.84-1.208,6.408,6.408,0,0,1,2.874.623,4.725,4.725,0,0,1,1.955,1.719,4.395,4.395,0,0,1,.693,2.4h-2.073a2.86,2.86,0,0,0-.9-2.237,3.669,3.669,0,0,0-2.546-.814,3.757,3.757,0,0,0-2.379.673,2.244,2.244,0,0,0-.854,1.867,2.019,2.019,0,0,0,.811,1.62A7.955,7.955,0,0,0-35.675-8.8a12.81,12.81,0,0,1,3.051,1.21,4.63,4.63,0,0,1,1.633,1.542,3.934,3.934,0,0,1,.532,2.073A3.654,3.654,0,0,1-31.942-.929,6.321,6.321,0,0,1-35.906.215,7.352,7.352,0,0,1-38.914-.4a5.062,5.062,0,0,1-2.154-1.692,4.129,4.129,0,0,1-.757-2.438h2.073A2.694,2.694,0,0,0-38.7-2.293a4.41,4.41,0,0,0,2.8.822,4.054,4.054,0,0,0,2.5-.666,2.163,2.163,0,0,0,.87-1.815,2.124,2.124,0,0,0-.806-1.778A9.289,9.289,0,0,0-36.26-6.972ZM-25.969,0h-1.987V-11.623h1.987Zm-2.148-14.706a1.186,1.186,0,0,1,.3-.816,1.109,1.109,0,0,1,.875-.333,1.126,1.126,0,0,1,.881.333,1.174,1.174,0,0,1,.3.816,1.135,1.135,0,0,1-.3.806,1.147,1.147,0,0,1-.881.322,1.129,1.129,0,0,1-.875-.322A1.147,1.147,0,0,1-28.118-14.706Zm7.208,3.083.064,1.461a4.236,4.236,0,0,1,3.48-1.676q3.685,0,3.717,4.157V0h-1.987V-7.691A2.676,2.676,0,0,0-16.21-9.55a2.3,2.3,0,0,0-1.756-.6,2.868,2.868,0,0,0-1.7.516A3.5,3.5,0,0,0-20.8-8.282V0H-22.79V-11.623ZM-.542-1.407a2.863,2.863,0,0,0,1.858-.645A2.268,2.268,0,0,0,2.2-3.663h1.88a3.6,3.6,0,0,1-.687,1.9A4.528,4.528,0,0,1,1.7-.322,4.882,4.882,0,0,1-.542.215,4.788,4.788,0,0,1-4.318-1.37,6.311,6.311,0,0,1-5.72-5.7v-.333A7,7,0,0,1-5.1-9.056a4.745,4.745,0,0,1,1.789-2.052,5.081,5.081,0,0,1,2.755-.73A4.662,4.662,0,0,1,2.7-10.667a4.185,4.185,0,0,1,1.38,3.04H2.2A2.739,2.739,0,0,0,1.343-9.48a2.657,2.657,0,0,0-1.9-.725A2.781,2.781,0,0,0-2.9-9.115a5.121,5.121,0,0,0-.833,3.153v.376a5.019,5.019,0,0,0,.827,3.094A2.8,2.8,0,0,0-.542-1.407ZM5.785-5.919a6.865,6.865,0,0,1,.671-3.072A5.008,5.008,0,0,1,8.325-11.1a5.088,5.088,0,0,1,2.734-.741,4.9,4.9,0,0,1,3.84,1.644,6.323,6.323,0,0,1,1.466,4.372v.14a6.925,6.925,0,0,1-.65,3.045,4.935,4.935,0,0,1-1.858,2.1,5.146,5.146,0,0,1-2.777.752,4.889,4.889,0,0,1-3.83-1.644A6.291,6.291,0,0,1,5.785-5.779Zm2,.236a4.972,4.972,0,0,0,.9,3.1,2.871,2.871,0,0,0,2.4,1.171,2.853,2.853,0,0,0,2.406-1.187,5.437,5.437,0,0,0,.892-3.325,4.964,4.964,0,0,0-.908-3.1,2.886,2.886,0,0,0-2.412-1.187A2.854,2.854,0,0,0,8.685-9.034,5.4,5.4,0,0,0,7.783-5.683ZM21.017,0H19.03V-16.5h1.987ZM23.67-5.919a6.865,6.865,0,0,1,.671-3.072A5.008,5.008,0,0,1,26.211-11.1a5.088,5.088,0,0,1,2.734-.741,4.9,4.9,0,0,1,3.84,1.644,6.323,6.323,0,0,1,1.466,4.372v.14a6.925,6.925,0,0,1-.65,3.045,4.935,4.935,0,0,1-1.858,2.1,5.146,5.146,0,0,1-2.777.752,4.889,4.889,0,0,1-3.83-1.644A6.291,6.291,0,0,1,23.67-5.779Zm2,.236a4.972,4.972,0,0,0,.9,3.1,2.871,2.871,0,0,0,2.4,1.171,2.853,2.853,0,0,0,2.406-1.187,5.437,5.437,0,0,0,.892-3.325,4.964,4.964,0,0,0-.908-3.1,2.886,2.886,0,0,0-2.412-1.187,2.854,2.854,0,0,0-2.374,1.171A5.4,5.4,0,0,0,25.668-5.683ZM42.362-9.84a5.955,5.955,0,0,0-.978-.075A2.619,2.619,0,0,0,38.731-8.25V0H36.744V-11.623h1.934l.032,1.343a3.094,3.094,0,0,1,2.771-1.558,2.03,2.03,0,0,1,.881.15Z" transform="translate(949.018 2884.258)" fill="#12263f"/>
    <path id="Trazado_892120" data-name="Trazado 892120" d="M-30.787-15.641l5.113,12.762,5.113-12.762h2.675V0h-2.062V-6.091l.193-6.574L-24.89,0h-1.579l-5.124-12.633.2,6.542V0h-2.062V-15.641ZM-7.38,0a4.175,4.175,0,0,1-.279-1.225A4.434,4.434,0,0,1-10.968.215a4.1,4.1,0,0,1-2.82-.972,3.145,3.145,0,0,1-1.1-2.465,3.286,3.286,0,0,1,1.38-2.82,6.508,6.508,0,0,1,3.883-1h1.934V-7.96a2.232,2.232,0,0,0-.623-1.66,2.5,2.5,0,0,0-1.837-.618,2.9,2.9,0,0,0-1.783.537,1.583,1.583,0,0,0-.72,1.3h-2a2.743,2.743,0,0,1,.618-1.681,4.216,4.216,0,0,1,1.676-1.284,5.638,5.638,0,0,1,2.326-.473,4.6,4.6,0,0,1,3.147,1A3.623,3.623,0,0,1-5.7-8.067v5.35A6.54,6.54,0,0,0-5.3-.172V0Zm-3.3-1.515A3.493,3.493,0,0,0-8.905-2,2.924,2.924,0,0,0-7.691-3.255V-5.64H-9.249Q-12.9-5.64-12.9-3.5a1.809,1.809,0,0,0,.623,1.461A2.4,2.4,0,0,0-10.678-1.515ZM3.029-9.84a5.955,5.955,0,0,0-.978-.075A2.619,2.619,0,0,0-.6-8.25V0H-2.589V-11.623H-.655l.032,1.343a3.094,3.094,0,0,1,2.771-1.558,2.03,2.03,0,0,1,.881.15Zm7.444,0A5.955,5.955,0,0,0,9.5-9.915,2.619,2.619,0,0,0,6.843-8.25V0H4.855V-11.623H6.789l.032,1.343a3.094,3.094,0,0,1,2.771-1.558,2.03,2.03,0,0,1,.881.15Zm1.085,3.921a6.865,6.865,0,0,1,.671-3.072A5.008,5.008,0,0,1,14.1-11.1a5.088,5.088,0,0,1,2.734-.741,4.9,4.9,0,0,1,3.84,1.644A6.323,6.323,0,0,1,22.14-5.822v.14a6.925,6.925,0,0,1-.65,3.045,4.935,4.935,0,0,1-1.858,2.1,5.146,5.146,0,0,1-2.777.752,4.889,4.889,0,0,1-3.83-1.644,6.291,6.291,0,0,1-1.466-4.351Zm2,.236a4.972,4.972,0,0,0,.9,3.1,2.871,2.871,0,0,0,2.4,1.171,2.853,2.853,0,0,0,2.406-1.187,5.437,5.437,0,0,0,.892-3.325,4.964,4.964,0,0,0-.908-3.1,2.886,2.886,0,0,0-2.412-1.187,2.854,2.854,0,0,0-2.374,1.171A5.4,5.4,0,0,0,13.557-5.683Zm4.179-10.8h2.406L17.263-13.32l-1.6-.005Zm8.776,4.855.064,1.461a4.236,4.236,0,0,1,3.48-1.676q3.685,0,3.717,4.157V0H31.786V-7.691a2.676,2.676,0,0,0-.575-1.858,2.3,2.3,0,0,0-1.756-.6,2.868,2.868,0,0,0-1.7.516,3.5,3.5,0,0,0-1.139,1.354V0H24.632V-11.623Z" transform="translate(485.018 2925.258)" fill="#fff"/>
    <path id="Trazado_892121" data-name="Trazado 892121" d="M1.654,0h-2V-13.245l-4.007,1.472v-1.8l5.693-2.138h.312Z" transform="translate(643.018 2925.258)" fill="#12263f"/>
    <path id="Trazado_892122" data-name="Trazado 892122" d="M-12.332-9.646l3.749-5.994h2.428L-11.1-7.885-6.037,0H-8.486l-3.846-6.1L-16.2,0h-2.438l5.07-7.885-4.952-7.756H-16.1ZM2.374,0h-2V-13.245l-4.007,1.472v-1.8l5.693-2.138h.312ZM18-6.671a9.089,9.089,0,0,1-1.192,5.188,4.241,4.241,0,0,1-3.728,1.7,4.272,4.272,0,0,1-3.706-1.66A8.627,8.627,0,0,1,8.132-6.4V-9.056A8.887,8.887,0,0,1,9.324-14.18a4.273,4.273,0,0,1,3.738-1.676,4.312,4.312,0,0,1,3.717,1.617A8.576,8.576,0,0,1,18-9.249ZM16.017-9.389a7.282,7.282,0,0,0-.709-3.679,2.44,2.44,0,0,0-2.245-1.155,2.408,2.408,0,0,0-2.224,1.149,7.11,7.11,0,0,0-.72,3.534v3.18a7.4,7.4,0,0,0,.736,3.744,2.436,2.436,0,0,0,2.229,1.208A2.4,2.4,0,0,0,15.27-2.546a7.131,7.131,0,0,0,.747-3.588Z" transform="translate(780.018 2925.258)" fill="#12263f"/>
    <path id="Trazado_892123" data-name="Trazado 892123" d="M-12.783-8.39h4.361v1.88h-4.361v4.941h-2V-6.51h-4.361V-8.39h4.361v-4.565h2Zm7.176,9.732H-7.315L-.784-15.641h1.7ZM7.2-5.833H1.955V-7.455H7.2ZM15.458,0h-2V-13.245L9.453-11.773v-1.8l5.693-2.138h.312Z" transform="translate(1124.018 2925.258)" fill="#12263f"/>
    <path id="Trazado_892124" data-name="Trazado 892124" d="M-39.6-6.123V0h-2.062V-15.641h5.769a5.8,5.8,0,0,1,4.023,1.311,4.443,4.443,0,0,1,1.456,3.47,4.384,4.384,0,0,1-1.423,3.507,6.054,6.054,0,0,1-4.077,1.23Zm0-1.687h3.706a3.705,3.705,0,0,0,2.535-.78,2.853,2.853,0,0,0,.881-2.255,2.947,2.947,0,0,0-.881-2.238,3.471,3.471,0,0,0-2.417-.872H-39.6ZM-25.932,0h-1.987V-16.5h1.987Zm10.355,0a4.175,4.175,0,0,1-.279-1.225A4.434,4.434,0,0,1-19.164.215a4.1,4.1,0,0,1-2.82-.972,3.145,3.145,0,0,1-1.1-2.465,3.286,3.286,0,0,1,1.38-2.82,6.508,6.508,0,0,1,3.883-1h1.934V-7.96a2.232,2.232,0,0,0-.623-1.66,2.5,2.5,0,0,0-1.837-.618,2.9,2.9,0,0,0-1.783.537,1.583,1.583,0,0,0-.72,1.3h-2a2.743,2.743,0,0,1,.618-1.681,4.216,4.216,0,0,1,1.676-1.284,5.638,5.638,0,0,1,2.326-.473,4.6,4.6,0,0,1,3.147,1A3.623,3.623,0,0,1-13.9-8.067v5.35a6.54,6.54,0,0,0,.408,2.546V0Zm-3.3-1.515A3.493,3.493,0,0,0-17.1-2a2.924,2.924,0,0,0,1.214-1.257V-5.64h-1.558Q-21.1-5.64-21.1-3.5a1.809,1.809,0,0,0,.623,1.461A2.4,2.4,0,0,0-18.874-1.515ZM-8.089-14.437v2.814h2.17v1.536h-2.17V-2.87A1.613,1.613,0,0,0-7.8-1.821a1.221,1.221,0,0,0,.988.35A4.811,4.811,0,0,0-5.865-1.6V0A5.8,5.8,0,0,1-7.391.215,2.475,2.475,0,0,1-9.4-.591a3.461,3.461,0,0,1-.677-2.288v-7.208h-2.116v-1.536h2.116v-2.814ZM1.225.215A5.078,5.078,0,0,1-2.621-1.337,5.761,5.761,0,0,1-4.1-5.489v-.365a6.975,6.975,0,0,1,.661-3.088A5.154,5.154,0,0,1-1.6-11.07a4.645,4.645,0,0,1,2.573-.768A4.353,4.353,0,0,1,4.5-10.345,6.465,6.465,0,0,1,5.758-6.069v.827H-2.116a4.132,4.132,0,0,0,1,2.777A3.157,3.157,0,0,0,1.332-1.407a3.461,3.461,0,0,0,1.783-.43A4.48,4.48,0,0,0,4.394-2.976l1.214.945A4.881,4.881,0,0,1,1.225.215ZM.978-10.205a2.651,2.651,0,0,0-2.02.875,4.255,4.255,0,0,0-1.01,2.455H3.771v-.15a3.785,3.785,0,0,0-.816-2.347A2.5,2.5,0,0,0,.978-10.205ZM15.232,0a4.175,4.175,0,0,1-.279-1.225A4.434,4.434,0,0,1,11.645.215a4.1,4.1,0,0,1-2.82-.972,3.145,3.145,0,0,1-1.1-2.465A3.286,3.286,0,0,1,9.1-6.042a6.508,6.508,0,0,1,3.883-1h1.934V-7.96A2.232,2.232,0,0,0,14.3-9.62a2.5,2.5,0,0,0-1.837-.618,2.9,2.9,0,0,0-1.783.537,1.583,1.583,0,0,0-.72,1.3h-2a2.743,2.743,0,0,1,.618-1.681,4.216,4.216,0,0,1,1.676-1.284,5.638,5.638,0,0,1,2.326-.473,4.6,4.6,0,0,1,3.147,1,3.623,3.623,0,0,1,1.182,2.766v5.35a6.54,6.54,0,0,0,.408,2.546V0Zm-3.3-1.515A3.493,3.493,0,0,0,13.707-2a2.924,2.924,0,0,0,1.214-1.257V-5.64H13.363Q9.711-5.64,9.711-3.5a1.809,1.809,0,0,0,.623,1.461A2.4,2.4,0,0,0,11.935-1.515ZM19.54-5.908a6.809,6.809,0,0,1,1.268-4.3,4.008,4.008,0,0,1,3.319-1.627,4.031,4.031,0,0,1,3.233,1.4V-16.5h1.987V0H27.521l-.1-1.246A4.047,4.047,0,0,1,24.105.215a3.97,3.97,0,0,1-3.292-1.654A6.886,6.886,0,0,1,19.54-5.758Zm1.987.226a5.155,5.155,0,0,0,.816,3.094A2.639,2.639,0,0,0,24.6-1.472a2.9,2.9,0,0,0,2.761-1.7V-8.508a2.921,2.921,0,0,0-2.739-1.644,2.652,2.652,0,0,0-2.277,1.128A5.676,5.676,0,0,0,21.527-5.683ZM31.9-5.919a6.865,6.865,0,0,1,.671-3.072A5.008,5.008,0,0,1,34.445-11.1a5.088,5.088,0,0,1,2.734-.741,4.9,4.9,0,0,1,3.84,1.644,6.323,6.323,0,0,1,1.466,4.372v.14a6.925,6.925,0,0,1-.65,3.045,4.935,4.935,0,0,1-1.858,2.1A5.146,5.146,0,0,1,37.2.215a4.889,4.889,0,0,1-3.83-1.644A6.291,6.291,0,0,1,31.9-5.779Zm2,.236a4.972,4.972,0,0,0,.9,3.1,2.871,2.871,0,0,0,2.4,1.171,2.853,2.853,0,0,0,2.406-1.187A5.437,5.437,0,0,0,40.5-5.919a4.964,4.964,0,0,0-.908-3.1,2.886,2.886,0,0,0-2.412-1.187A2.854,2.854,0,0,0,34.8-9.034,5.4,5.4,0,0,0,33.9-5.683Z" transform="translate(949.018 2925.258)" fill="#12263f"/>
    <path id="Trazado_892125" data-name="Trazado 892125" d="M-14.395-6.327h-3.674V0h-2.073V-15.641h5.178a6.128,6.128,0,0,1,4.066,1.2,4.329,4.329,0,0,1,1.423,3.5,4.211,4.211,0,0,1-.79,2.546,4.713,4.713,0,0,1-2.2,1.622L-8.787-.129V0H-11Zm-3.674-1.687H-14.9a3.574,3.574,0,0,0,2.444-.8,2.693,2.693,0,0,0,.908-2.131,2.836,2.836,0,0,0-.865-2.228,3.662,3.662,0,0,0-2.5-.786h-3.158ZM-7.423-5.919a6.865,6.865,0,0,1,.671-3.072A5.008,5.008,0,0,1-4.882-11.1a5.088,5.088,0,0,1,2.734-.741,4.9,4.9,0,0,1,3.84,1.644A6.323,6.323,0,0,1,3.158-5.822v.14a6.925,6.925,0,0,1-.65,3.045A4.935,4.935,0,0,1,.65-.537,5.146,5.146,0,0,1-2.127.215a4.889,4.889,0,0,1-3.83-1.644A6.291,6.291,0,0,1-7.423-5.779Zm2,.236a4.972,4.972,0,0,0,.9,3.1,2.871,2.871,0,0,0,2.4,1.171A2.853,2.853,0,0,0,.279-2.594a5.437,5.437,0,0,0,.892-3.325,4.964,4.964,0,0,0-.908-3.1,2.886,2.886,0,0,0-2.412-1.187A2.854,2.854,0,0,0-4.522-9.034,5.4,5.4,0,0,0-5.425-5.683ZM7.7-11.623V1.343q0,3.352-3.04,3.352A3.708,3.708,0,0,1,3.448,4.5V2.922a3.842,3.842,0,0,0,.9.086,1.35,1.35,0,0,0,1.015-.36A1.781,1.781,0,0,0,5.715,1.4V-11.623ZM5.511-14.706a1.192,1.192,0,0,1,.3-.811,1.086,1.086,0,0,1,.865-.338,1.126,1.126,0,0,1,.881.333,1.174,1.174,0,0,1,.3.816,1.135,1.135,0,0,1-.3.806,1.147,1.147,0,0,1-.881.322A1.111,1.111,0,0,1,5.8-13.9,1.159,1.159,0,0,1,5.511-14.706Zm4.866,8.787a6.865,6.865,0,0,1,.671-3.072A5.008,5.008,0,0,1,12.917-11.1a5.088,5.088,0,0,1,2.734-.741,4.9,4.9,0,0,1,3.84,1.644,6.323,6.323,0,0,1,1.466,4.372v.14a6.925,6.925,0,0,1-.65,3.045,4.935,4.935,0,0,1-1.858,2.1,5.146,5.146,0,0,1-2.777.752,4.889,4.889,0,0,1-3.83-1.644,6.291,6.291,0,0,1-1.466-4.351Zm2,.236a4.972,4.972,0,0,0,.9,3.1,2.871,2.871,0,0,0,2.4,1.171,2.853,2.853,0,0,0,2.406-1.187,5.437,5.437,0,0,0,.892-3.325,4.964,4.964,0,0,0-.908-3.1,2.886,2.886,0,0,0-2.412-1.187,2.854,2.854,0,0,0-2.374,1.171A5.4,5.4,0,0,0,12.375-5.683Z" transform="translate(485.018 2968.258)" fill="#12263f"/>
    <path id="Trazado_892126" data-name="Trazado 892126" d="M5.371,0H-4.877V-1.429L.537-7.444A12.862,12.862,0,0,0,2.2-9.663a3.7,3.7,0,0,0,.457-1.767,2.806,2.806,0,0,0-.741-2.009,2.592,2.592,0,0,0-1.977-.784,3.069,3.069,0,0,0-2.3.843,3.221,3.221,0,0,0-.822,2.347H-5.178a4.613,4.613,0,0,1,1.391-3.491A5.157,5.157,0,0,1-.064-15.855a4.955,4.955,0,0,1,3.448,1.144,3.9,3.9,0,0,1,1.268,3.045q0,2.31-2.943,5.5L-2.481-1.622H5.371Z" transform="translate(643.018 2968.258)" fill="#12263f"/>
    <path id="Trazado_892127" data-name="Trazado 892127" d="M-18.509-9.646l3.749-5.994h2.428l-4.941,7.756L-12.214,0h-2.449l-3.846-6.1L-22.376,0h-2.438l5.07-7.885L-24.7-15.641h2.417ZM-3.8,0h-2V-13.245l-4.007,1.472v-1.8l5.693-2.138H-3.8Zm15.63-6.671a9.089,9.089,0,0,1-1.192,5.188A4.241,4.241,0,0,1,6.907.215,4.272,4.272,0,0,1,3.2-1.445,8.627,8.627,0,0,1,1.955-6.4V-9.056A8.887,8.887,0,0,1,3.147-14.18a4.273,4.273,0,0,1,3.738-1.676A4.312,4.312,0,0,1,10.6-14.239a8.576,8.576,0,0,1,1.225,4.99ZM9.84-9.389a7.282,7.282,0,0,0-.709-3.679,2.44,2.44,0,0,0-2.245-1.155,2.408,2.408,0,0,0-2.224,1.149,7.11,7.11,0,0,0-.72,3.534v3.18a7.4,7.4,0,0,0,.736,3.744A2.436,2.436,0,0,0,6.907-1.407,2.4,2.4,0,0,0,9.093-2.546,7.131,7.131,0,0,0,9.84-6.134ZM24.181-6.671a9.089,9.089,0,0,1-1.192,5.188,4.241,4.241,0,0,1-3.728,1.7,4.272,4.272,0,0,1-3.706-1.66A8.627,8.627,0,0,1,14.309-6.4V-9.056A8.887,8.887,0,0,1,15.5-14.18a4.273,4.273,0,0,1,3.738-1.676,4.312,4.312,0,0,1,3.717,1.617,8.576,8.576,0,0,1,1.225,4.99ZM22.193-9.389a7.282,7.282,0,0,0-.709-3.679,2.44,2.44,0,0,0-2.245-1.155,2.408,2.408,0,0,0-2.224,1.149,7.11,7.11,0,0,0-.72,3.534v3.18a7.4,7.4,0,0,0,.736,3.744,2.436,2.436,0,0,0,2.229,1.208,2.4,2.4,0,0,0,2.186-1.139,7.131,7.131,0,0,0,.747-3.588Z" transform="translate(780.018 2968.258)" fill="#12263f"/>
    <path id="Trazado_892128" data-name="Trazado 892128" d="M-12.783-8.39h4.361v1.88h-4.361v4.941h-2V-6.51h-4.361V-8.39h4.361v-4.565h2Zm7.176,9.732H-7.315L-.784-15.641h1.7ZM7.2-5.833H1.955V-7.455H7.2ZM19.175,0H8.927V-1.429l5.414-6.016A12.862,12.862,0,0,0,16-9.663a3.7,3.7,0,0,0,.457-1.767,2.806,2.806,0,0,0-.741-2.009,2.592,2.592,0,0,0-1.977-.784,3.069,3.069,0,0,0-2.3.843,3.221,3.221,0,0,0-.822,2.347H8.626a4.613,4.613,0,0,1,1.391-3.491,5.157,5.157,0,0,1,3.722-1.332,4.955,4.955,0,0,1,3.448,1.144,3.9,3.9,0,0,1,1.268,3.045q0,2.31-2.943,5.5L11.322-1.622h7.853Z" transform="translate(1124.018 2968.258)" fill="#12263f"/>
    <path id="Trazado_892129" data-name="Trazado 892129" d="M-33.639,0V-15.641h4.415a7.107,7.107,0,0,1,3.609.9,6.1,6.1,0,0,1,2.422,2.567,8.357,8.357,0,0,1,.865,3.824v1a8.386,8.386,0,0,1-.854,3.878A6.007,6.007,0,0,1-25.62-.913,7.56,7.56,0,0,1-29.31,0Zm2.063-13.954V-1.687h2.17A4.721,4.721,0,0,0-25.7-3.17,6.13,6.13,0,0,0-24.369-7.4V-8.31a6.227,6.227,0,0,0-1.251-4.145,4.453,4.453,0,0,0-3.55-1.5ZM-20.05-5.919a6.865,6.865,0,0,1,.671-3.072A5.008,5.008,0,0,1-17.51-11.1a5.088,5.088,0,0,1,2.734-.741,4.9,4.9,0,0,1,3.84,1.644A6.323,6.323,0,0,1-9.469-5.822v.14a6.925,6.925,0,0,1-.65,3.045,4.935,4.935,0,0,1-1.858,2.1,5.146,5.146,0,0,1-2.777.752,4.889,4.889,0,0,1-3.83-1.644A6.291,6.291,0,0,1-20.05-5.779Zm2,.236a4.972,4.972,0,0,0,.9,3.1,2.871,2.871,0,0,0,2.4,1.171,2.853,2.853,0,0,0,2.406-1.187,5.437,5.437,0,0,0,.892-3.325,4.964,4.964,0,0,0-.908-3.1,2.886,2.886,0,0,0-2.412-1.187A2.854,2.854,0,0,0-17.15-9.034,5.4,5.4,0,0,0-18.052-5.683ZM-1.359-9.84a5.955,5.955,0,0,0-.978-.075A2.619,2.619,0,0,0-4.99-8.25V0H-6.977V-11.623h1.934l.032,1.343A3.094,3.094,0,0,1-2.24-11.838a2.03,2.03,0,0,1,.881.15ZM7.213,0a4.175,4.175,0,0,1-.279-1.225A4.434,4.434,0,0,1,3.625.215,4.1,4.1,0,0,1,.806-.757,3.145,3.145,0,0,1-.3-3.223a3.286,3.286,0,0,1,1.38-2.82,6.508,6.508,0,0,1,3.883-1H6.9V-7.96a2.232,2.232,0,0,0-.623-1.66,2.5,2.5,0,0,0-1.837-.618A2.9,2.9,0,0,0,2.659-9.7a1.583,1.583,0,0,0-.72,1.3h-2a2.743,2.743,0,0,1,.618-1.681,4.216,4.216,0,0,1,1.676-1.284,5.638,5.638,0,0,1,2.326-.473,4.6,4.6,0,0,1,3.147,1A3.623,3.623,0,0,1,8.889-8.067v5.35A6.54,6.54,0,0,0,9.3-.172V0Zm-3.3-1.515A3.493,3.493,0,0,0,5.688-2,2.924,2.924,0,0,0,6.9-3.255V-5.64H5.344Q1.692-5.64,1.692-3.5a1.809,1.809,0,0,0,.623,1.461A2.4,2.4,0,0,0,3.916-1.515Zm7.605-4.394a6.809,6.809,0,0,1,1.268-4.3,4.008,4.008,0,0,1,3.319-1.627,4.031,4.031,0,0,1,3.233,1.4V-16.5h1.987V0H19.5l-.1-1.246A4.047,4.047,0,0,1,16.086.215a3.97,3.97,0,0,1-3.292-1.654,6.886,6.886,0,0,1-1.273-4.318Zm1.987.226a5.155,5.155,0,0,0,.816,3.094,2.639,2.639,0,0,0,2.256,1.117,2.9,2.9,0,0,0,2.761-1.7V-8.508A2.921,2.921,0,0,0,16.6-10.151a2.652,2.652,0,0,0-2.277,1.128A5.676,5.676,0,0,0,13.508-5.683Zm10.377-.236a6.865,6.865,0,0,1,.671-3.072A5.008,5.008,0,0,1,26.426-11.1a5.088,5.088,0,0,1,2.734-.741A4.9,4.9,0,0,1,33-10.194a6.323,6.323,0,0,1,1.466,4.372v.14a6.925,6.925,0,0,1-.65,3.045,4.935,4.935,0,0,1-1.858,2.1,5.146,5.146,0,0,1-2.777.752,4.889,4.889,0,0,1-3.83-1.644,6.291,6.291,0,0,1-1.466-4.351Zm2,.236a4.972,4.972,0,0,0,.9,3.1,2.871,2.871,0,0,0,2.4,1.171,2.853,2.853,0,0,0,2.406-1.187,5.437,5.437,0,0,0,.892-3.325,4.964,4.964,0,0,0-.908-3.1,2.886,2.886,0,0,0-2.412-1.187,2.854,2.854,0,0,0-2.374,1.171A5.4,5.4,0,0,0,25.883-5.683Z" transform="translate(949.018 2968.258)" fill="#12263f"/>
    <path id="Trazado_892130" data-name="Trazado 892130" d="M-24.159,0h-2.073l-7.874-12.053V0H-36.18V-15.641h2.073l7.9,12.106V-15.641h2.052Zm10.527,0a4.175,4.175,0,0,1-.279-1.225A4.434,4.434,0,0,1-17.22.215a4.1,4.1,0,0,1-2.82-.972,3.145,3.145,0,0,1-1.1-2.465,3.286,3.286,0,0,1,1.38-2.82,6.508,6.508,0,0,1,3.883-1h1.934V-7.96a2.232,2.232,0,0,0-.623-1.66,2.5,2.5,0,0,0-1.837-.618,2.9,2.9,0,0,0-1.783.537,1.583,1.583,0,0,0-.72,1.3h-2a2.743,2.743,0,0,1,.618-1.681,4.216,4.216,0,0,1,1.676-1.284,5.638,5.638,0,0,1,2.326-.473,4.6,4.6,0,0,1,3.147,1,3.623,3.623,0,0,1,1.182,2.766v5.35a6.54,6.54,0,0,0,.408,2.546V0Zm-3.3-1.515A3.493,3.493,0,0,0-15.157-2a2.924,2.924,0,0,0,1.214-1.257V-5.64H-15.5q-3.652,0-3.652,2.138a1.809,1.809,0,0,0,.623,1.461A2.4,2.4,0,0,0-16.93-1.515ZM-3.223-9.84A5.955,5.955,0,0,0-4.2-9.915,2.619,2.619,0,0,0-6.854-8.25V0H-8.841V-11.623h1.934l.032,1.343A3.094,3.094,0,0,1-4.1-11.838a2.03,2.03,0,0,1,.881.15ZM5.35,0A4.175,4.175,0,0,1,5.07-1.225,4.434,4.434,0,0,1,1.762.215a4.1,4.1,0,0,1-2.82-.972,3.145,3.145,0,0,1-1.1-2.465,3.286,3.286,0,0,1,1.38-2.82,6.508,6.508,0,0,1,3.883-1H5.038V-7.96a2.232,2.232,0,0,0-.623-1.66,2.5,2.5,0,0,0-1.837-.618A2.9,2.9,0,0,0,.795-9.7a1.583,1.583,0,0,0-.72,1.3h-2a2.743,2.743,0,0,1,.618-1.681A4.216,4.216,0,0,1,.371-11.365,5.638,5.638,0,0,1,2.7-11.838a4.6,4.6,0,0,1,3.147,1A3.623,3.623,0,0,1,7.025-8.067v5.35A6.54,6.54,0,0,0,7.434-.172V0Zm-3.3-1.515A3.493,3.493,0,0,0,3.824-2,2.924,2.924,0,0,0,5.038-3.255V-5.64H3.48Q-.172-5.64-.172-3.5A1.809,1.809,0,0,0,.451-2.041,2.4,2.4,0,0,0,2.052-1.515Zm9.969-10.108.064,1.461a4.236,4.236,0,0,1,3.48-1.676q3.685,0,3.717,4.157V0H17.295V-7.691A2.676,2.676,0,0,0,16.72-9.55a2.3,2.3,0,0,0-1.756-.6,2.868,2.868,0,0,0-1.7.516,3.5,3.5,0,0,0-1.139,1.354V0H10.141V-11.623Zm12.311,0V1.343q0,3.352-3.04,3.352A3.708,3.708,0,0,1,20.077,4.5V2.922a3.842,3.842,0,0,0,.9.086,1.35,1.35,0,0,0,1.015-.36A1.781,1.781,0,0,0,22.344,1.4V-11.623ZM22.14-14.706a1.192,1.192,0,0,1,.3-.811,1.086,1.086,0,0,1,.865-.338,1.126,1.126,0,0,1,.881.333,1.174,1.174,0,0,1,.3.816,1.135,1.135,0,0,1-.3.806,1.147,1.147,0,0,1-.881.322,1.111,1.111,0,0,1-.87-.322A1.159,1.159,0,0,1,22.14-14.706ZM34.708,0a4.175,4.175,0,0,1-.279-1.225A4.434,4.434,0,0,1,31.12.215,4.1,4.1,0,0,1,28.3-.757a3.145,3.145,0,0,1-1.1-2.465,3.286,3.286,0,0,1,1.38-2.82,6.508,6.508,0,0,1,3.883-1H34.4V-7.96a2.232,2.232,0,0,0-.623-1.66,2.5,2.5,0,0,0-1.837-.618,2.9,2.9,0,0,0-1.783.537,1.583,1.583,0,0,0-.72,1.3h-2a2.743,2.743,0,0,1,.618-1.681,4.216,4.216,0,0,1,1.676-1.284,5.638,5.638,0,0,1,2.326-.473,4.6,4.6,0,0,1,3.147,1,3.623,3.623,0,0,1,1.182,2.766v5.35a6.54,6.54,0,0,0,.408,2.546V0Zm-3.3-1.515A3.493,3.493,0,0,0,33.183-2,2.924,2.924,0,0,0,34.4-3.255V-5.64H32.839q-3.652,0-3.652,2.138a1.809,1.809,0,0,0,.623,1.461A2.4,2.4,0,0,0,31.41-1.515Z" transform="translate(485.018 3010.258)" fill="#12263f"/>
    <path id="Trazado_892131" data-name="Trazado 892131" d="M-1.987-8.787H-.494a3.282,3.282,0,0,0,2.213-.741,2.476,2.476,0,0,0,.806-1.944,2.426,2.426,0,0,0-2.739-2.75,2.849,2.849,0,0,0-2.057.736,2.575,2.575,0,0,0-.768,1.95H-5.027a3.99,3.99,0,0,1,1.359-3.088,4.95,4.95,0,0,1,3.454-1.23,4.892,4.892,0,0,1,3.47,1.171A4.23,4.23,0,0,1,4.512-11.43a3.433,3.433,0,0,1-.661,1.977,3.989,3.989,0,0,1-1.8,1.429A3.844,3.844,0,0,1,4.044-6.671a3.759,3.759,0,0,1,.7,2.31A4.267,4.267,0,0,1,3.373-1.021,5.149,5.149,0,0,1-.2.215,5.285,5.285,0,0,1-3.787-.978a3.955,3.955,0,0,1-1.38-3.147h2a2.556,2.556,0,0,0,.806,1.977A3.064,3.064,0,0,0-.2-1.407,3.007,3.007,0,0,0,2-2.159a2.9,2.9,0,0,0,.763-2.159,2.63,2.63,0,0,0-.838-2.095A3.651,3.651,0,0,0-.494-7.165H-1.987Z" transform="translate(643.018 3010.258)" fill="#12263f"/>
    <path id="Trazado_892132" data-name="Trazado 892132" d="M-27.581-9.646l3.749-5.994H-21.4l-4.941,7.756L-21.286,0h-2.449l-3.846-6.1L-31.448,0h-2.438l5.07-7.885-4.952-7.756h2.417ZM-12.875,0h-2V-13.245l-4.007,1.472v-1.8l5.693-2.138h.312Zm6.069-1.042A1.244,1.244,0,0,1-6.5-1.9a1.167,1.167,0,0,1,.918-.344,1.2,1.2,0,0,1,.929.344,1.219,1.219,0,0,1,.317.859,1.153,1.153,0,0,1-.317.827,1.223,1.223,0,0,1-.929.333A1.187,1.187,0,0,1-6.5-.215,1.176,1.176,0,0,1-6.805-1.042ZM8.545-6.671A9.089,9.089,0,0,1,7.353-1.482,4.241,4.241,0,0,1,3.625.215,4.272,4.272,0,0,1-.081-1.445,8.627,8.627,0,0,1-1.327-6.4V-9.056A8.887,8.887,0,0,1-.134-14.18,4.273,4.273,0,0,1,3.6-15.855a4.312,4.312,0,0,1,3.717,1.617,8.576,8.576,0,0,1,1.225,4.99ZM6.558-9.389a7.282,7.282,0,0,0-.709-3.679A2.44,2.44,0,0,0,3.6-14.223,2.408,2.408,0,0,0,1.38-13.073a7.11,7.11,0,0,0-.72,3.534v3.18A7.4,7.4,0,0,0,1.4-2.616,2.436,2.436,0,0,0,3.625-1.407,2.4,2.4,0,0,0,5.812-2.546a7.131,7.131,0,0,0,.747-3.588ZM20.9-6.671a9.089,9.089,0,0,1-1.192,5.188,4.241,4.241,0,0,1-3.728,1.7,4.272,4.272,0,0,1-3.706-1.66A8.627,8.627,0,0,1,11.027-6.4V-9.056a8.887,8.887,0,0,1,1.192-5.124,4.273,4.273,0,0,1,3.738-1.676,4.312,4.312,0,0,1,3.717,1.617A8.576,8.576,0,0,1,20.9-9.249ZM18.912-9.389a7.282,7.282,0,0,0-.709-3.679,2.44,2.44,0,0,0-2.245-1.155,2.408,2.408,0,0,0-2.224,1.149,7.11,7.11,0,0,0-.72,3.534v3.18a7.4,7.4,0,0,0,.736,3.744,2.436,2.436,0,0,0,2.229,1.208,2.4,2.4,0,0,0,2.186-1.139,7.131,7.131,0,0,0,.747-3.588ZM33.252-6.671A9.089,9.089,0,0,1,32.06-1.482a4.241,4.241,0,0,1-3.728,1.7,4.272,4.272,0,0,1-3.706-1.66A8.627,8.627,0,0,1,23.38-6.4V-9.056a8.887,8.887,0,0,1,1.192-5.124,4.273,4.273,0,0,1,3.738-1.676,4.312,4.312,0,0,1,3.717,1.617,8.576,8.576,0,0,1,1.225,4.99ZM31.265-9.389a7.282,7.282,0,0,0-.709-3.679,2.44,2.44,0,0,0-2.245-1.155,2.408,2.408,0,0,0-2.224,1.149,7.11,7.11,0,0,0-.72,3.534v3.18A7.4,7.4,0,0,0,26.1-2.616a2.436,2.436,0,0,0,2.229,1.208,2.4,2.4,0,0,0,2.186-1.139,7.131,7.131,0,0,0,.747-3.588Z" transform="translate(780.018 3010.258)" fill="#12263f"/>
    <path id="Trazado_892133" data-name="Trazado 892133" d="M-12.783-8.39h4.361v1.88h-4.361v4.941h-2V-6.51h-4.361V-8.39h4.361v-4.565h2Zm7.176,9.732H-7.315L-.784-15.641h1.7ZM7.2-5.833H1.955V-7.455H7.2Zm4.619-2.954H13.31a3.282,3.282,0,0,0,2.213-.741,2.476,2.476,0,0,0,.806-1.944,2.426,2.426,0,0,0-2.739-2.75,2.849,2.849,0,0,0-2.057.736,2.575,2.575,0,0,0-.768,1.95H8.776a3.99,3.99,0,0,1,1.359-3.088,4.95,4.95,0,0,1,3.454-1.23,4.892,4.892,0,0,1,3.47,1.171,4.23,4.23,0,0,1,1.257,3.255,3.433,3.433,0,0,1-.661,1.977,3.989,3.989,0,0,1-1.8,1.429,3.844,3.844,0,0,1,1.993,1.354,3.759,3.759,0,0,1,.7,2.31,4.267,4.267,0,0,1-1.375,3.341A5.149,5.149,0,0,1,13.6.215,5.285,5.285,0,0,1,10.017-.978a3.955,3.955,0,0,1-1.38-3.147h2a2.556,2.556,0,0,0,.806,1.977,3.064,3.064,0,0,0,2.159.741,3.007,3.007,0,0,0,2.2-.752,2.9,2.9,0,0,0,.763-2.159,2.63,2.63,0,0,0-.838-2.095,3.651,3.651,0,0,0-2.417-.752H11.816Z" transform="translate(1124.018 3010.258)" fill="#12263f"/>
    <path id="Trazado_892134" data-name="Trazado 892134" d="M-30.352-4.093H-36.9L-38.376,0H-40.5l5.973-15.641h1.8L-26.743,0h-2.116Zm-5.93-1.687h5.317l-2.664-7.315Zm13.2-5.844.054,1.289a4.292,4.292,0,0,1,3.448-1.5,3.323,3.323,0,0,1,3.319,1.869,4.4,4.4,0,0,1,1.509-1.354,4.458,4.458,0,0,1,2.2-.516q3.824,0,3.889,4.05V0h-1.987V-7.67a2.669,2.669,0,0,0-.569-1.864,2.507,2.507,0,0,0-1.912-.618,2.635,2.635,0,0,0-1.837.661,2.68,2.68,0,0,0-.849,1.778V0h-2V-7.616A2.217,2.217,0,0,0-20.3-10.151a2.659,2.659,0,0,0-2.675,1.665V0h-1.987V-11.623ZM1.509,0A4.175,4.175,0,0,1,1.23-1.225,4.434,4.434,0,0,1-2.079.215,4.1,4.1,0,0,1-4.9-.757,3.145,3.145,0,0,1-6-3.223a3.286,3.286,0,0,1,1.38-2.82,6.508,6.508,0,0,1,3.883-1H1.2V-7.96A2.232,2.232,0,0,0,.575-9.62a2.5,2.5,0,0,0-1.837-.618A2.9,2.9,0,0,0-3.045-9.7a1.583,1.583,0,0,0-.72,1.3h-2a2.743,2.743,0,0,1,.618-1.681A4.216,4.216,0,0,1-3.47-11.365a5.638,5.638,0,0,1,2.326-.473,4.6,4.6,0,0,1,3.147,1A3.623,3.623,0,0,1,3.185-8.067v5.35A6.54,6.54,0,0,0,3.593-.172V0Zm-3.3-1.515A3.493,3.493,0,0,0-.016-2,2.924,2.924,0,0,0,1.2-3.255V-5.64H-.36q-3.652,0-3.652,2.138a1.809,1.809,0,0,0,.623,1.461A2.4,2.4,0,0,0-1.789-1.515ZM11.918-9.84a5.955,5.955,0,0,0-.978-.075A2.619,2.619,0,0,0,8.288-8.25V0H6.3V-11.623H8.234l.032,1.343a3.094,3.094,0,0,1,2.771-1.558,2.03,2.03,0,0,1,.881.15ZM15.9,0H13.917V-11.623H15.9ZM13.755-14.706a1.186,1.186,0,0,1,.3-.816,1.109,1.109,0,0,1,.875-.333,1.126,1.126,0,0,1,.881.333,1.174,1.174,0,0,1,.3.816,1.135,1.135,0,0,1-.3.806,1.147,1.147,0,0,1-.881.322,1.129,1.129,0,0,1-.875-.322A1.147,1.147,0,0,1,13.755-14.706ZM21.243,0H19.255V-16.5h1.987Zm5.339,0H24.594V-16.5h1.987Zm2.653-5.919a6.865,6.865,0,0,1,.671-3.072A5.008,5.008,0,0,1,31.775-11.1a5.088,5.088,0,0,1,2.734-.741,4.9,4.9,0,0,1,3.84,1.644,6.323,6.323,0,0,1,1.466,4.372v.14a6.925,6.925,0,0,1-.65,3.045,4.935,4.935,0,0,1-1.858,2.1,5.146,5.146,0,0,1-2.777.752A4.889,4.889,0,0,1,30.7-1.429a6.291,6.291,0,0,1-1.466-4.351Zm2,.236a4.972,4.972,0,0,0,.9,3.1,2.871,2.871,0,0,0,2.4,1.171,2.853,2.853,0,0,0,2.406-1.187,5.437,5.437,0,0,0,.892-3.325,4.964,4.964,0,0,0-.908-3.1,2.886,2.886,0,0,0-2.412-1.187,2.854,2.854,0,0,0-2.374,1.171A5.4,5.4,0,0,0,31.233-5.683Z" transform="translate(485.018 3052.258)" fill="#12263f"/>
    <path id="Trazado_892135" data-name="Trazado 892135" d="M3.513-5.253h2.17v1.622H3.513V0h-2V-3.631H-5.607V-4.8l7-10.839H3.513Zm-6.864,0H1.515v-7.67l-.236.43Z" transform="translate(643.018 3052.258)" fill="#12263f"/>
    <path id="Trazado_892136" data-name="Trazado 892136" d="M-33.757-9.646l3.749-5.994h2.428l-4.941,7.756L-27.462,0h-2.449l-3.846-6.1L-37.625,0h-2.438l5.07-7.885-4.952-7.756h2.417ZM-19.051,0h-2V-13.245l-4.007,1.472v-1.8l5.693-2.138h.312Zm15.63-6.671A9.089,9.089,0,0,1-4.614-1.482,4.241,4.241,0,0,1-8.341.215a4.272,4.272,0,0,1-3.706-1.66A8.627,8.627,0,0,1-13.293-6.4V-9.056A8.887,8.887,0,0,1-12.1-14.18a4.273,4.273,0,0,1,3.738-1.676,4.312,4.312,0,0,1,3.717,1.617,8.576,8.576,0,0,1,1.225,4.99ZM-5.409-9.389a7.282,7.282,0,0,0-.709-3.679,2.44,2.44,0,0,0-2.245-1.155,2.408,2.408,0,0,0-2.224,1.149,7.11,7.11,0,0,0-.72,3.534v3.18a7.4,7.4,0,0,0,.736,3.744A2.436,2.436,0,0,0-8.341-1.407,2.4,2.4,0,0,0-6.155-2.546a7.131,7.131,0,0,0,.747-3.588Zm4.78,8.347A1.244,1.244,0,0,1-.322-1.9,1.167,1.167,0,0,1,.6-2.245a1.2,1.2,0,0,1,.929.344,1.219,1.219,0,0,1,.317.859,1.153,1.153,0,0,1-.317.827A1.223,1.223,0,0,1,.6.118,1.187,1.187,0,0,1-.322-.215,1.176,1.176,0,0,1-.628-1.042ZM14.722-6.671A9.089,9.089,0,0,1,13.53-1.482,4.241,4.241,0,0,1,9.8.215,4.272,4.272,0,0,1,6.1-1.445,8.627,8.627,0,0,1,4.85-6.4V-9.056A8.887,8.887,0,0,1,6.042-14.18a4.273,4.273,0,0,1,3.738-1.676A4.312,4.312,0,0,1,13.5-14.239a8.576,8.576,0,0,1,1.225,4.99ZM12.735-9.389a7.282,7.282,0,0,0-.709-3.679,2.44,2.44,0,0,0-2.245-1.155,2.408,2.408,0,0,0-2.224,1.149,7.11,7.11,0,0,0-.72,3.534v3.18a7.4,7.4,0,0,0,.736,3.744A2.436,2.436,0,0,0,9.8-1.407a2.4,2.4,0,0,0,2.186-1.139,7.131,7.131,0,0,0,.747-3.588ZM27.076-6.671a9.089,9.089,0,0,1-1.192,5.188,4.241,4.241,0,0,1-3.728,1.7,4.272,4.272,0,0,1-3.706-1.66A8.627,8.627,0,0,1,17.2-6.4V-9.056A8.887,8.887,0,0,1,18.4-14.18a4.273,4.273,0,0,1,3.738-1.676,4.312,4.312,0,0,1,3.717,1.617,8.576,8.576,0,0,1,1.225,4.99ZM25.088-9.389a7.282,7.282,0,0,0-.709-3.679,2.44,2.44,0,0,0-2.245-1.155,2.408,2.408,0,0,0-2.224,1.149,7.11,7.11,0,0,0-.72,3.534v3.18a7.4,7.4,0,0,0,.736,3.744,2.436,2.436,0,0,0,2.229,1.208,2.4,2.4,0,0,0,2.186-1.139,7.131,7.131,0,0,0,.747-3.588ZM39.429-6.671a9.089,9.089,0,0,1-1.192,5.188,4.241,4.241,0,0,1-3.728,1.7A4.272,4.272,0,0,1,30.8-1.445,8.627,8.627,0,0,1,29.557-6.4V-9.056A8.887,8.887,0,0,1,30.75-14.18a4.273,4.273,0,0,1,3.738-1.676A4.312,4.312,0,0,1,38.2-14.239a8.576,8.576,0,0,1,1.225,4.99ZM37.442-9.389a7.282,7.282,0,0,0-.709-3.679,2.44,2.44,0,0,0-2.245-1.155,2.408,2.408,0,0,0-2.224,1.149,7.11,7.11,0,0,0-.72,3.534v3.18a7.4,7.4,0,0,0,.736,3.744,2.436,2.436,0,0,0,2.229,1.208A2.4,2.4,0,0,0,36.7-2.546a7.131,7.131,0,0,0,.747-3.588Z" transform="translate(780.018 3052.258)" fill="#12263f"/>
    <path id="Trazado_892137" data-name="Trazado 892137" d="M-12.783-8.39h4.361v1.88h-4.361v4.941h-2V-6.51h-4.361V-8.39h4.361v-4.565h2Zm7.176,9.732H-7.315L-.784-15.641h1.7ZM7.2-5.833H1.955V-7.455H7.2Zm10.119.58h2.17v1.622h-2.17V0h-2V-3.631H8.2V-4.8l7-10.839h2.116Zm-6.864,0h4.866v-7.67l-.236.43Z" transform="translate(1124.018 3052.258)" fill="#12263f"/>
    <path id="Trazado_892138" data-name="Trazado 892138" d="M-21.248-2.739l4.469-12.9h2.256L-20.324,0H-22.15l-5.79-15.641H-25.7ZM-8.39.215a5.078,5.078,0,0,1-3.846-1.552,5.761,5.761,0,0,1-1.482-4.152v-.365a6.975,6.975,0,0,1,.661-3.088,5.154,5.154,0,0,1,1.848-2.127,4.645,4.645,0,0,1,2.573-.768,4.353,4.353,0,0,1,3.523,1.493A6.465,6.465,0,0,1-3.856-6.069v.827H-11.73a4.132,4.132,0,0,0,1,2.777A3.157,3.157,0,0,0-8.282-1.407,3.461,3.461,0,0,0-6.5-1.837,4.48,4.48,0,0,0-5.221-2.976l1.214.945A4.881,4.881,0,0,1-8.39.215Zm-.247-10.42a2.651,2.651,0,0,0-2.02.875,4.255,4.255,0,0,0-1.01,2.455h5.822v-.15A3.785,3.785,0,0,0-6.66-9.373,2.5,2.5,0,0,0-8.637-10.205Zm12.7.365a5.955,5.955,0,0,0-.978-.075A2.619,2.619,0,0,0,.43-8.25V0H-1.558V-11.623H.376L.408-10.28A3.094,3.094,0,0,1,3.18-11.838a2.03,2.03,0,0,1,.881.15ZM5.2-5.908a6.809,6.809,0,0,1,1.268-4.3,4.008,4.008,0,0,1,3.319-1.627,4.031,4.031,0,0,1,3.233,1.4V-16.5h1.987V0H13.181l-.1-1.246A4.047,4.047,0,0,1,9.765.215,3.97,3.97,0,0,1,6.472-1.439,6.886,6.886,0,0,1,5.2-5.758Zm1.987.226A5.155,5.155,0,0,0,8-2.589a2.639,2.639,0,0,0,2.256,1.117,2.9,2.9,0,0,0,2.761-1.7V-8.508a2.921,2.921,0,0,0-2.739-1.644A2.652,2.652,0,0,0,8-9.023,5.676,5.676,0,0,0,7.187-5.683ZM22.913.215a5.078,5.078,0,0,1-3.846-1.552,5.761,5.761,0,0,1-1.482-4.152v-.365a6.975,6.975,0,0,1,.661-3.088,5.154,5.154,0,0,1,1.848-2.127,4.645,4.645,0,0,1,2.573-.768,4.353,4.353,0,0,1,3.523,1.493,6.465,6.465,0,0,1,1.257,4.275v.827H19.572a4.132,4.132,0,0,0,1,2.777,3.157,3.157,0,0,0,2.444,1.058,3.461,3.461,0,0,0,1.783-.43,4.48,4.48,0,0,0,1.278-1.139L27.3-2.03A4.881,4.881,0,0,1,22.913.215Zm-.247-10.42a2.651,2.651,0,0,0-2.02.875,4.255,4.255,0,0,0-1.01,2.455h5.822v-.15a3.785,3.785,0,0,0-.816-2.347A2.5,2.5,0,0,0,22.666-10.205Z" transform="translate(485.018 3094.258)" fill="#fff"/>
    <path id="Trazado_892139" data-name="Trazado 892139" d="M-3.964-7.842l.795-7.8H4.845V-13.8H-1.482l-.473,4.265a5.047,5.047,0,0,1,2.61-.677A4.315,4.315,0,0,1,4.05-8.8,5.536,5.536,0,0,1,5.307-4.984,5.344,5.344,0,0,1,4-1.176,4.757,4.757,0,0,1,.354.215,4.944,4.944,0,0,1-3.029-.935a4.588,4.588,0,0,1-1.493-3.18h1.88a3.156,3.156,0,0,0,.956,2.025,2.973,2.973,0,0,0,2.041.682A2.682,2.682,0,0,0,2.53-2.353a3.952,3.952,0,0,0,.79-2.61,3.627,3.627,0,0,0-.854-2.519A2.9,2.9,0,0,0,.193-8.433a3.276,3.276,0,0,0-2.041.569l-.526.43Z" transform="translate(643.018 3094.258)" fill="#12263f"/>
    <path id="Trazado_892140" data-name="Trazado 892140" d="M-39.934-9.646l3.749-5.994h2.428L-38.7-7.885-33.639,0h-2.449l-3.846-6.1L-43.8,0H-46.24l5.07-7.885-4.952-7.756H-43.7ZM-25.228,0h-2V-13.245l-4.007,1.472v-1.8l5.693-2.138h.312ZM-9.6-6.671a9.089,9.089,0,0,1-1.192,5.188,4.241,4.241,0,0,1-3.728,1.7,4.272,4.272,0,0,1-3.706-1.66A8.627,8.627,0,0,1-19.47-6.4V-9.056a8.887,8.887,0,0,1,1.192-5.124,4.273,4.273,0,0,1,3.738-1.676,4.312,4.312,0,0,1,3.717,1.617A8.576,8.576,0,0,1-9.6-9.249Zm-1.987-2.718a7.282,7.282,0,0,0-.709-3.679,2.44,2.44,0,0,0-2.245-1.155,2.408,2.408,0,0,0-2.224,1.149,7.11,7.11,0,0,0-.72,3.534v3.18a7.4,7.4,0,0,0,.736,3.744,2.436,2.436,0,0,0,2.229,1.208,2.4,2.4,0,0,0,2.186-1.139,7.131,7.131,0,0,0,.747-3.588ZM2.755-6.671A9.089,9.089,0,0,1,1.563-1.482,4.241,4.241,0,0,1-2.165.215a4.272,4.272,0,0,1-3.706-1.66A8.627,8.627,0,0,1-7.117-6.4V-9.056A8.887,8.887,0,0,1-5.924-14.18a4.273,4.273,0,0,1,3.738-1.676,4.312,4.312,0,0,1,3.717,1.617,8.576,8.576,0,0,1,1.225,4.99ZM.768-9.389a7.282,7.282,0,0,0-.709-3.679,2.44,2.44,0,0,0-2.245-1.155A2.408,2.408,0,0,0-4.41-13.073a7.11,7.11,0,0,0-.72,3.534v3.18a7.4,7.4,0,0,0,.736,3.744A2.436,2.436,0,0,0-2.165-1.407,2.4,2.4,0,0,0,.021-2.546,7.131,7.131,0,0,0,.768-6.134Zm4.78,8.347A1.244,1.244,0,0,1,5.854-1.9a1.167,1.167,0,0,1,.918-.344A1.2,1.2,0,0,1,7.7-1.9a1.219,1.219,0,0,1,.317.859A1.153,1.153,0,0,1,7.7-.215a1.223,1.223,0,0,1-.929.333,1.187,1.187,0,0,1-.918-.333A1.176,1.176,0,0,1,5.548-1.042ZM20.9-6.671a9.089,9.089,0,0,1-1.192,5.188,4.241,4.241,0,0,1-3.728,1.7,4.272,4.272,0,0,1-3.706-1.66A8.627,8.627,0,0,1,11.027-6.4V-9.056a8.887,8.887,0,0,1,1.192-5.124,4.273,4.273,0,0,1,3.738-1.676,4.312,4.312,0,0,1,3.717,1.617A8.576,8.576,0,0,1,20.9-9.249ZM18.912-9.389a7.282,7.282,0,0,0-.709-3.679,2.44,2.44,0,0,0-2.245-1.155,2.408,2.408,0,0,0-2.224,1.149,7.11,7.11,0,0,0-.72,3.534v3.18a7.4,7.4,0,0,0,.736,3.744,2.436,2.436,0,0,0,2.229,1.208,2.4,2.4,0,0,0,2.186-1.139,7.131,7.131,0,0,0,.747-3.588ZM33.252-6.671A9.089,9.089,0,0,1,32.06-1.482a4.241,4.241,0,0,1-3.728,1.7,4.272,4.272,0,0,1-3.706-1.66A8.627,8.627,0,0,1,23.38-6.4V-9.056a8.887,8.887,0,0,1,1.192-5.124,4.273,4.273,0,0,1,3.738-1.676,4.312,4.312,0,0,1,3.717,1.617,8.576,8.576,0,0,1,1.225,4.99ZM31.265-9.389a7.282,7.282,0,0,0-.709-3.679,2.44,2.44,0,0,0-2.245-1.155,2.408,2.408,0,0,0-2.224,1.149,7.11,7.11,0,0,0-.72,3.534v3.18A7.4,7.4,0,0,0,26.1-2.616a2.436,2.436,0,0,0,2.229,1.208,2.4,2.4,0,0,0,2.186-1.139,7.131,7.131,0,0,0,.747-3.588ZM45.606-6.671a9.089,9.089,0,0,1-1.192,5.188,4.241,4.241,0,0,1-3.728,1.7,4.272,4.272,0,0,1-3.706-1.66A8.627,8.627,0,0,1,35.734-6.4V-9.056a8.887,8.887,0,0,1,1.192-5.124,4.273,4.273,0,0,1,3.738-1.676,4.312,4.312,0,0,1,3.717,1.617,8.576,8.576,0,0,1,1.225,4.99ZM43.619-9.389a7.282,7.282,0,0,0-.709-3.679,2.44,2.44,0,0,0-2.245-1.155,2.408,2.408,0,0,0-2.224,1.149,7.11,7.11,0,0,0-.72,3.534v3.18a7.4,7.4,0,0,0,.736,3.744,2.436,2.436,0,0,0,2.229,1.208,2.4,2.4,0,0,0,2.186-1.139,7.131,7.131,0,0,0,.747-3.588Z" transform="translate(780.018 3094.258)" fill="#12263f"/>
    <path id="Trazado_892141" data-name="Trazado 892141" d="M-10.973-4.093h-6.553L-19,0h-2.127l5.973-15.641h1.8L-7.364,0H-9.48ZM-16.9-5.779h5.317l-2.664-7.315ZM-3.572-1.622h6.8V0H-6V-1.461L.414-9.979H-5.9v-1.644H2.906v1.407Zm16.21.473A4.221,4.221,0,0,1,9.233.215,3.613,3.613,0,0,1,6.4-.865a4.673,4.673,0,0,1-.983-3.2v-7.562H7.407v7.509q0,2.643,2.148,2.643a2.975,2.975,0,0,0,3.029-1.7v-8.454h1.987V0H12.681ZM19.75,0H17.762V-16.5H19.75Z" transform="translate(485.018 3136.258)" fill="#fff"/>
    <path id="Trazado_892142" data-name="Trazado 892142" d="M2.922-15.651v1.687H2.557a5.232,5.232,0,0,0-3.7,1.375,5.722,5.722,0,0,0-1.59,3.749A4.242,4.242,0,0,1,.645-10.259,4.056,4.056,0,0,1,3.9-8.819,5.552,5.552,0,0,1,5.124-5.1,5.535,5.535,0,0,1,3.808-1.235,4.531,4.531,0,0,1,.279.215,4.465,4.465,0,0,1-3.362-1.509a6.833,6.833,0,0,1-1.4-4.442v-.763q0-4.318,1.842-6.6a6.766,6.766,0,0,1,5.484-2.336ZM.312-8.6a3.171,3.171,0,0,0-1.88.612A3.191,3.191,0,0,0-2.761-6.456v.73a5.131,5.131,0,0,0,.87,3.115A2.607,2.607,0,0,0,.279-1.429,2.527,2.527,0,0,0,2.39-2.417a4.1,4.1,0,0,0,.768-2.589,4.1,4.1,0,0,0-.779-2.6A2.5,2.5,0,0,0,.312-8.6Z" transform="translate(643.018 3136.258)" fill="#12263f"/>
    <path id="Trazado_892143" data-name="Trazado 892143" d="M-49.006-9.646l3.749-5.994h2.428l-4.941,7.756L-42.711,0H-45.16l-3.846-6.1L-52.873,0h-2.438l5.07-7.885-4.952-7.756h2.417ZM-34.3,0h-2V-13.245L-40.3-11.773v-1.8l5.693-2.138h.312Zm6.069-1.042a1.244,1.244,0,0,1,.306-.859,1.167,1.167,0,0,1,.918-.344,1.2,1.2,0,0,1,.929.344,1.219,1.219,0,0,1,.317.859,1.153,1.153,0,0,1-.317.827,1.223,1.223,0,0,1-.929.333,1.187,1.187,0,0,1-.918-.333A1.176,1.176,0,0,1-28.23-1.042ZM-12.88-6.671a9.089,9.089,0,0,1-1.192,5.188A4.241,4.241,0,0,1-17.8.215a4.272,4.272,0,0,1-3.706-1.66A8.627,8.627,0,0,1-22.752-6.4V-9.056A8.887,8.887,0,0,1-21.56-14.18a4.273,4.273,0,0,1,3.738-1.676A4.312,4.312,0,0,1-14.1-14.239a8.576,8.576,0,0,1,1.225,4.99Zm-1.987-2.718a7.282,7.282,0,0,0-.709-3.679,2.44,2.44,0,0,0-2.245-1.155,2.408,2.408,0,0,0-2.224,1.149,7.11,7.11,0,0,0-.72,3.534v3.18a7.4,7.4,0,0,0,.736,3.744A2.436,2.436,0,0,0-17.8-1.407a2.4,2.4,0,0,0,2.186-1.139,7.131,7.131,0,0,0,.747-3.588ZM-.526-6.671A9.089,9.089,0,0,1-1.719-1.482,4.241,4.241,0,0,1-5.446.215a4.272,4.272,0,0,1-3.706-1.66A8.627,8.627,0,0,1-10.4-6.4V-9.056A8.887,8.887,0,0,1-9.206-14.18a4.273,4.273,0,0,1,3.738-1.676,4.312,4.312,0,0,1,3.717,1.617A8.576,8.576,0,0,1-.526-9.249ZM-2.514-9.389a7.282,7.282,0,0,0-.709-3.679,2.44,2.44,0,0,0-2.245-1.155,2.408,2.408,0,0,0-2.224,1.149,7.11,7.11,0,0,0-.72,3.534v3.18a7.4,7.4,0,0,0,.736,3.744A2.436,2.436,0,0,0-5.446-1.407,2.4,2.4,0,0,0-3.26-2.546a7.131,7.131,0,0,0,.747-3.588ZM11.827-6.671a9.089,9.089,0,0,1-1.192,5.188A4.241,4.241,0,0,1,6.907.215,4.272,4.272,0,0,1,3.2-1.445,8.627,8.627,0,0,1,1.955-6.4V-9.056A8.887,8.887,0,0,1,3.147-14.18a4.273,4.273,0,0,1,3.738-1.676A4.312,4.312,0,0,1,10.6-14.239a8.576,8.576,0,0,1,1.225,4.99ZM9.84-9.389a7.282,7.282,0,0,0-.709-3.679,2.44,2.44,0,0,0-2.245-1.155,2.408,2.408,0,0,0-2.224,1.149,7.11,7.11,0,0,0-.72,3.534v3.18a7.4,7.4,0,0,0,.736,3.744A2.436,2.436,0,0,0,6.907-1.407,2.4,2.4,0,0,0,9.093-2.546,7.131,7.131,0,0,0,9.84-6.134Zm4.78,8.347a1.244,1.244,0,0,1,.306-.859,1.167,1.167,0,0,1,.918-.344,1.2,1.2,0,0,1,.929.344,1.219,1.219,0,0,1,.317.859,1.153,1.153,0,0,1-.317.827,1.223,1.223,0,0,1-.929.333,1.187,1.187,0,0,1-.918-.333A1.176,1.176,0,0,1,14.62-1.042ZM29.971-6.671a9.089,9.089,0,0,1-1.192,5.188,4.241,4.241,0,0,1-3.728,1.7,4.272,4.272,0,0,1-3.706-1.66A8.627,8.627,0,0,1,20.1-6.4V-9.056a8.887,8.887,0,0,1,1.192-5.124,4.273,4.273,0,0,1,3.738-1.676,4.312,4.312,0,0,1,3.717,1.617,8.576,8.576,0,0,1,1.225,4.99ZM27.983-9.389a7.282,7.282,0,0,0-.709-3.679,2.44,2.44,0,0,0-2.245-1.155,2.408,2.408,0,0,0-2.224,1.149,7.11,7.11,0,0,0-.72,3.534v3.18a7.4,7.4,0,0,0,.736,3.744,2.436,2.436,0,0,0,2.229,1.208,2.4,2.4,0,0,0,2.186-1.139,7.131,7.131,0,0,0,.747-3.588ZM42.324-6.671a9.089,9.089,0,0,1-1.192,5.188A4.241,4.241,0,0,1,37.4.215,4.272,4.272,0,0,1,33.7-1.445,8.627,8.627,0,0,1,32.452-6.4V-9.056a8.887,8.887,0,0,1,1.192-5.124,4.273,4.273,0,0,1,3.738-1.676A4.312,4.312,0,0,1,41.1-14.239a8.576,8.576,0,0,1,1.225,4.99ZM40.337-9.389a7.282,7.282,0,0,0-.709-3.679,2.44,2.44,0,0,0-2.245-1.155,2.408,2.408,0,0,0-2.224,1.149,7.11,7.11,0,0,0-.72,3.534v3.18a7.4,7.4,0,0,0,.736,3.744A2.436,2.436,0,0,0,37.4-1.407,2.4,2.4,0,0,0,39.59-2.546a7.131,7.131,0,0,0,.747-3.588ZM54.678-6.671a9.089,9.089,0,0,1-1.192,5.188,4.241,4.241,0,0,1-3.728,1.7,4.272,4.272,0,0,1-3.706-1.66A8.627,8.627,0,0,1,44.806-6.4V-9.056A8.887,8.887,0,0,1,46-14.18a4.273,4.273,0,0,1,3.738-1.676,4.312,4.312,0,0,1,3.717,1.617,8.576,8.576,0,0,1,1.225,4.99ZM52.69-9.389a7.282,7.282,0,0,0-.709-3.679,2.44,2.44,0,0,0-2.245-1.155,2.408,2.408,0,0,0-2.224,1.149,7.11,7.11,0,0,0-.72,3.534v3.18a7.4,7.4,0,0,0,.736,3.744,2.436,2.436,0,0,0,2.229,1.208,2.4,2.4,0,0,0,2.186-1.139,7.131,7.131,0,0,0,.747-3.588Z" transform="translate(780.018 3136.258)" fill="#12263f"/>
    <path id="Trazado_892144" data-name="Trazado 892144" d="M-27.022-2.739l4.469-12.9H-20.3L-26.1,0h-1.826l-5.79-15.641h2.245ZM-16.355,0h-1.987V-11.623h1.987ZM-18.5-14.706a1.186,1.186,0,0,1,.3-.816,1.109,1.109,0,0,1,.875-.333,1.126,1.126,0,0,1,.881.333,1.174,1.174,0,0,1,.3.816,1.135,1.135,0,0,1-.3.806,1.147,1.147,0,0,1-.881.322,1.129,1.129,0,0,1-.875-.322A1.147,1.147,0,0,1-18.5-14.706Zm4.8,8.787a6.865,6.865,0,0,1,.671-3.072A5.008,5.008,0,0,1-11.161-11.1a5.088,5.088,0,0,1,2.734-.741,4.9,4.9,0,0,1,3.84,1.644A6.323,6.323,0,0,1-3.121-5.822v.14a6.925,6.925,0,0,1-.65,3.045,4.935,4.935,0,0,1-1.858,2.1A5.146,5.146,0,0,1-8.406.215a4.889,4.889,0,0,1-3.83-1.644A6.291,6.291,0,0,1-13.7-5.779Zm2,.236a4.972,4.972,0,0,0,.9,3.1,2.871,2.871,0,0,0,2.4,1.171A2.853,2.853,0,0,0-6-2.594a5.437,5.437,0,0,0,.892-3.325,4.964,4.964,0,0,0-.908-3.1,2.886,2.886,0,0,0-2.412-1.187A2.854,2.854,0,0,0-10.8-9.034,5.4,5.4,0,0,0-11.7-5.683ZM1.531,0H-.457V-16.5H1.531Zm8,.215A5.078,5.078,0,0,1,5.688-1.337,5.761,5.761,0,0,1,4.206-5.489v-.365a6.975,6.975,0,0,1,.661-3.088A5.154,5.154,0,0,1,6.714-11.07a4.645,4.645,0,0,1,2.573-.768,4.353,4.353,0,0,1,3.523,1.493,6.465,6.465,0,0,1,1.257,4.275v.827H6.193a4.132,4.132,0,0,0,1,2.777A3.157,3.157,0,0,0,9.641-1.407a3.461,3.461,0,0,0,1.783-.43A4.48,4.48,0,0,0,12.7-2.976l1.214.945A4.881,4.881,0,0,1,9.534.215Zm-.247-10.42a2.651,2.651,0,0,0-2.02.875,4.255,4.255,0,0,0-1.01,2.455H12.08v-.15a3.785,3.785,0,0,0-.816-2.347A2.5,2.5,0,0,0,9.287-10.205Zm9.775-4.232v2.814h2.17v1.536h-2.17V-2.87a1.613,1.613,0,0,0,.29,1.049,1.221,1.221,0,0,0,.988.35,4.811,4.811,0,0,0,.945-.129V0A5.8,5.8,0,0,1,19.76.215a2.475,2.475,0,0,1-2.009-.806,3.461,3.461,0,0,1-.677-2.288v-7.208H14.958v-1.536h2.116v-2.814ZM30.728,0a4.175,4.175,0,0,1-.279-1.225A4.434,4.434,0,0,1,27.14.215a4.1,4.1,0,0,1-2.82-.972,3.145,3.145,0,0,1-1.1-2.465,3.286,3.286,0,0,1,1.38-2.82,6.508,6.508,0,0,1,3.883-1h1.934V-7.96a2.232,2.232,0,0,0-.623-1.66,2.5,2.5,0,0,0-1.837-.618,2.9,2.9,0,0,0-1.783.537,1.583,1.583,0,0,0-.72,1.3h-2a2.743,2.743,0,0,1,.618-1.681,4.216,4.216,0,0,1,1.676-1.284,5.638,5.638,0,0,1,2.326-.473,4.6,4.6,0,0,1,3.147,1A3.623,3.623,0,0,1,32.4-8.067v5.35a6.54,6.54,0,0,0,.408,2.546V0Zm-3.3-1.515A3.493,3.493,0,0,0,29.2-2a2.924,2.924,0,0,0,1.214-1.257V-5.64H28.859q-3.652,0-3.652,2.138a1.809,1.809,0,0,0,.623,1.461A2.4,2.4,0,0,0,27.43-1.515Z" transform="translate(485.018 3178.258)" fill="#fff"/>
    <path id="Trazado_892145" data-name="Trazado 892145" d="M5.221-14.523-1.257,0H-3.341L3.115-14.008H-5.35v-1.633H5.221Z" transform="translate(643.018 3178.258)" fill="#12263f"/>
    <path id="Trazado_892146" data-name="Trazado 892146" d="M-6.193-2.052a4.764,4.764,0,0,1-2.218,1.7,8.96,8.96,0,0,1-3.314.564,6.427,6.427,0,0,1-3.395-.9,5.976,5.976,0,0,1-2.293-2.551,8.812,8.812,0,0,1-.833-3.835V-8.433A8.226,8.226,0,0,1-16.6-13.911a5.746,5.746,0,0,1,4.635-1.944A5.935,5.935,0,0,1-8.019-14.6a5.452,5.452,0,0,1,1.826,3.55H-8.255a3.41,3.41,0,0,0-3.7-3.115,3.651,3.651,0,0,0-3.142,1.457,7.113,7.113,0,0,0-1.08,4.22v1.279a6.666,6.666,0,0,0,1.2,4.188,3.9,3.9,0,0,0,3.255,1.554,7.189,7.189,0,0,0,2.03-.257A3.14,3.14,0,0,0-8.245-2.6V-6.1h-3.62V-7.788h5.672ZM2.551-9.84a5.955,5.955,0,0,0-.978-.075A2.619,2.619,0,0,0-1.08-8.25V0H-3.067V-11.623h1.934L-1.1-10.28A3.094,3.094,0,0,1,1.67-11.838a2.03,2.03,0,0,1,.881.15ZM6.537,0H4.549V-11.623H6.537ZM4.388-14.706a1.186,1.186,0,0,1,.3-.816,1.109,1.109,0,0,1,.875-.333,1.126,1.126,0,0,1,.881.333,1.174,1.174,0,0,1,.3.816,1.135,1.135,0,0,1-.3.806,1.147,1.147,0,0,1-.881.322,1.129,1.129,0,0,1-.875-.322A1.147,1.147,0,0,1,4.388-14.706Zm12.1,11.623a1.463,1.463,0,0,0-.607-1.251A5.842,5.842,0,0,0,13.761-5.1a10.005,10.005,0,0,1-2.4-.773A3.408,3.408,0,0,1,10.055-6.95,2.57,2.57,0,0,1,9.63-8.433a3.015,3.015,0,0,1,1.208-2.417,4.72,4.72,0,0,1,3.088-.988,4.857,4.857,0,0,1,3.207,1.021,3.241,3.241,0,0,1,1.23,2.61h-2a1.794,1.794,0,0,0-.693-1.407,2.6,2.6,0,0,0-1.746-.591,2.717,2.717,0,0,0-1.7.473A1.488,1.488,0,0,0,11.618-8.5a1.205,1.205,0,0,0,.569,1.085,7,7,0,0,0,2.057.7,10.719,10.719,0,0,1,2.412.795,3.518,3.518,0,0,1,1.37,1.112,2.734,2.734,0,0,1,.446,1.584,2.975,2.975,0,0,1-1.246,2.5,5.227,5.227,0,0,1-3.233.94,5.853,5.853,0,0,1-2.471-.494A4.018,4.018,0,0,1,9.84-1.66a3.327,3.327,0,0,1-.607-1.917H11.22a2.058,2.058,0,0,0,.8,1.584,3.1,3.1,0,0,0,1.971.585,3.2,3.2,0,0,0,1.81-.457A1.4,1.4,0,0,0,16.484-3.083Z" transform="translate(485.018 3220.258)" fill="#fff"/>
    <path id="Trazado_892147" data-name="Trazado 892147" d="M4.608-11.559a3.632,3.632,0,0,1-.618,2.084A4.2,4.2,0,0,1,2.32-8.046,4.483,4.483,0,0,1,4.259-6.51a3.865,3.865,0,0,1,.714,2.288A4.087,4.087,0,0,1,3.6-.988,5.262,5.262,0,0,1,0,.215,5.238,5.238,0,0,1-3.615-.994,4.106,4.106,0,0,1-4.974-4.222,3.981,3.981,0,0,1-4.281-6.51,4.312,4.312,0,0,1-2.363-8.057,4.1,4.1,0,0,1-4.007-9.485a3.684,3.684,0,0,1-.6-2.073A4.043,4.043,0,0,1-3.341-14.7,4.755,4.755,0,0,1,0-15.855,4.759,4.759,0,0,1,3.335-14.7,4.034,4.034,0,0,1,4.608-11.559ZM2.986-4.265A2.883,2.883,0,0,0,2.154-6.4,2.952,2.952,0,0,0-.021-7.229a2.9,2.9,0,0,0-2.154.816,2.915,2.915,0,0,0-.811,2.148A2.776,2.776,0,0,0-2.2-2.17,3.031,3.031,0,0,0,0-1.407a3.022,3.022,0,0,0,2.191-.768A2.77,2.77,0,0,0,2.986-4.265ZM0-14.223a2.564,2.564,0,0,0-1.9.725,2.664,2.664,0,0,0-.725,1.971A2.651,2.651,0,0,0-1.907-9.6,2.535,2.535,0,0,0,0-8.862,2.535,2.535,0,0,0,1.907-9.6a2.651,2.651,0,0,0,.714-1.928,2.652,2.652,0,0,0-.741-1.944A2.528,2.528,0,0,0,0-14.223Z" transform="translate(643.018 3220.258)" fill="#12263f"/>
    <path id="Trazado_892148" data-name="Trazado 892148" d="M-15.227-9.646l3.749-5.994H-9.05l-4.941,7.756L-8.932,0h-2.449l-3.846-6.1L-19.094,0h-2.438l5.07-7.885-4.952-7.756H-19ZM2.755-6.671A9.089,9.089,0,0,1,1.563-1.482,4.241,4.241,0,0,1-2.165.215a4.272,4.272,0,0,1-3.706-1.66A8.627,8.627,0,0,1-7.117-6.4V-9.056A8.887,8.887,0,0,1-5.924-14.18a4.273,4.273,0,0,1,3.738-1.676,4.312,4.312,0,0,1,3.717,1.617,8.576,8.576,0,0,1,1.225,4.99ZM.768-9.389a7.282,7.282,0,0,0-.709-3.679,2.44,2.44,0,0,0-2.245-1.155A2.408,2.408,0,0,0-4.41-13.073a7.11,7.11,0,0,0-.72,3.534v3.18a7.4,7.4,0,0,0,.736,3.744A2.436,2.436,0,0,0-2.165-1.407,2.4,2.4,0,0,0,.021-2.546,7.131,7.131,0,0,0,.768-6.134Zm4.78,8.347A1.244,1.244,0,0,1,5.854-1.9a1.167,1.167,0,0,1,.918-.344A1.2,1.2,0,0,1,7.7-1.9a1.219,1.219,0,0,1,.317.859A1.153,1.153,0,0,1,7.7-.215a1.223,1.223,0,0,1-.929.333,1.187,1.187,0,0,1-.918-.333A1.176,1.176,0,0,1,5.548-1.042ZM17.623,0h-2V-13.245l-4.007,1.472v-1.8l5.693-2.138h.312Z" transform="translate(780.018 3220.258)" fill="#12263f"/>
    <path id="Trazado_892149" data-name="Trazado 892149" d="M-31.786,0V-15.641h5.113a5.936,5.936,0,0,1,3.83,1.053,3.794,3.794,0,0,1,1.284,3.115,3.177,3.177,0,0,1-.623,1.939,4.039,4.039,0,0,1-1.7,1.305,3.627,3.627,0,0,1,2,1.348,3.869,3.869,0,0,1,.736,2.369A4.183,4.183,0,0,1-22.5-1.2,5.642,5.642,0,0,1-26.361,0Zm2.063-7.315v5.629h3.405a3.279,3.279,0,0,0,2.272-.747,2.622,2.622,0,0,0,.833-2.057q0-2.825-3.072-2.825Zm0-1.654h3.115a3.265,3.265,0,0,0,2.165-.678,2.274,2.274,0,0,0,.811-1.841,2.236,2.236,0,0,0-.752-1.879,3.693,3.693,0,0,0-2.288-.587h-3.051ZM-16.242,0h-1.987V-16.5h1.987ZM-5.887,0a4.175,4.175,0,0,1-.279-1.225A4.434,4.434,0,0,1-9.475.215a4.1,4.1,0,0,1-2.82-.972,3.145,3.145,0,0,1-1.1-2.465,3.286,3.286,0,0,1,1.38-2.82,6.508,6.508,0,0,1,3.883-1H-6.2V-7.96a2.232,2.232,0,0,0-.623-1.66,2.5,2.5,0,0,0-1.837-.618,2.9,2.9,0,0,0-1.783.537,1.583,1.583,0,0,0-.72,1.3h-2a2.743,2.743,0,0,1,.618-1.681,4.216,4.216,0,0,1,1.676-1.284,5.638,5.638,0,0,1,2.326-.473,4.6,4.6,0,0,1,3.147,1A3.623,3.623,0,0,1-4.211-8.067v5.35A6.54,6.54,0,0,0-3.8-.172V0Zm-3.3-1.515A3.493,3.493,0,0,0-7.412-2,2.924,2.924,0,0,0-6.2-3.255V-5.64H-7.756q-3.652,0-3.652,2.138a1.809,1.809,0,0,0,.623,1.461A2.4,2.4,0,0,0-9.185-1.515ZM.784-11.623l.064,1.461a4.236,4.236,0,0,1,3.48-1.676q3.685,0,3.717,4.157V0H6.059V-7.691A2.676,2.676,0,0,0,5.484-9.55a2.3,2.3,0,0,0-1.756-.6,2.868,2.868,0,0,0-1.7.516A3.5,3.5,0,0,0,.892-8.282V0H-1.1V-11.623ZM15.705-1.407a2.863,2.863,0,0,0,1.858-.645,2.268,2.268,0,0,0,.881-1.611h1.88a3.6,3.6,0,0,1-.687,1.9A4.528,4.528,0,0,1,17.945-.322a4.882,4.882,0,0,1-2.24.537A4.788,4.788,0,0,1,11.929-1.37a6.311,6.311,0,0,1-1.4-4.334v-.333a7,7,0,0,1,.623-3.019,4.745,4.745,0,0,1,1.789-2.052,5.081,5.081,0,0,1,2.755-.73,4.662,4.662,0,0,1,3.25,1.171,4.185,4.185,0,0,1,1.38,3.04h-1.88A2.739,2.739,0,0,0,17.59-9.48a2.657,2.657,0,0,0-1.9-.725,2.781,2.781,0,0,0-2.347,1.09,5.121,5.121,0,0,0-.833,3.153v.376a5.019,5.019,0,0,0,.827,3.094A2.8,2.8,0,0,0,15.705-1.407Zm6.327-4.512A6.865,6.865,0,0,1,22.7-8.991,5.008,5.008,0,0,1,24.573-11.1a5.088,5.088,0,0,1,2.734-.741,4.9,4.9,0,0,1,3.84,1.644,6.323,6.323,0,0,1,1.466,4.372v.14a6.925,6.925,0,0,1-.65,3.045A4.935,4.935,0,0,1,30.1-.537a5.146,5.146,0,0,1-2.777.752A4.889,4.889,0,0,1,23.5-1.429a6.291,6.291,0,0,1-1.466-4.351Zm2,.236a4.972,4.972,0,0,0,.9,3.1,2.871,2.871,0,0,0,2.4,1.171,2.853,2.853,0,0,0,2.406-1.187,5.437,5.437,0,0,0,.892-3.325,4.964,4.964,0,0,0-.908-3.1,2.886,2.886,0,0,0-2.412-1.187,2.854,2.854,0,0,0-2.374,1.171A5.4,5.4,0,0,0,24.03-5.683Z" transform="translate(485.018 3262.258)" fill="#12263f"/>
    <path id="Trazado_892150" data-name="Trazado 892150" d="M2.739-6.875A4.862,4.862,0,0,1,1.251-5.683a4.037,4.037,0,0,1-1.9.451A4.167,4.167,0,0,1-3-5.9,4.33,4.33,0,0,1-4.555-7.772,6.39,6.39,0,0,1-5.1-10.441a6.511,6.511,0,0,1,.6-2.825,4.379,4.379,0,0,1,1.692-1.923,4.825,4.825,0,0,1,2.557-.666A4.368,4.368,0,0,1,3.4-14.121,7.567,7.567,0,0,1,4.737-9.389v.58q0,4.565-1.8,6.666A6.933,6.933,0,0,1-2.514.011H-2.9V-1.676h.419A5.471,5.471,0,0,0,1.3-2.957,5.5,5.5,0,0,0,2.739-6.875Zm-3.062,0A3.069,3.069,0,0,0,1.52-7.487,3.609,3.609,0,0,0,2.75-9V-9.8a5.469,5.469,0,0,0-.849-3.18A2.532,2.532,0,0,0-.247-14.2a2.552,2.552,0,0,0-2.105,1,4.143,4.143,0,0,0-.795,2.648,4.312,4.312,0,0,0,.768,2.637A2.432,2.432,0,0,0-.322-6.875Z" transform="translate(643.018 3262.258)" fill="#12263f"/>
    <path id="Trazado_892151" data-name="Trazado 892151" d="M-21.4-9.646l3.749-5.994h2.428l-4.941,7.756L-15.109,0h-2.449L-21.4-6.1-25.271,0h-2.438l5.07-7.885-4.952-7.756h2.417ZM-3.421-6.671A9.089,9.089,0,0,1-4.614-1.482,4.241,4.241,0,0,1-8.341.215a4.272,4.272,0,0,1-3.706-1.66A8.627,8.627,0,0,1-13.293-6.4V-9.056A8.887,8.887,0,0,1-12.1-14.18a4.273,4.273,0,0,1,3.738-1.676,4.312,4.312,0,0,1,3.717,1.617,8.576,8.576,0,0,1,1.225,4.99ZM-5.409-9.389a7.282,7.282,0,0,0-.709-3.679,2.44,2.44,0,0,0-2.245-1.155,2.408,2.408,0,0,0-2.224,1.149,7.11,7.11,0,0,0-.72,3.534v3.18a7.4,7.4,0,0,0,.736,3.744A2.436,2.436,0,0,0-8.341-1.407,2.4,2.4,0,0,0-6.155-2.546a7.131,7.131,0,0,0,.747-3.588Zm4.78,8.347A1.244,1.244,0,0,1-.322-1.9,1.167,1.167,0,0,1,.6-2.245a1.2,1.2,0,0,1,.929.344,1.219,1.219,0,0,1,.317.859,1.153,1.153,0,0,1-.317.827A1.223,1.223,0,0,1,.6.118,1.187,1.187,0,0,1-.322-.215,1.176,1.176,0,0,1-.628-1.042ZM14.722-6.671A9.089,9.089,0,0,1,13.53-1.482,4.241,4.241,0,0,1,9.8.215,4.272,4.272,0,0,1,6.1-1.445,8.627,8.627,0,0,1,4.85-6.4V-9.056A8.887,8.887,0,0,1,6.042-14.18a4.273,4.273,0,0,1,3.738-1.676A4.312,4.312,0,0,1,13.5-14.239a8.576,8.576,0,0,1,1.225,4.99ZM12.735-9.389a7.282,7.282,0,0,0-.709-3.679,2.44,2.44,0,0,0-2.245-1.155,2.408,2.408,0,0,0-2.224,1.149,7.11,7.11,0,0,0-.72,3.534v3.18a7.4,7.4,0,0,0,.736,3.744A2.436,2.436,0,0,0,9.8-1.407a2.4,2.4,0,0,0,2.186-1.139,7.131,7.131,0,0,0,.747-3.588ZM23.8,0h-2V-13.245l-4.007,1.472v-1.8l5.693-2.138H23.8Z" transform="translate(780.018 3262.258)" fill="#12263f"/>
  </g>
</svg>
