<svg xmlns="http://www.w3.org/2000/svg" width="399.359" height="364.501" viewBox="0 0 399.359 364.501">
  <g id="Grupo_1107552" data-name="Grupo 1107552" transform="translate(-937.099 -479.619)">
    <path id="Trazado_890742" data-name="Trazado 890742" d="M-7716.374,3913.508v111.58l14.852,6.238-31.16,15.117,31.16,12.583-31.16,11.9,31.16,12.342-31.16,14.273,16.309,3.756v109.742h-281.041V3913.508h111.156l7.344-20.08,11.819,38.466,12.509-38.466,11.7,38.466,12.328-38.466,11.689,38.466,6.519-18.386Z" transform="translate(8991.072 -3369.922)" fill="none" stroke="#000" stroke-width="6"/>
    <path id="Trazado_892085" data-name="Trazado 892085" d="M9.5,0A9.5,9.5,0,1,1,0,9.5,9.5,9.5,0,0,1,9.5,0Z" transform="translate(1264.073 535.078)"/>
    <g id="Trazado_892086" data-name="Trazado 892086" transform="translate(959.073 657.078)" fill="none">
      <path d="M34.5,0A34.5,34.5,0,1,1,0,34.5,34.5,34.5,0,0,1,34.5,0Z" stroke="none"/>
      <path d="M 34.5 6 C 18.7850456237793 6 6 18.7850456237793 6 34.5 C 6 50.2149543762207 18.7850456237793 63 34.5 63 C 50.2149543762207 63 63 50.2149543762207 63 34.5 C 63 18.7850456237793 50.2149543762207 6 34.5 6 M 34.5 0 C 53.5538330078125 0 69 15.44617080688477 69 34.5 C 69 53.5538330078125 53.5538330078125 69 34.5 69 C 15.44617080688477 69 0 53.5538330078125 0 34.5 C 0 15.44617080688477 15.44617080688477 0 34.5 0 Z" stroke="none" fill="#000"/>
    </g>
    <path id="Trazado_892092" data-name="Trazado 892092" d="M1.987,0h-2.6V-12.565l-3.835,1.307v-2.191l6.1-2.245h.333Z" transform="translate(1128.614 500.99)" fill="#12263f"/>
    <path id="Trazado_892093" data-name="Trazado 892093" d="M.473-6.016H-2.557V0H-5.274V-15.641h5.5A6.4,6.4,0,0,1,4.4-14.426,4.3,4.3,0,0,1,5.876-10.91a4.4,4.4,0,0,1-.757,2.629A4.819,4.819,0,0,1,3.008-6.653L6.521-.139V0H3.609ZM-2.557-8.207H.236A3.106,3.106,0,0,0,2.385-8.9a2.416,2.416,0,0,0,.773-1.9,2.572,2.572,0,0,0-.714-1.944,3.035,3.035,0,0,0-2.132-.709H-2.557Z" transform="translate(1111.843 495.26)" fill="#12263f"/>
    <path id="Trazado_892094" data-name="Trazado 892094" d="M5.436,0H-5.081V-1.794L.129-7.477a12.974,12.974,0,0,0,1.606-2.1,3.4,3.4,0,0,0,.478-1.692,2.571,2.571,0,0,0-.628-1.8,2.18,2.18,0,0,0-1.692-.687,2.513,2.513,0,0,0-1.966.773,3.042,3.042,0,0,0-.7,2.116h-2.61a5.116,5.116,0,0,1,.65-2.573,4.475,4.475,0,0,1,1.858-1.778,5.915,5.915,0,0,1,2.788-.634,5.291,5.291,0,0,1,3.593,1.144,3.971,3.971,0,0,1,1.316,3.164,5.369,5.369,0,0,1-.661,2.455A13.958,13.958,0,0,1,2-6.177L-1.826-2.084H5.436Z" transform="translate(1331.022 720.309)" fill="#12263f"/>
    <path id="Trazado_892095" data-name="Trazado 892095" d="M.473-6.016H-2.557V0H-5.274V-15.641h5.5A6.4,6.4,0,0,1,4.4-14.426,4.3,4.3,0,0,1,5.876-10.91a4.4,4.4,0,0,1-.757,2.629A4.819,4.819,0,0,1,3.008-6.653L6.521-.139V0H3.609ZM-2.557-8.207H.236A3.106,3.106,0,0,0,2.385-8.9a2.416,2.416,0,0,0,.773-1.9,2.572,2.572,0,0,0-.714-1.944,3.035,3.035,0,0,0-2.132-.709H-2.557Z" transform="translate(1314.251 714.578)" fill="#12263f"/>
    <path id="Trazado_892096" data-name="Trazado 892096" d="M1.987,0h-2.6V-12.565l-3.835,1.307v-2.191l6.1-2.245h.333Z" transform="translate(1202.875 508.99)" fill="#12263f"/>
    <path id="Trazado_892097" data-name="Trazado 892097" d="M-.016-3.405,3.958-15.641H6.945L1.316,0H-1.316L-6.923-15.641h2.976Z" transform="translate(1186.105 503.26)" fill="#12263f"/>
    <path id="Trazado_892098" data-name="Trazado 892098" d="M5.436,0H-5.081V-1.794L.129-7.477a12.974,12.974,0,0,0,1.606-2.1,3.4,3.4,0,0,0,.478-1.692,2.571,2.571,0,0,0-.628-1.8,2.18,2.18,0,0,0-1.692-.687,2.513,2.513,0,0,0-1.966.773,3.042,3.042,0,0,0-.7,2.116h-2.61a5.116,5.116,0,0,1,.65-2.573,4.475,4.475,0,0,1,1.858-1.778,5.915,5.915,0,0,1,2.788-.634,5.291,5.291,0,0,1,3.593,1.144,3.971,3.971,0,0,1,1.316,3.164,5.369,5.369,0,0,1-.661,2.455A13.958,13.958,0,0,1,2-6.177L-1.826-2.084H5.436Z" transform="translate(1331.022 676.313)" fill="#12263f"/>
    <path id="Trazado_892099" data-name="Trazado 892099" d="M-.016-3.405,3.958-15.641H6.945L1.316,0H-1.316L-6.923-15.641h2.976Z" transform="translate(1314.251 670.583)" fill="#12263f"/>
    <path id="Trazado_892087" data-name="Trazado 892087" d="M-.016-3.405,3.958-15.641H6.945L1.316,0H-1.316L-6.923-15.641h2.976Z" transform="translate(944.022 696.811)" fill="#12263f"/>
    <path id="Trazado_892088" data-name="Trazado 892088" d="M1.354,0H-1.354V-15.641H1.354Z" transform="translate(1124.022 614.811)" fill="#12263f"/>
    <path id="Trazado_892089" data-name="Trazado 892089" d="M1.354,0H-1.354V-15.641H1.354Z" transform="translate(1169.022 696.811)" fill="#12263f"/>
    <path id="Trazado_890743" data-name="Trazado 890743" d="M0,0V119.56" transform="translate(1208.604 628.522)" fill="none" stroke="#dc2626" stroke-linecap="round" stroke-width="6"/>
    <path id="Trazado_890744" data-name="Trazado 890744" d="M0,0V54.62" transform="translate(1112.681 584.486) rotate(-90)" fill="none" stroke="#dc2626" stroke-linecap="round" stroke-width="6"/>
    <path id="Trazado_892090" data-name="Trazado 892090" d="M7.6,0l7.6,13.673H0Z" transform="translate(1216.471 757.892) rotate(180)" fill="#dc2626"/>
    <path id="Trazado_892091" data-name="Trazado 892091" d="M7.6,0l7.6,13.673H0Z" transform="translate(1177.111 576.619) rotate(90)" fill="#dc2626"/>
  </g>
</svg>
