<svg xmlns="http://www.w3.org/2000/svg" width="399.656" height="430.507" viewBox="0 0 399.656 430.507">
  <g id="Grupo_1107554" data-name="Grupo 1107554" transform="translate(-600.344 -6706.727)">
    <path id="Trazado_890589" data-name="Trazado 890589" d="M-7859.936-7172.131h-134.5v-246.574h74.665l8.884-17.173,27.928,43.231,23.027-33.8,26.415,31.487,24.667-45.474,28.422,47.784,12.238-21.168h75.7v241.684h-141.029" transform="translate(8667.271 14187.985)" fill="none" stroke="#000" stroke-width="5"/>
    <path id="Trazado_890590" data-name="Trazado 890590" d="M-7900.7-9397.434v92.524" transform="translate(8708.466 16368.834)" fill="none" stroke="#000" stroke-width="5"/>
    <path id="Trazado_890591" data-name="Trazado 890591" d="M-7900.7-9397.434v55.157" transform="translate(8734.417 16387.373)" fill="none" stroke="#000" stroke-linecap="round" stroke-width="8"/>
    <path id="Trazado_890592" data-name="Trazado 890592" d="M0,0V80.767" transform="translate(992.132 6933.45)" fill="none" stroke="#dc2626" stroke-linecap="round" stroke-width="6"/>
    <path id="Trazado_890593" data-name="Trazado 890593" d="M0,0V147.775" transform="translate(607.669 6866.442)" fill="none" stroke="#dc2626" stroke-linecap="round" stroke-width="6"/>
    <path id="Trazado_890594" data-name="Trazado 890594" d="M0,0V76.166" transform="translate(645.697 7014.217) rotate(180)" fill="none" stroke="#dc2626" stroke-linecap="round" stroke-width="6"/>
    <path id="Trazado_892103" data-name="Trazado 892103" d="M7.6,0l7.6,13.673H0Z" transform="translate(1000 7024.026) rotate(180)" fill="#dc2626"/>
    <path id="Trazado_892104" data-name="Trazado 892104" d="M7.6,0l7.6,13.673H0Z" transform="translate(615.536 7024.026) rotate(180)" fill="#dc2626"/>
    <path id="Trazado_892105" data-name="Trazado 892105" d="M7.6,0l7.6,13.673H0Z" transform="translate(637.83 6928.242)" fill="#dc2626"/>
    <path id="Trazado_890595" data-name="Trazado 890595" d="M0,0V76.166" transform="translate(712.823 7017.664)" fill="none" stroke="#dc2626" stroke-width="6"/>
    <path id="Trazado_892114" data-name="Trazado 892114" d="M7.6,0l7.6,13.673H0Z" transform="translate(720.69 7103.639) rotate(180)" fill="#dc2626"/>
    <path id="Trazado_890595-2" data-name="Trazado 890595" d="M0,0V84" transform="translate(686.298 6868.635) rotate(-90)" fill="none" stroke="#dc2626" stroke-linecap="round" stroke-width="6"/>
    <path id="Trazado_892115" data-name="Trazado 892115" d="M7.6,0l7.6,13.673H0Z" transform="translate(780.11 6860.768) rotate(90)" fill="#dc2626"/>
    <path id="Trazado_890595-3" data-name="Trazado 890595" d="M0,0V76.166" transform="translate(941.579 7017.664)" fill="none" stroke="#dc2626" stroke-width="6"/>
    <path id="Trazado_892116" data-name="Trazado 892116" d="M7.6,0l7.6,13.673H0Z" transform="translate(949.446 7103.639) rotate(180)" fill="#dc2626"/>
    <path id="Trazado_892106" data-name="Trazado 892106" d="M12.339-10.117H7.245V0H2.674V-26.3h9.25q4.553,0,7.028,2.043a7.228,7.228,0,0,1,2.475,5.913,7.4,7.4,0,0,1-1.274,4.421,8.1,8.1,0,0,1-3.55,2.739L22.511-.235V0h-4.9ZM7.245-13.8h4.7a5.224,5.224,0,0,0,3.613-1.165,4.064,4.064,0,0,0,1.3-3.189,4.326,4.326,0,0,0-1.2-3.27,5.1,5.1,0,0,0-3.586-1.192H7.245ZM36.946,0H32.574V-21.132l-6.45,2.2v-3.686L36.386-26.4h.56Z" transform="translate(798.157 6840.081)"/>
    <path id="Trazado_892107" data-name="Trazado 892107" d="M7.5,0H2.945V-26.3H7.5ZM24.3,0H19.927V-21.132l-6.45,2.2v-3.686L23.739-26.4h.56Z" transform="translate(697.235 6840.081)"/>
    <path id="Trazado_892108" data-name="Trazado 892108" d="M12.339-10.117H7.245V0H2.674V-26.3h9.25q4.553,0,7.028,2.043a7.228,7.228,0,0,1,2.475,5.913,7.4,7.4,0,0,1-1.274,4.421,8.1,8.1,0,0,1-3.55,2.739L22.511-.235V0h-4.9ZM7.245-13.8h4.7a5.224,5.224,0,0,0,3.613-1.165,4.064,4.064,0,0,0,1.3-3.189,4.326,4.326,0,0,0-1.2-3.27,5.1,5.1,0,0,0-3.586-1.192H7.245ZM42.745,0H25.058V-3.017l8.762-9.557a21.82,21.82,0,0,0,2.7-3.532,5.723,5.723,0,0,0,.8-2.845,4.323,4.323,0,0,0-1.057-3.035,3.666,3.666,0,0,0-2.845-1.156,4.226,4.226,0,0,0-3.306,1.3,5.115,5.115,0,0,0-1.174,3.559h-4.39a8.6,8.6,0,0,1,1.093-4.327,7.526,7.526,0,0,1,3.125-2.99,9.948,9.948,0,0,1,4.688-1.066A8.9,8.9,0,0,1,39.5-24.742a6.679,6.679,0,0,1,2.213,5.321A9.029,9.029,0,0,1,40.6-15.293a23.474,23.474,0,0,1-3.64,4.905L30.532-3.5H42.745Z" transform="translate(798.157 6733.393)"/>
    <path id="Trazado_892109" data-name="Trazado 892109" d="M7.5,0H2.945V-26.3H7.5ZM30.1,0H12.412V-3.017l8.762-9.557a21.82,21.82,0,0,0,2.7-3.532,5.723,5.723,0,0,0,.8-2.845,4.323,4.323,0,0,0-1.057-3.035,3.666,3.666,0,0,0-2.845-1.156,4.226,4.226,0,0,0-3.306,1.3A5.115,5.115,0,0,0,16.3-18.283h-4.39A8.6,8.6,0,0,1,13-22.61a7.526,7.526,0,0,1,3.125-2.99,9.948,9.948,0,0,1,4.688-1.066,8.9,8.9,0,0,1,6.043,1.924,6.679,6.679,0,0,1,2.213,5.321,9.029,9.029,0,0,1-1.111,4.128,23.474,23.474,0,0,1-3.64,4.905L17.886-3.5H30.1Z" transform="translate(697.235 6733.393)"/>
    <path id="Trazado_892110" data-name="Trazado 892110" d="M16.928-5.959H7.014L4.939,0H.316L9.984-25.594h3.99L23.66,0H19.02ZM8.262-9.545H15.68L11.971-20.162Z" transform="translate(623.413 6878.491)"/>
    <path id="Trazado_892111" data-name="Trazado 892111" d="M13.857,0H9.485V-21.132l-6.45,2.2v-3.686L13.3-26.4h.56ZM40.686,0H23V-3.017l8.762-9.557a21.82,21.82,0,0,0,2.7-3.532,5.723,5.723,0,0,0,.8-2.845,4.323,4.323,0,0,0-1.057-3.035,3.666,3.666,0,0,0-2.845-1.156,4.226,4.226,0,0,0-3.306,1.3,5.115,5.115,0,0,0-1.174,3.559h-4.39a8.6,8.6,0,0,1,1.093-4.327,7.526,7.526,0,0,1,3.125-2.99A9.948,9.948,0,0,1,31.4-26.666a8.9,8.9,0,0,1,6.043,1.924,6.679,6.679,0,0,1,2.213,5.321,9.029,9.029,0,0,1-1.111,4.128,23.474,23.474,0,0,1-3.64,4.905L28.473-3.5H40.686ZM54-5.727,60.685-26.3h5.022L56.241,0H51.814L42.384-26.3h5Z" transform="translate(674.167 7136.872)"/>
    <path id="Trazado_892112" data-name="Trazado 892112" d="M23.667-12.466A16.139,16.139,0,0,1,22.33-5.682,10.108,10.108,0,0,1,18.509-1.2,10.51,10.51,0,0,1,12.791.361,10.535,10.535,0,0,1,7.091-1.2,10.264,10.264,0,0,1,3.225-5.655a15.634,15.634,0,0,1-1.382-6.667V-13.8A16,16,0,0,1,3.207-20.6,10.252,10.252,0,0,1,7.055-25.1a10.477,10.477,0,0,1,5.7-1.563,10.569,10.569,0,0,1,5.7,1.545,10.122,10.122,0,0,1,3.839,4.444,15.966,15.966,0,0,1,1.373,6.748ZM19.1-13.839q0-4.372-1.653-6.7a5.408,5.408,0,0,0-4.688-2.331,5.392,5.392,0,0,0-4.634,2.322,11.277,11.277,0,0,0-1.707,6.567v1.518A11.412,11.412,0,0,0,8.1-5.763,5.439,5.439,0,0,0,12.791-3.4a5.376,5.376,0,0,0,4.67-2.312Q19.1-8.021,19.1-12.466ZM37.09-5.727,43.775-26.3H48.8L39.331,0H34.9L25.474-26.3h5Z" transform="translate(853.904 7136.872)"/>
    <path id="Trazado_892113" data-name="Trazado 892113" d="M9,0a9.26,9.26,0,0,1,9,9.5A9.26,9.26,0,0,1,9,19,9.26,9.26,0,0,1,0,9.5,9.26,9.26,0,0,1,9,0Z" transform="translate(664.051 6890.81)"/>
    <path id="Trazado_890596" data-name="Trazado 890596" d="M-7988.547-7282.389h70.915l7.978-15.614,27.033,40.664,24.363-33.339,24.432,32.348,25.332-46.065,27.694,47.056,15.828-23.239h72.2" transform="translate(8667.043 14182.701)" fill="none" stroke="#000" stroke-width="5"/>
  </g>
</svg>
