<svg xmlns="http://www.w3.org/2000/svg" width="397.707" height="169.806" viewBox="0 0 397.707 169.806">
  <g id="Grupo_1107553" data-name="Grupo 1107553" transform="translate(-916.525 -1801.999)">
    <path id="Trazado_890795" data-name="Trazado 890795" d="M18586.287-9192.3V-9038.5" transform="translate(-17626.883 11010.303)" fill="none" stroke="#000" stroke-width="4"/>
    <path id="Trazado_890796" data-name="Trazado 890796" d="M0,0V342.49" transform="translate(1303.801 1899.902) rotate(90)" fill="none" stroke="#000" stroke-width="4"/>
    <path id="Trazado_890797" data-name="Trazado 890797" d="M0,0V342.49" transform="translate(1303.801 1848.902) rotate(90)" fill="none" stroke="#dc2626" stroke-width="4"/>
    <path id="Trazado_892092" data-name="Trazado 892092" d="M8,0l8,10.432H0Z" transform="translate(1314.232 1891.902) rotate(90)"/>
    <path id="Trazado_892093" data-name="Trazado 892093" d="M-29.272,0h-2.6V-12.565l-3.835,1.307v-2.191l6.1-2.245h.333Zm12.5,0h-2.6V-12.565L-23.2-11.258v-2.191l6.1-2.245h.333Zm15.63-6.585A8.53,8.53,0,0,1-2.4-1.5,4.458,4.458,0,0,1-6.241.215a4.517,4.517,0,0,1-3.819-1.67A8.168,8.168,0,0,1-11.376-6.4V-9.109a8.4,8.4,0,0,1,1.262-5.06,4.5,4.5,0,0,1,3.851-1.687,4.524,4.524,0,0,1,3.83,1.644,8.145,8.145,0,0,1,1.294,4.92Zm-2.61-2.922a6.618,6.618,0,0,0-.6-3.228,2.053,2.053,0,0,0-1.912-1.026,2.052,2.052,0,0,0-1.88.972,6.116,6.116,0,0,0-.634,3.035v3.545a6.789,6.789,0,0,0,.612,3.266A2.057,2.057,0,0,0-6.241-1.869a2.021,2.021,0,0,0,1.858-.994,6.387,6.387,0,0,0,.634-3.11Z" transform="translate(952.232 1857.402)" fill="#12263f"/>
    <path id="Trazado_892095" data-name="Trazado 892095" d="M-23.578-2.82-21-11.375h2.609L-22.352,0H-24.8l-3.945-11.375h2.6Zm5.4-1.484A5.013,5.013,0,0,1-17.7-6.547,3.546,3.546,0,0,1-16.3-8.07a4.069,4.069,0,0,1,2.113-.539,3.849,3.849,0,0,1,2.793,1.047,4.2,4.2,0,0,1,1.207,2.844l.016.578A4.418,4.418,0,0,1-11.258-1.02,3.775,3.775,0,0,1-14.172.156,3.793,3.793,0,0,1-17.09-1.016,4.5,4.5,0,0,1-18.18-4.2Zm2.258.16A3.16,3.16,0,0,0-15.469-2.3a1.5,1.5,0,0,0,1.3.638,1.5,1.5,0,0,0,1.281-.63,3.457,3.457,0,0,0,.461-2.015,3.128,3.128,0,0,0-.461-1.831,1.5,1.5,0,0,0-1.3-.649,1.474,1.474,0,0,0-1.281.646A3.516,3.516,0,0,0-15.922-4.144ZM-6.4,0H-8.664V-12H-6.4Zm4.563-10.531v2.078H-.391V-6.8H-1.836v4.219a1.007,1.007,0,0,0,.18.672.9.9,0,0,0,.688.2A3.6,3.6,0,0,0-.3-1.758V-.047a4.648,4.648,0,0,1-1.367.2,2.156,2.156,0,0,1-2.422-2.4V-6.8H-5.328V-8.453h1.234v-2.078Z" transform="translate(952.232 1813.999)" fill="#dc2626"/>
    <path id="Trazado_892091" data-name="Trazado 892091" d="M-6.895-2.984A1.2,1.2,0,0,0-7.363-4a6.148,6.148,0,0,0-1.687-.75,11.963,11.963,0,0,1-1.93-.777,3.153,3.153,0,0,1-1.937-2.82A2.747,2.747,0,0,1-12.4-10a3.389,3.389,0,0,1,1.492-1.129,5.616,5.616,0,0,1,2.184-.406,5.112,5.112,0,0,1,2.172.441A3.458,3.458,0,0,1-5.07-9.844a3.261,3.261,0,0,1,.527,1.828H-6.887A1.534,1.534,0,0,0-7.379-9.23a2.023,2.023,0,0,0-1.383-.434A2.162,2.162,0,0,0-10.1-9.3a1.146,1.146,0,0,0-.477.957,1.1,1.1,0,0,0,.559.93,6.311,6.311,0,0,0,1.645.7A7.106,7.106,0,0,1-5.457-5.219,2.972,2.972,0,0,1-4.543-3,2.737,2.737,0,0,1-5.66-.684a4.891,4.891,0,0,1-3.008.84,5.808,5.808,0,0,1-2.391-.48A3.783,3.783,0,0,1-12.7-1.641a3.371,3.371,0,0,1-.566-1.937h2.352q0,1.883,2.25,1.883a2.189,2.189,0,0,0,1.3-.34A1.106,1.106,0,0,0-6.895-2.984ZM.785.156A4.15,4.15,0,0,1-2.242-.984,4.054,4.054,0,0,1-3.41-4.023v-.219A5.106,5.106,0,0,1-2.918-6.52,3.612,3.612,0,0,1-1.523-8.066,3.914,3.914,0,0,1,.535-8.609a3.508,3.508,0,0,1,2.73,1.094,4.444,4.444,0,0,1,1,3.1v.922H-1.121a2.1,2.1,0,0,0,.66,1.328,2,2,0,0,0,1.395.5,2.437,2.437,0,0,0,2.039-.945L4.082-1.367A3.389,3.389,0,0,1,2.707-.246,4.511,4.511,0,0,1,.785.156ZM.527-6.789a1.411,1.411,0,0,0-1.09.455,2.357,2.357,0,0,0-.535,1.3H2.043v-.181a1.681,1.681,0,0,0-.406-1.165A1.456,1.456,0,0,0,.527-6.789Zm4.688,2.5a4.954,4.954,0,0,1,.926-3.133,3,3,0,0,1,2.5-1.187,2.631,2.631,0,0,1,2.164.953l.094-.8h2.047V-.281a3.613,3.613,0,0,1-.5,1.93A3.236,3.236,0,0,1,11.02,2.9a4.985,4.985,0,0,1-2.141.43,4.635,4.635,0,0,1-1.812-.371A3.217,3.217,0,0,1,5.73,2l1-1.375a2.645,2.645,0,0,0,2.047.945,1.936,1.936,0,0,0,1.4-.48,1.8,1.8,0,0,0,.5-1.363V-.727A2.612,2.612,0,0,1,8.621.156,2.992,2.992,0,0,1,6.156-1.035,4.953,4.953,0,0,1,5.215-4.2Zm2.258.161a3.1,3.1,0,0,0,.461,1.809A1.465,1.465,0,0,0,9.2-1.664a1.567,1.567,0,0,0,1.477-.777V-6.012a1.563,1.563,0,0,0-1.461-.777,1.474,1.474,0,0,0-1.277.667A3.5,3.5,0,0,0,7.473-4.128Z" transform="translate(1277.449 1919.999)" fill="#dc2626"/>
    <path id="Trazado_892094" data-name="Trazado 892094" d="M-.75-4.7a5.762,5.762,0,0,1-.977,3.609A3.409,3.409,0,0,1-4.586.156,3.433,3.433,0,0,1-7.43-1.07,5.594,5.594,0,0,1-8.437-4.586V-6.68A5.687,5.687,0,0,1-7.449-10.3,3.434,3.434,0,0,1-4.6-11.531a3.437,3.437,0,0,1,2.844,1.223A5.576,5.576,0,0,1-.75-6.8Zm-2.258-2.3a4.165,4.165,0,0,0-.387-2.061A1.307,1.307,0,0,0-4.6-9.711,1.284,1.284,0,0,0-5.777-9.1a3.9,3.9,0,0,0-.4,1.92v2.768A4.372,4.372,0,0,0-5.8-2.341a1.29,1.29,0,0,0,1.215.676,1.268,1.268,0,0,0,1.2-.649A4.268,4.268,0,0,0-3.008-4.3Z" transform="translate(952.232 1906.402)" fill="#dc2626"/>
  </g>
</svg>
