<svg xmlns="http://www.w3.org/2000/svg" xmlns:xlink="http://www.w3.org/1999/xlink" width="398.968" height="165.553" viewBox="0 0 398.968 165.553">
  <defs>
    <clipPath id="clip-path">
      <rect id="Rect치ngulo_403252" data-name="Rect치ngulo 403252" width="125.789" height="122.184" fill="#6366f1"/>
    </clipPath>
    <clipPath id="clip-path-3">
      <rect id="Rect치ngulo_403252-3" data-name="Rect치ngulo 403252" width="125.789" height="122.185" fill="#6366f1"/>
    </clipPath>
  </defs>
  <g id="Grupo_1107552" data-name="Grupo 1107552" transform="translate(-916.099 -2258.345)">
    <path id="Trazado_890800" data-name="Trazado 890800" d="M18586.287-9192.3v149.553" transform="translate(-17619.049 11466.648)" fill="none" stroke="#000" stroke-width="4"/>
    <path id="Trazado_890798" data-name="Trazado 890798" d="M0,0V337.4" transform="translate(1304.635 2354.995) rotate(90)" fill="none" stroke="#000" stroke-width="4"/>
    <path id="Trazado_890799" data-name="Trazado 890799" d="M0,0V327.152" transform="translate(1296.512 2305.995) rotate(90)" fill="none" stroke="#dc2626" stroke-width="3" stroke-dasharray="12 6"/>
    <path id="Trazado_890803" data-name="Trazado 890803" d="M0,0V327.152" transform="translate(1296.512 2403.995) rotate(90)" fill="none" stroke="#dc2626" stroke-width="3" stroke-dasharray="12 6"/>
    <path id="Trazado_892085" data-name="Trazado 892085" d="M8,0l8,10.432H0Z" transform="translate(1315.066 2346.995) rotate(90)"/>
    <path id="Trazado_892086" data-name="Trazado 892086" d="M-29.272,0h-2.6V-12.565l-3.835,1.307v-2.191l6.1-2.245h.333Zm12.5,0h-2.6V-12.565L-23.2-11.258v-2.191l6.1-2.245h.333Zm15.63-6.585A8.53,8.53,0,0,1-2.4-1.5,4.458,4.458,0,0,1-6.241.215a4.517,4.517,0,0,1-3.819-1.67A8.168,8.168,0,0,1-11.376-6.4V-9.109a8.4,8.4,0,0,1,1.262-5.06,4.5,4.5,0,0,1,3.851-1.687,4.524,4.524,0,0,1,3.83,1.644,8.145,8.145,0,0,1,1.294,4.92Zm-2.61-2.922a6.618,6.618,0,0,0-.6-3.228,2.053,2.053,0,0,0-1.912-1.026,2.052,2.052,0,0,0-1.88.972,6.116,6.116,0,0,0-.634,3.035v3.545a6.789,6.789,0,0,0,.612,3.266A2.057,2.057,0,0,0-6.241-1.869a2.021,2.021,0,0,0,1.858-.994,6.387,6.387,0,0,0,.634-3.11Z" transform="translate(960.066 2314.495)" fill="#12263f"/>
    <path id="Trazado_892087" data-name="Trazado 892087" d="M-38.328-5.6h-5.64V-7.7h5.64ZM-29.272,0h-2.6V-12.565l-3.835,1.307v-2.191l6.1-2.245h.333Zm12.5,0h-2.6V-12.565L-23.2-11.258v-2.191l6.1-2.245h.333Zm15.63-6.585A8.53,8.53,0,0,1-2.4-1.5,4.458,4.458,0,0,1-6.241.215a4.517,4.517,0,0,1-3.819-1.67A8.168,8.168,0,0,1-11.376-6.4V-9.109a8.4,8.4,0,0,1,1.262-5.06,4.5,4.5,0,0,1,3.851-1.687,4.524,4.524,0,0,1,3.83,1.644,8.145,8.145,0,0,1,1.294,4.92Zm-2.61-2.922a6.618,6.618,0,0,0-.6-3.228,2.053,2.053,0,0,0-1.912-1.026,2.052,2.052,0,0,0-1.88.972,6.116,6.116,0,0,0-.634,3.035v3.545a6.789,6.789,0,0,0,.612,3.266A2.057,2.057,0,0,0-6.241-1.869a2.021,2.021,0,0,0,1.858-.994,6.387,6.387,0,0,0,.634-3.11Z" transform="translate(960.066 2414.495)" fill="#12263f"/>
    <path id="Trazado_892088" data-name="Trazado 892088" d="M-23.578-2.82-21-11.375h2.609L-22.352,0H-24.8l-3.945-11.375h2.6Zm5.4-1.484A5.013,5.013,0,0,1-17.7-6.547,3.546,3.546,0,0,1-16.3-8.07a4.069,4.069,0,0,1,2.113-.539,3.849,3.849,0,0,1,2.793,1.047,4.2,4.2,0,0,1,1.207,2.844l.016.578A4.418,4.418,0,0,1-11.258-1.02,3.775,3.775,0,0,1-14.172.156,3.793,3.793,0,0,1-17.09-1.016,4.5,4.5,0,0,1-18.18-4.2Zm2.258.16A3.16,3.16,0,0,0-15.469-2.3a1.5,1.5,0,0,0,1.3.638,1.5,1.5,0,0,0,1.281-.63,3.457,3.457,0,0,0,.461-2.015,3.128,3.128,0,0,0-.461-1.831,1.5,1.5,0,0,0-1.3-.649,1.474,1.474,0,0,0-1.281.646A3.516,3.516,0,0,0-15.922-4.144ZM-6.4,0H-8.664V-12H-6.4Zm4.563-10.531v2.078H-.391V-6.8H-1.836v4.219a1.007,1.007,0,0,0,.18.672.9.9,0,0,0,.688.2A3.6,3.6,0,0,0-.3-1.758V-.047a4.648,4.648,0,0,1-1.367.2,2.156,2.156,0,0,1-2.422-2.4V-6.8H-5.328V-8.453h1.234v-2.078Z" transform="translate(960.066 2270.345)" fill="#dc2626"/>
    <path id="Trazado_892089" data-name="Trazado 892089" d="M-6.895-2.984A1.2,1.2,0,0,0-7.363-4a6.148,6.148,0,0,0-1.687-.75,11.963,11.963,0,0,1-1.93-.777,3.153,3.153,0,0,1-1.937-2.82A2.747,2.747,0,0,1-12.4-10a3.389,3.389,0,0,1,1.492-1.129,5.616,5.616,0,0,1,2.184-.406,5.112,5.112,0,0,1,2.172.441A3.458,3.458,0,0,1-5.07-9.844a3.261,3.261,0,0,1,.527,1.828H-6.887A1.534,1.534,0,0,0-7.379-9.23a2.023,2.023,0,0,0-1.383-.434A2.162,2.162,0,0,0-10.1-9.3a1.146,1.146,0,0,0-.477.957,1.1,1.1,0,0,0,.559.93,6.311,6.311,0,0,0,1.645.7A7.106,7.106,0,0,1-5.457-5.219,2.972,2.972,0,0,1-4.543-3,2.737,2.737,0,0,1-5.66-.684a4.891,4.891,0,0,1-3.008.84,5.808,5.808,0,0,1-2.391-.48A3.783,3.783,0,0,1-12.7-1.641a3.371,3.371,0,0,1-.566-1.937h2.352q0,1.883,2.25,1.883a2.189,2.189,0,0,0,1.3-.34A1.106,1.106,0,0,0-6.895-2.984ZM.785.156A4.15,4.15,0,0,1-2.242-.984,4.054,4.054,0,0,1-3.41-4.023v-.219A5.106,5.106,0,0,1-2.918-6.52,3.612,3.612,0,0,1-1.523-8.066,3.914,3.914,0,0,1,.535-8.609a3.508,3.508,0,0,1,2.73,1.094,4.444,4.444,0,0,1,1,3.1v.922H-1.121a2.1,2.1,0,0,0,.66,1.328,2,2,0,0,0,1.395.5,2.437,2.437,0,0,0,2.039-.945L4.082-1.367A3.389,3.389,0,0,1,2.707-.246,4.511,4.511,0,0,1,.785.156ZM.527-6.789a1.411,1.411,0,0,0-1.09.455,2.357,2.357,0,0,0-.535,1.3H2.043v-.181a1.681,1.681,0,0,0-.406-1.165A1.456,1.456,0,0,0,.527-6.789Zm4.688,2.5a4.954,4.954,0,0,1,.926-3.133,3,3,0,0,1,2.5-1.187,2.631,2.631,0,0,1,2.164.953l.094-.8h2.047V-.281a3.613,3.613,0,0,1-.5,1.93A3.236,3.236,0,0,1,11.02,2.9a4.985,4.985,0,0,1-2.141.43,4.635,4.635,0,0,1-1.812-.371A3.217,3.217,0,0,1,5.73,2l1-1.375a2.645,2.645,0,0,0,2.047.945,1.936,1.936,0,0,0,1.4-.48,1.8,1.8,0,0,0,.5-1.363V-.727A2.612,2.612,0,0,1,8.621.156,2.992,2.992,0,0,1,6.156-1.035,4.953,4.953,0,0,1,5.215-4.2Zm2.258.161a3.1,3.1,0,0,0,.461,1.809A1.465,1.465,0,0,0,9.2-1.664a1.567,1.567,0,0,0,1.477-.777V-6.012a1.563,1.563,0,0,0-1.461-.777,1.474,1.474,0,0,0-1.277.667A3.5,3.5,0,0,0,7.473-4.128Z" transform="translate(1282.51 2375.092)" fill="#dc2626"/>
    <path id="Trazado_892090" data-name="Trazado 892090" d="M-.75-4.7a5.762,5.762,0,0,1-.977,3.609A3.409,3.409,0,0,1-4.586.156,3.433,3.433,0,0,1-7.43-1.07,5.594,5.594,0,0,1-8.437-4.586V-6.68A5.687,5.687,0,0,1-7.449-10.3,3.434,3.434,0,0,1-4.6-11.531a3.437,3.437,0,0,1,2.844,1.223A5.576,5.576,0,0,1-.75-6.8Zm-2.258-2.3a4.165,4.165,0,0,0-.387-2.061A1.307,1.307,0,0,0-4.6-9.711,1.284,1.284,0,0,0-5.777-9.1a3.9,3.9,0,0,0-.4,1.92v2.768A4.372,4.372,0,0,0-5.8-2.341a1.29,1.29,0,0,0,1.215.676,1.268,1.268,0,0,0,1.2-.649A4.268,4.268,0,0,0-3.008-4.3Z" transform="translate(960.066 2361.495)" fill="#dc2626"/>
    <g id="Grupo_1107078" data-name="Grupo 1107078" transform="translate(967.238 2293.902)" clip-path="url(#clip-path)">
      <path id="Trazado_890804" data-name="Trazado 890804" d="M125.71,61.719l-.3,1.152c-3.718,14.3-7.58,28.966-12.335,39.943-2.676,6.177-5.416,10.73-8.377,13.921a18.767,18.767,0,0,1-5.127,4.015,12.63,12.63,0,0,1-11.687,0,18.767,18.767,0,0,1-5.127-4.015c-2.961-3.19-5.7-7.743-8.377-13.921-4.755-10.977-8.617-25.642-12.335-39.943l-.3-1.152-.626-2.407c-3.576-13.735-7.3-27.689-11.791-38.053C44.1,9.184,38.61,3.559,32.062,3.559S20.027,9.184,14.8,21.26C10.306,31.624,6.58,45.577,3,59.313l-.626,2.407c-.182.7-.638,1.139-1.126,1.152H1.2A.9.9,0,0,1,.8,62.757a1.349,1.349,0,0,1-.507-.518,2.427,2.427,0,0,1-.21-1.773l.21-.808.09-.345c3.718-14.3,7.58-28.966,12.335-39.943,2.676-6.177,5.416-10.73,8.377-13.921a18.767,18.767,0,0,1,5.127-4.015,12.63,12.63,0,0,1,11.687,0,18.767,18.767,0,0,1,5.127,4.015c2.961,3.19,5.7,7.743,8.377,13.921,4.755,10.977,8.617,25.642,12.335,39.943l.3,1.153q.312,1.2.626,2.406c3.576,13.735,7.3,27.689,11.791,38.053,5.231,12.076,10.718,17.7,17.266,17.7s12.034-5.625,17.266-17.7c4.489-10.364,8.215-24.318,11.791-38.053q.313-1.2.626-2.406c.182-.7.639-1.14,1.127-1.153h.05a.9.9,0,0,1,.405.114,2.088,2.088,0,0,1,.717,2.292" transform="translate(0)" fill="#6366f1"/>
    </g>
    <g id="Grupo_1107078-2" data-name="Grupo 1107078" transform="translate(1091.238 2293.902)" clip-path="url(#clip-path)">
      <path id="Trazado_890804-2" data-name="Trazado 890804" d="M125.71,61.719l-.3,1.152c-3.718,14.3-7.58,28.966-12.335,39.943-2.676,6.177-5.416,10.73-8.377,13.921a18.767,18.767,0,0,1-5.127,4.015,12.63,12.63,0,0,1-11.687,0,18.767,18.767,0,0,1-5.127-4.015c-2.961-3.19-5.7-7.743-8.377-13.921-4.755-10.977-8.617-25.642-12.335-39.943l-.3-1.152-.626-2.407c-3.576-13.735-7.3-27.689-11.791-38.053C44.1,9.184,38.61,3.559,32.062,3.559S20.027,9.184,14.8,21.26C10.306,31.624,6.58,45.577,3,59.313l-.626,2.407c-.182.7-.638,1.139-1.126,1.152H1.2A.9.9,0,0,1,.8,62.757a1.349,1.349,0,0,1-.507-.518,2.427,2.427,0,0,1-.21-1.773l.21-.808.09-.345c3.718-14.3,7.58-28.966,12.335-39.943,2.676-6.177,5.416-10.73,8.377-13.921a18.767,18.767,0,0,1,5.127-4.015,12.63,12.63,0,0,1,11.687,0,18.767,18.767,0,0,1,5.127,4.015c2.961,3.19,5.7,7.743,8.377,13.921,4.755,10.977,8.617,25.642,12.335,39.943l.3,1.153q.312,1.2.626,2.406c3.576,13.735,7.3,27.689,11.791,38.053,5.231,12.076,10.718,17.7,17.266,17.7s12.034-5.625,17.266-17.7c4.489-10.364,8.215-24.318,11.791-38.053q.313-1.2.626-2.406c.182-.7.639-1.14,1.127-1.153h.05a.9.9,0,0,1,.405.114,2.088,2.088,0,0,1,.717,2.292" transform="translate(0)" fill="#6366f1"/>
    </g>
    <g id="Grupo_1107078-3" data-name="Grupo 1107078" transform="translate(1153.238 2293.902)" clip-path="url(#clip-path-3)">
      <path id="Trazado_890804-3" data-name="Trazado 890804" d="M125.71,60.465l-.3-1.152c-3.718-14.3-7.58-28.966-12.335-39.944-2.676-6.177-5.416-10.73-8.377-13.921a18.767,18.767,0,0,0-5.127-4.015,12.63,12.63,0,0,0-11.687,0,18.767,18.767,0,0,0-5.127,4.015c-2.961,3.19-5.7,7.743-8.377,13.921-4.755,10.977-8.617,25.642-12.335,39.944l-.3,1.152-.626,2.407c-3.576,13.735-7.3,27.689-11.791,38.053C44.1,113,38.61,118.626,32.062,118.626S20.027,113,14.8,100.925C10.306,90.56,6.58,76.607,3,62.872l-.626-2.407c-.182-.7-.638-1.139-1.126-1.152H1.2a.9.9,0,0,0-.406.114,1.349,1.349,0,0,0-.507.518,2.427,2.427,0,0,0-.21,1.773l.21.808.09.345c3.718,14.3,7.58,28.966,12.335,39.944,2.676,6.177,5.416,10.73,8.377,13.921a18.766,18.766,0,0,0,5.127,4.015,12.63,12.63,0,0,0,11.687,0,18.766,18.766,0,0,0,5.127-4.015c2.961-3.19,5.7-7.743,8.377-13.921,4.755-10.977,8.617-25.642,12.335-39.944l.3-1.153q.312-1.2.626-2.406c3.576-13.735,7.3-27.689,11.791-38.053,5.231-12.076,10.718-17.7,17.266-17.7s12.034,5.625,17.266,17.7c4.489,10.364,8.215,24.318,11.791,38.053q.313,1.2.626,2.406c.182.7.639,1.14,1.127,1.153h.05a.9.9,0,0,0,.405-.114,2.088,2.088,0,0,0,.717-2.292" transform="translate(0 0)" fill="#6366f1"/>
    </g>
  </g>
</svg>
