<svg xmlns="http://www.w3.org/2000/svg" width="84.949" height="84.949" viewBox="0 0 84.949 84.949">
  <g id="Electric_Plug" data-name="Electric Plug" transform="translate(-2 -2)">
    <path id="Trazado_890834" data-name="Trazado 890834" d="M54.385,74.207H64.3a4.26,4.26,0,0,0,4.247-4.247V58.435a5.663,5.663,0,0,0,4.247-5.465v-2.9a15.59,15.59,0,0,0,14.158-15.5V23.237A4.26,4.26,0,0,0,82.7,18.99H81.286V7.663a5.663,5.663,0,1,0-11.327,0V18.99H64.3V7.663a5.663,5.663,0,1,0-11.327,0V18.99H51.554a4.26,4.26,0,0,0-4.247,4.247V34.564a15.59,15.59,0,0,0,14.158,15.5v2.9a5.663,5.663,0,0,0,4.247,5.465V69.959A1.416,1.416,0,0,1,64.3,71.375H54.385a4.24,4.24,0,0,0-4.106,5.3,4.323,4.323,0,0,0,4.262,3.2H82.7a1.416,1.416,0,0,1,1.416,1.416V82.7A1.416,1.416,0,0,1,82.7,84.118H31.732a9.922,9.922,0,0,1-9.911-9.911v-26.9H34.564a4.26,4.26,0,0,0,4.247-4.247V6.247A4.26,4.26,0,0,0,34.564,2H6.247A4.26,4.26,0,0,0,2,6.247V43.059a4.26,4.26,0,0,0,4.247,4.247H18.99v26.9A12.762,12.762,0,0,0,31.732,86.949H82.7A4.26,4.26,0,0,0,86.949,82.7V81.286A4.26,4.26,0,0,0,82.7,77.038H54.541a1.557,1.557,0,0,1-1.529-1.062,1.362,1.362,0,0,1,.4-1.359A1.314,1.314,0,0,1,54.385,74.207ZM72.791,7.663a2.832,2.832,0,0,1,5.663,0V23.237H72.791Zm-16.99,0a2.832,2.832,0,1,1,5.663,0V23.237H55.8Zm5.677,39.558A12.742,12.742,0,0,1,50.138,34.564V23.237a1.416,1.416,0,0,1,1.416-1.416H52.97v2.832a1.416,1.416,0,0,0,1.416,1.416H62.88A1.416,1.416,0,0,0,64.3,24.653V21.821h5.663v2.832a1.416,1.416,0,0,0,1.416,1.416H79.87a1.416,1.416,0,0,0,1.416-1.416V21.821H82.7a1.416,1.416,0,0,1,1.416,1.416V34.564A12.742,12.742,0,0,1,72.777,47.221a5.649,5.649,0,0,0-11.3,0ZM64.3,52.97V47.306a2.832,2.832,0,1,1,5.663,0V52.97a2.832,2.832,0,0,1-5.663,0ZM6.247,44.475a1.416,1.416,0,0,1-1.416-1.416V6.247A1.416,1.416,0,0,1,6.247,4.832H34.564A1.416,1.416,0,0,1,35.98,6.247V43.059a1.416,1.416,0,0,1-1.416,1.416Z" transform="translate(0 0)" fill="#facc15"/>
    <rect id="Rectángulo_403277" data-name="Rectángulo 403277" width="3" height="3" transform="translate(66 49)" fill="#facc15"/>
    <path id="Trazado_890835" data-name="Trazado 890835" d="M27.608,18.992a1.416,1.416,0,0,0-1.2-.665H19.325V8.415a1.416,1.416,0,0,0-1.09-1.373,1.393,1.393,0,0,0-1.586.736L8.154,24.768a1.416,1.416,0,0,0,1.26,2.053h7.079v9.911a1.416,1.416,0,0,0,1.09,1.373,1.286,1.286,0,0,0,.326.042,1.416,1.416,0,0,0,1.26-.779l8.495-16.99a1.426,1.426,0,0,0-.057-1.388ZM19.325,30.729V25.405a1.416,1.416,0,0,0-1.416-1.416h-6.2l4.785-9.571v5.323a1.416,1.416,0,0,0,1.416,1.416h6.2Z" transform="translate(2.496 2.079)" fill="#facc15"/>
  </g>
</svg>
