<svg xmlns="http://www.w3.org/2000/svg" xmlns:xlink="http://www.w3.org/1999/xlink" width="610" height="32.222" viewBox="0 0 610 32.222">
  <defs>
    <clipPath id="clip-path">
      <rect id="Rectángulo_403485" data-name="Rectángulo 403485" width="190" height="32.222" fill="none"/>
    </clipPath>
  </defs>
  <g id="Grupo_1107547" data-name="Grupo 1107547" transform="translate(-180 -5097.847)">
    <g id="Grupo_1107544" data-name="Grupo 1107544" transform="translate(180 5097.846)">
      <g id="Grupo_1107543" data-name="Grupo 1107543" transform="translate(0 0)" clip-path="url(#clip-path)">
        <path id="Trazado_892063" data-name="Trazado 892063" d="M175.052,15.612H141.5l-8.387,14.526-8.387-14.526L116.345,1.086l-8.387,14.526L99.572,30.138,91.185,15.612,82.8,1.086,74.411,15.612,66.024,30.138,57.638,15.612,49.251,1.086,40.857,15.612H7.317" transform="translate(3.366 0.499)" fill="none" stroke="#000" stroke-miterlimit="10" stroke-width="1.086"/>
        <circle id="Elipse_11538" data-name="Elipse 11538" cx="5.35" cy="5.35" r="5.35" transform="translate(178.508 10.761)" fill="none" stroke="#000" stroke-miterlimit="10" stroke-width="1.086"/>
        <circle id="Elipse_11539" data-name="Elipse 11539" cx="5.35" cy="5.35" r="5.35" transform="translate(0.792 10.761)" fill="none" stroke="#000" stroke-miterlimit="10" stroke-width="1.086"/>
      </g>
    </g>
    <g id="Grupo_1107545" data-name="Grupo 1107545" transform="translate(390 5097.846)">
      <g id="Grupo_1107543-2" data-name="Grupo 1107543" transform="translate(0 0)" clip-path="url(#clip-path)">
        <path id="Trazado_892063-2" data-name="Trazado 892063" d="M175.052,15.612H141.5l-8.387,14.526-8.387-14.526L116.345,1.086l-8.387,14.526L99.572,30.138,91.185,15.612,82.8,1.086,74.411,15.612,66.024,30.138,57.638,15.612,49.251,1.086,40.857,15.612H7.317" transform="translate(3.366 0.499)" fill="none" stroke="#000" stroke-miterlimit="10" stroke-width="1.086"/>
        <circle id="Elipse_11538-2" data-name="Elipse 11538" cx="5.35" cy="5.35" r="5.35" transform="translate(178.508 10.761)" fill="none" stroke="#000" stroke-miterlimit="10" stroke-width="1.086"/>
        <circle id="Elipse_11539-2" data-name="Elipse 11539" cx="5.35" cy="5.35" r="5.35" transform="translate(0.792 10.761)" fill="none" stroke="#000" stroke-miterlimit="10" stroke-width="1.086"/>
      </g>
    </g>
    <g id="Grupo_1107546" data-name="Grupo 1107546" transform="translate(600 5097.846)">
      <g id="Grupo_1107543-3" data-name="Grupo 1107543" transform="translate(0 0)" clip-path="url(#clip-path)">
        <path id="Trazado_892063-3" data-name="Trazado 892063" d="M175.052,15.612H141.5l-8.387,14.526-8.387-14.526L116.345,1.086l-8.387,14.526L99.572,30.138,91.185,15.612,82.8,1.086,74.411,15.612,66.024,30.138,57.638,15.612,49.251,1.086,40.857,15.612H7.317" transform="translate(3.366 0.499)" fill="none" stroke="#000" stroke-miterlimit="10" stroke-width="1.086"/>
        <circle id="Elipse_11538-3" data-name="Elipse 11538" cx="5.35" cy="5.35" r="5.35" transform="translate(178.508 10.761)" fill="none" stroke="#000" stroke-miterlimit="10" stroke-width="1.086"/>
        <circle id="Elipse_11539-3" data-name="Elipse 11539" cx="5.35" cy="5.35" r="5.35" transform="translate(0.792 10.761)" fill="none" stroke="#000" stroke-miterlimit="10" stroke-width="1.086"/>
      </g>
    </g>
  </g>
</svg>
