<svg xmlns="http://www.w3.org/2000/svg" width="609.3" height="258.626" viewBox="0 0 609.3 258.626">
  <g id="Grupo_1107553" data-name="Grupo 1107553" transform="translate(-495 -1844.245)">
    <path id="Trazado_890908" data-name="Trazado 890908" d="M4020.652-9575.961v-110h442.768v101.076l-42.075,22.9H4525.6l-73.819,36.268v92.38H4020.652v-73.16" transform="translate(-3478.016 11533.207)" fill="none" stroke="#000" stroke-width="6"/>
    <path id="Trazado_890909" data-name="Trazado 890909" d="M4222.741-9685.962v93.279l-49.991,35.2h124.917l-85.924,23.774V-9433.5" transform="translate(-3478.016 11533.207)" fill="none" stroke="#000" stroke-width="6"/>
    <g id="Grupo_1107335" data-name="Grupo 1107335" transform="translate(-1613.117 3010.99) rotate(-90)">
      <path id="Trazado_890743" data-name="Trazado 890743" d="M0,0V71.253" transform="translate(1148.604 2490.427)" fill="none" stroke="#dc2626" stroke-linecap="round" stroke-width="6"/>
      <path id="Polígono_35" data-name="Polígono 35" d="M7.6,0l7.6,13.673H0Z" transform="translate(1156.471 2571.489) rotate(180)" fill="#dc2626"/>
    </g>
    <g id="Grupo_1107336" data-name="Grupo 1107336" transform="translate(-1899.117 3010.99) rotate(-90)">
      <path id="Trazado_890743-2" data-name="Trazado 890743" d="M0,0V71.253" transform="translate(1148.604 2490.427)" fill="none" stroke="#dc2626" stroke-linecap="round" stroke-width="6"/>
      <path id="Polígono_35-2" data-name="Polígono 35" d="M7.6,0l7.6,13.673H0Z" transform="translate(1156.471 2571.489) rotate(180)" fill="#dc2626"/>
    </g>
    <g id="Grupo_1107337" data-name="Grupo 1107337" transform="translate(3162.799 936.24) rotate(90)">
      <path id="Trazado_890743-3" data-name="Trazado 890743" d="M0,0V81.106" transform="translate(1148.604 2480.575)" fill="none" stroke="#dc2626" stroke-linecap="round" stroke-width="6"/>
      <path id="Polígono_35-3" data-name="Polígono 35" d="M7.6,0l7.6,13.673H0Z" transform="translate(1156.471 2571.489) rotate(180)" fill="#dc2626"/>
    </g>
    <g id="Grupo_1107338" data-name="Grupo 1107338" transform="translate(3328.683 936.24) rotate(90)">
      <path id="Trazado_890743-4" data-name="Trazado 890743" d="M0,0V50.045" transform="translate(1148.604 2511.635)" fill="none" stroke="#dc2626" stroke-linecap="round" stroke-width="6"/>
      <path id="Polígono_35-4" data-name="Polígono 35" d="M7.6,0l7.6,13.673H0Z" transform="translate(1156.471 2571.489) rotate(180)" fill="#dc2626"/>
    </g>
    <g id="Grupo_1107339" data-name="Grupo 1107339" transform="translate(-396.755 -493.969)">
      <path id="Trazado_890743-5" data-name="Trazado 890743" d="M0,0V50.045" transform="translate(1148.604 2511.635)" fill="none" stroke="#dc2626" stroke-linecap="round" stroke-width="6"/>
      <path id="Polígono_35-5" data-name="Polígono 35" d="M7.6,0l7.6,13.673H0Z" transform="translate(1156.471 2571.489) rotate(180)" fill="#dc2626"/>
    </g>
    <g id="Grupo_1107340" data-name="Grupo 1107340" transform="translate(-381.563 -631.969)">
      <path id="Trazado_890743-6" data-name="Trazado 890743" d="M0,0V62.137" transform="translate(1148.604 2499.543)" fill="none" stroke="#dc2626" stroke-linecap="round" stroke-width="6"/>
      <path id="Polígono_35-6" data-name="Polígono 35" d="M7.6,0l7.6,13.673H0Z" transform="translate(1156.471 2571.489) rotate(180)" fill="#dc2626"/>
    </g>
    <path id="Trazado_892100" data-name="Trazado 892100" d="M-5.779-6.016H-8.809V0h-2.718V-15.641h5.5a6.4,6.4,0,0,1,4.179,1.215A4.3,4.3,0,0,1-.376-10.91a4.4,4.4,0,0,1-.757,2.629A4.819,4.819,0,0,1-3.244-6.653L.269-.139V0H-2.643ZM-8.809-8.207h2.793A3.106,3.106,0,0,0-3.867-8.9a2.416,2.416,0,0,0,.773-1.9,2.572,2.572,0,0,0-.714-1.944,3.035,3.035,0,0,0-2.132-.709H-8.809ZM8.852,0h-2.6V-12.565L2.417-11.258v-2.191l6.1-2.245h.333Z" transform="translate(845.583 1952.673)" fill="#12263f"/>
    <path id="Trazado_892101" data-name="Trazado 892101" d="M-5.779-6.016H-8.809V0h-2.718V-15.641h5.5a6.4,6.4,0,0,1,4.179,1.215A4.3,4.3,0,0,1-.376-10.91a4.4,4.4,0,0,1-.757,2.629A4.819,4.819,0,0,1-3.244-6.653L.269-.139V0H-2.643ZM-8.809-8.207h2.793A3.106,3.106,0,0,0-3.867-8.9a2.416,2.416,0,0,0,.773-1.9,2.572,2.572,0,0,0-.714-1.944,3.035,3.035,0,0,0-2.132-.709H-8.809ZM12.3,0H1.783V-1.794l5.21-5.683A12.974,12.974,0,0,0,8.6-9.577a3.4,3.4,0,0,0,.478-1.692,2.571,2.571,0,0,0-.628-1.8,2.18,2.18,0,0,0-1.692-.687,2.513,2.513,0,0,0-1.966.773,3.042,3.042,0,0,0-.7,2.116H1.482a5.116,5.116,0,0,1,.65-2.573,4.475,4.475,0,0,1,1.858-1.778,5.915,5.915,0,0,1,2.788-.634,5.291,5.291,0,0,1,3.593,1.144,3.971,3.971,0,0,1,1.316,3.164,5.369,5.369,0,0,1-.661,2.455A13.957,13.957,0,0,1,8.862-6.177L5.038-2.084H12.3Z" transform="translate(1092 1948.021)" fill="#12263f"/>
    <path id="Trazado_892102" data-name="Trazado 892102" d="M-4.9,0H-7.605V-15.641H-4.9ZM8.54,0H-1.977V-1.794l5.21-5.683a12.974,12.974,0,0,0,1.606-2.1,3.4,3.4,0,0,0,.478-1.692,2.571,2.571,0,0,0-.628-1.8A2.18,2.18,0,0,0,3-13.761a2.513,2.513,0,0,0-1.966.773,3.042,3.042,0,0,0-.7,2.116h-2.61a5.116,5.116,0,0,1,.65-2.573A4.475,4.475,0,0,1,.231-15.222a5.915,5.915,0,0,1,2.788-.634,5.291,5.291,0,0,1,3.593,1.144,3.971,3.971,0,0,1,1.316,3.164,5.369,5.369,0,0,1-.661,2.455A13.957,13.957,0,0,1,5.1-6.177L1.278-2.084H8.54Z" transform="translate(1029 1885.115)" fill="#12263f"/>
    <path id="Trazado_892103" data-name="Trazado 892103" d="M-4.9,0H-7.605V-15.641H-4.9Zm9.99,0h-2.6V-12.565l-3.835,1.307v-2.191l6.1-2.245h.333Z" transform="translate(791 1897.548)" fill="#12263f"/>
    <path id="Trazado_892104" data-name="Trazado 892104" d="M-5.167,0H-7.874V-15.641h2.707ZM9.163-13.449H4.286V0H1.59V-13.449H-3.244v-2.191H9.163Z" transform="translate(590 1890.574)" fill="#12263f"/>
    <path id="Trazado_892105" data-name="Trazado 892105" d="M-6.692-3.405l3.975-12.235H.269L-5.36,0H-7.992L-13.6-15.641h2.976ZM13.331-13.449H8.454V0h-2.7V-13.449H.924v-2.191H13.331Z" transform="translate(542.636 2003.621)" fill="#12263f"/>
    <path id="Trazado_890910" data-name="Trazado 890910" d="M3973.016-9565.5h105" transform="translate(-3478.016 11533.207)" fill="none" stroke="#000" stroke-width="6"/>
    <path id="Trazado_890911" data-name="Trazado 890911" d="M3973.016-9565.5h105" transform="translate(-3478.016 11591.207)" fill="none" stroke="#000" stroke-width="6"/>
  </g>
</svg>
