<svg xmlns="http://www.w3.org/2000/svg" width="404.102" height="285.589" viewBox="0 0 404.102 285.589">
  <g id="Grupo_1107553" data-name="Grupo 1107553" transform="translate(-597.5 -5668.829)">
    <path id="Trazado_890582" data-name="Trazado 890582" d="M-7928.624-9410.249l168.675,2.077v-215.437h-62.924l-13.1,16.006-21.764-37.088-18.138,35.474-19.928-28.1-18.581,28.1-17.014-28.1-8.547,13.709h-37.35l-12.67,18.051-18.931-33.049-20.435,31-18.752-25.488-18.074,27.533-20.509-35.082-7.781,12.642h-64.606v219.827h203.219" transform="translate(8759.051 15354.612)" fill="none" stroke="#000" stroke-width="5"/>
    <path id="Trazado_890583" data-name="Trazado 890583" d="M-7900.7-9397.435v48.009" transform="translate(8704.874 15303.843)" fill="none" stroke="#000" stroke-width="5"/>
    <path id="Trazado_890585" data-name="Trazado 890585" d="M-7900.7-9397.434v32.258" transform="translate(8645.602 15225.615)" fill="none" stroke="#000" stroke-linecap="round" stroke-width="7"/>
    <path id="Trazado_890586" data-name="Trazado 890586" d="M0,0V153.747" transform="translate(662.904 5783.458) rotate(-90)" fill="none" stroke="#dc2626" stroke-linecap="round" stroke-width="6"/>
    <path id="Trazado_890584" data-name="Trazado 890584" d="M-7900.7-9397.435v33.859" transform="translate(8730.164 15317.993)" fill="none" stroke="#000" stroke-width="5"/>
    <path id="Trazado_892100" data-name="Trazado 892100" d="M7.9,0l7.9,14.225H0Z" transform="translate(826.856 5775.272) rotate(90)" fill="#dc2626"/>
    <path id="Trazado_892101" data-name="Trazado 892101" d="M13.006-10.664H7.636V0H2.818V-27.727h9.75q4.8,0,7.408,2.154a7.619,7.619,0,0,1,2.609,6.232,7.805,7.805,0,0,1-1.343,4.66A8.543,8.543,0,0,1,17.5-11.793L23.728-.247V0H18.567Zm-5.37-3.885h4.951A5.507,5.507,0,0,0,16.4-15.777a4.283,4.283,0,0,0,1.371-3.361A4.56,4.56,0,0,0,16.5-22.585a5.38,5.38,0,0,0-3.78-1.257H7.636ZM38.943,0H34.334V-22.275l-6.8,2.318v-3.885l10.816-3.98h.59Z" transform="translate(713.843 5696.937)"/>
    <path id="Trazado_892102" data-name="Trazado 892102" d="M13.006-10.664H7.636V0H2.818V-27.727h9.75q4.8,0,7.408,2.154a7.619,7.619,0,0,1,2.609,6.232,7.805,7.805,0,0,1-1.343,4.66A8.543,8.543,0,0,1,17.5-11.793L23.728-.247V0H18.567Zm-5.37-3.885h4.951A5.507,5.507,0,0,0,16.4-15.777a4.283,4.283,0,0,0,1.371-3.361A4.56,4.56,0,0,0,16.5-22.585a5.38,5.38,0,0,0-3.78-1.257H7.636ZM45.056,0H26.413V-3.18l9.236-10.074A23,23,0,0,0,38.5-16.977a6.032,6.032,0,0,0,.847-3,4.557,4.557,0,0,0-1.114-3.2,3.864,3.864,0,0,0-3-1.219,4.454,4.454,0,0,0-3.485,1.371,5.392,5.392,0,0,0-1.238,3.751H25.879a9.069,9.069,0,0,1,1.152-4.561,7.933,7.933,0,0,1,3.294-3.152,10.486,10.486,0,0,1,4.942-1.124,9.379,9.379,0,0,1,6.37,2.028,7.04,7.04,0,0,1,2.333,5.608A9.517,9.517,0,0,1,42.8-16.12a24.743,24.743,0,0,1-3.837,5.17L32.183-3.694H45.056Z" transform="translate(887.709 5696.937)"/>
  </g>
</svg>
