<svg xmlns="http://www.w3.org/2000/svg" width="611.353" height="385.287" viewBox="0 0 611.353 385.287">
  <g id="Grupo_1107558" data-name="Grupo 1107558" transform="translate(-493 -9134.1)">
    <path id="Trazado_890599" data-name="Trazado 890599" d="M-8114.439-6253.52v-111.348h193.185l14.937-11.576v26.226l14.073-26.226v26.226l13.359-26.226v26.226l15.653-26.226v26.226l12.879-14.65h246.8v99.054l27.438,14.134-40.691,4.269,40.691,13.464h-40.691l40.691,12.4h-40.691l40.691,15.721h-27.438v180.411h-166.369l-14.309-28.731v37.9l-13.054-37.9v37.9l-13.891-37.9v37.9l-14.135-37.9v37.9l-13.892-37.9v28.731h-275.233v-153.227" transform="translate(8650.196 15535.105)" fill="none" stroke="#000" stroke-width="3"/>
    <path id="Trazado_892117" data-name="Trazado 892117" d="M7.5,0A7.5,7.5,0,1,1,0,7.5,7.5,7.5,0,0,1,7.5,0Z" transform="translate(611.051 9502.28)"/>
    <path id="Trazado_892118" data-name="Trazado 892118" d="M7.5,0A7.5,7.5,0,1,1,0,7.5,7.5,7.5,0,0,1,7.5,0Z" transform="translate(666.051 9502.28)"/>
    <path id="Trazado_892119" data-name="Trazado 892119" d="M7.5,0A7.5,7.5,0,1,1,0,7.5,7.5,7.5,0,0,1,7.5,0Z" transform="translate(694.051 9502.28)"/>
    <path id="Trazado_892120" data-name="Trazado 892120" d="M7.5,0A7.5,7.5,0,1,1,0,7.5,7.5,7.5,0,0,1,7.5,0Z" transform="translate(694.051 9162.28)"/>
    <path id="Trazado_892121" data-name="Trazado 892121" d="M7.5,0A7.5,7.5,0,1,1,0,7.5,7.5,7.5,0,0,1,7.5,0Z" transform="translate(928.051 9502.28)"/>
    <path id="Trazado_892122" data-name="Trazado 892122" d="M7.5,0A7.5,7.5,0,1,1,0,7.5,7.5,7.5,0,0,1,7.5,0Z" transform="translate(928.051 9162.28)"/>
    <path id="Trazado_890602" data-name="Trazado 890602" d="M-8155.063-6252.309h81.277" transform="translate(8650.063 15535.512)" fill="none" stroke="#000" stroke-linecap="round" stroke-width="4"/>
    <path id="Trazado_890605" data-name="Trazado 890605" d="M-8155.063-6252.309h25.9" transform="translate(8677.753 15548.555)" fill="none" stroke="#000" stroke-linecap="round" stroke-width="4"/>
    <path id="Trazado_890606" data-name="Trazado 890606" d="M-8155.063-6252.309h25.9" transform="translate(8677.753 15576.646)" fill="none" stroke="#000" stroke-linecap="round" stroke-width="4"/>
    <path id="Trazado_890607" data-name="Trazado 890607" d="M-8155.063-6252.309h25.9" transform="translate(8677.753 15609.754)" fill="none" stroke="#000" stroke-linecap="round" stroke-width="4"/>
    <path id="Trazado_890608" data-name="Trazado 890608" d="M-8155.063-6252.309h15.755" transform="translate(8725.509 15620.789)" fill="none" stroke="#000" stroke-linecap="round" stroke-width="4"/>
    <path id="Trazado_890603" data-name="Trazado 890603" d="M-8155.063-6252.309h81.277" transform="translate(8650.063 15562.6)" fill="none" stroke="#000" stroke-linecap="round" stroke-width="4"/>
    <path id="Trazado_890604" data-name="Trazado 890604" d="M-8155.063-6252.309h81.277" transform="translate(8650.063 15589.689)" fill="none" stroke="#000" stroke-linecap="round" stroke-width="4"/>
    <path id="Trazado_890609" data-name="Trazado 890609" d="M-7949.009-6364.5v124.642l25.543,13.921-38.388,4.186,38.388,13.265h-38.388l38.388,14.331h-38.388l38.388,12.954h-25.543v153.262" transform="translate(8650.694 15535.145)" fill="none" stroke="#000" stroke-width="4"/>
    <path id="Trazado_890610" data-name="Trazado 890610" d="M-7949.009-6364.5v124.642l25.543,13.921-38.388,4.186,38.388,13.265h-38.388l38.388,14.331h-38.388l38.388,12.954h-25.543v153.262" transform="translate(8883.453 15535.145)" fill="none" stroke="#000" stroke-width="4"/>
    <path id="Trazado_892123" data-name="Trazado 892123" d="M7.5,0,15,13H0Z" transform="translate(671.051 9502.28) rotate(90)"/>
    <path id="Trazado_890611" data-name="Trazado 890611" d="M0,0V87.239" transform="translate(673.355 9201.069) rotate(90)" fill="none" stroke="#dc2626" stroke-linecap="round" stroke-width="4"/>
    <path id="Trazado_892146" data-name="Trazado 892146" d="M7.621,0l7.621,13.718H0Z" transform="translate(576.276 9208.963) rotate(-90)" fill="#dc2626"/>
    <path id="Trazado_890611-2" data-name="Trazado 890611" d="M0,0V56.8" transform="translate(564.348 9398.921)" fill="none" stroke="#dc2626" stroke-linecap="round" stroke-width="4"/>
    <path id="Trazado_892147" data-name="Trazado 892147" d="M7.621,0l7.621,13.718H0Z" transform="translate(572.241 9465.561) rotate(180)" fill="#dc2626"/>
    <path id="Trazado_892124" data-name="Trazado 892124" d="M7.337-6.016H4.308V0H1.59V-15.641h5.5a6.4,6.4,0,0,1,4.179,1.215A4.3,4.3,0,0,1,12.74-10.91a4.4,4.4,0,0,1-.757,2.629A4.819,4.819,0,0,1,9.872-6.653L13.385-.139V0H10.474ZM4.308-8.207H7.1A3.106,3.106,0,0,0,9.249-8.9a2.416,2.416,0,0,0,.773-1.9,2.572,2.572,0,0,0-.714-1.944,3.035,3.035,0,0,0-2.132-.709H4.308Z" transform="translate(747.294 9149.74)"/>
    <path id="Trazado_892125" data-name="Trazado 892125" d="M7.337-6.016H4.308V0H1.59V-15.641h5.5a6.4,6.4,0,0,1,4.179,1.215A4.3,4.3,0,0,1,12.74-10.91a4.4,4.4,0,0,1-.757,2.629A4.819,4.819,0,0,1,9.872-6.653L13.385-.139V0H10.474ZM4.308-8.207H7.1A3.106,3.106,0,0,0,9.249-8.9a2.416,2.416,0,0,0,.773-1.9,2.572,2.572,0,0,0-.714-1.944,3.035,3.035,0,0,0-2.132-.709H4.308Z" transform="translate(734.251 9323.259)"/>
    <path id="Trazado_892126" data-name="Trazado 892126" d="M7.337-6.016H4.308V0H1.59V-15.641h5.5a6.4,6.4,0,0,1,4.179,1.215A4.3,4.3,0,0,1,12.74-10.91a4.4,4.4,0,0,1-.757,2.629A4.819,4.819,0,0,1,9.872-6.653L13.385-.139V0H10.474ZM4.308-8.207H7.1A3.106,3.106,0,0,0,9.249-8.9a2.416,2.416,0,0,0,.773-1.9,2.572,2.572,0,0,0-.714-1.944,3.035,3.035,0,0,0-2.132-.709H4.308Z" transform="translate(879.726 9493.814)"/>
    <path id="Trazado_892127" data-name="Trazado 892127" d="M4.458,0H1.751V-15.641H4.458Z" transform="translate(901.534 9323.259)"/>
    <path id="Trazado_892128" data-name="Trazado 892128" d="M4.458,0H1.751V-15.641H4.458Z" transform="translate(742.714 9213.902)"/>
    <path id="Trazado_892129" data-name="Trazado 892129" d="M4.458,0H1.751V-15.641H4.458Z" transform="translate(831.001 9472.746)"/>
    <path id="Trazado_892130" data-name="Trazado 892130" d="M4.458,0H1.751V-15.641H4.458Z" transform="translate(660.603 9323.259)"/>
    <path id="Trazado_892131" data-name="Trazado 892131" d="M7.1-3.405l3.975-12.235h2.986L8.433,0H5.8L.193-15.641H3.169Z" transform="translate(596.342 9323.259)"/>
    <path id="Trazado_892132" data-name="Trazado 892132" d="M7.369-8.6h4.082V-6.22H7.369v4.651H4.834V-6.22H.73V-8.6h4.1v-4.351H7.369Z" transform="translate(558.601 9277.108)"/>
    <path id="Trazado_892133" data-name="Trazado 892133" d="M4.458,0H1.751V-15.641H4.458Z" transform="translate(1000.858 9323.259)"/>
    <path id="Trazado_892134" data-name="Trazado 892134" d="M7.337-6.016H4.308V0H1.59V-15.641h5.5a6.4,6.4,0,0,1,4.179,1.215A4.3,4.3,0,0,1,12.74-10.91a4.4,4.4,0,0,1-.757,2.629A4.819,4.819,0,0,1,9.872-6.653L13.385-.139V0H10.474ZM4.308-8.207H7.1A3.106,3.106,0,0,0,9.249-8.9a2.416,2.416,0,0,0,.773-1.9,2.572,2.572,0,0,0-.714-1.944,3.035,3.035,0,0,0-2.132-.709H4.308Z" transform="translate(968.014 9323.259)"/>
    <path id="Trazado_892135" data-name="Trazado 892135" d="M7.337-6.016H4.308V0H1.59V-15.641h5.5a6.4,6.4,0,0,1,4.179,1.215A4.3,4.3,0,0,1,12.74-10.91a4.4,4.4,0,0,1-.757,2.629A4.819,4.819,0,0,1,9.872-6.653L13.385-.139V0H10.474ZM4.308-8.207H7.1A3.106,3.106,0,0,0,9.249-8.9a2.416,2.416,0,0,0,.773-1.9,2.572,2.572,0,0,0-.714-1.944,3.035,3.035,0,0,0-2.132-.709H4.308Z" transform="translate(1083.932 9323.259)"/>
    <path id="Trazado_892136" data-name="Trazado 892136" d="M4.494,0H3.076V-6.854L.984-6.141v-1.2L4.313-8.561h.182Z" transform="translate(761.34 9149.773)"/>
    <path id="Trazado_892137" data-name="Trazado 892137" d="M1.02-4.23l.463-4.3H6.064V-7.3h-3.4L2.432-5.262A2.634,2.634,0,0,1,3.768-5.6a2.377,2.377,0,0,1,1.9.779,3.088,3.088,0,0,1,.677,2.1A2.842,2.842,0,0,1,5.59-.653,2.737,2.737,0,0,1,3.533.117,2.867,2.867,0,0,1,1.591-.548,2.4,2.4,0,0,1,.756-2.3H2.133a1.5,1.5,0,0,0,.445.952,1.355,1.355,0,0,0,.949.331A1.224,1.224,0,0,0,4.55-1.488a2.023,2.023,0,0,0,.366-1.277A1.788,1.788,0,0,0,4.512-4,1.414,1.414,0,0,0,3.4-4.453a1.852,1.852,0,0,0-.656.1,1.859,1.859,0,0,0-.586.4Z" transform="translate(748.297 9323.292)"/>
    <path id="Trazado_892138" data-name="Trazado 892138" d="M5.455-3.041H6.516V-1.9H5.455V0H4.031V-1.9H.346L.3-2.766l3.68-5.766H5.455Zm-3.656,0H4.031V-6.6l-.105.188Z" transform="translate(893.771 9493.848)"/>
    <path id="Trazado_892139" data-name="Trazado 892139" d="M2.285-4.916h.867a1.552,1.552,0,0,0,1.04-.34,1.212,1.212,0,0,0,.384-.967,1.321,1.321,0,0,0-.319-.946,1.285,1.285,0,0,0-.976-.337,1.36,1.36,0,0,0-.943.331,1.106,1.106,0,0,0-.369.864H.545a2.155,2.155,0,0,1,.349-1.2,2.342,2.342,0,0,1,.973-.841,3.168,3.168,0,0,1,1.4-.3,2.934,2.934,0,0,1,2.007.642A2.252,2.252,0,0,1,6-6.223a1.813,1.813,0,0,1-.366,1.081,2.3,2.3,0,0,1-.946.765,2.093,2.093,0,0,1,1.069.756,2.069,2.069,0,0,1,.366,1.23A2.291,2.291,0,0,1,5.335-.562a3.06,3.06,0,0,1-2.071.68A3.037,3.037,0,0,1,1.248-.539,2.161,2.161,0,0,1,.463-2.285H1.887a1.191,1.191,0,0,0,.378.914,1.433,1.433,0,0,0,1.017.352,1.478,1.478,0,0,0,1.043-.352,1.319,1.319,0,0,0,.381-1.02,1.332,1.332,0,0,0-.4-1.037,1.7,1.7,0,0,0-1.184-.363H2.285Z" transform="translate(907.554 9323.292)"/>
    <path id="Trazado_892140" data-name="Trazado 892140" d="M4.494,0H3.076V-6.854L.984-6.141v-1.2L4.313-8.561h.182Z" transform="translate(748.733 9213.936)"/>
    <path id="Trazado_892141" data-name="Trazado 892141" d="M5.455-3.041H6.516V-1.9H5.455V0H4.031V-1.9H.346L.3-2.766l3.68-5.766H5.455Zm-3.656,0H4.031V-6.6l-.105.188Z" transform="translate(837.021 9472.779)"/>
    <path id="Trazado_892142" data-name="Trazado 892142" d="M1.02-4.23l.463-4.3H6.064V-7.3h-3.4L2.432-5.262A2.634,2.634,0,0,1,3.768-5.6a2.377,2.377,0,0,1,1.9.779,3.088,3.088,0,0,1,.677,2.1A2.842,2.842,0,0,1,5.59-.653,2.737,2.737,0,0,1,3.533.117,2.867,2.867,0,0,1,1.591-.548,2.4,2.4,0,0,1,.756-2.3H2.133a1.5,1.5,0,0,0,.445.952,1.355,1.355,0,0,0,.949.331A1.224,1.224,0,0,0,4.55-1.488a2.023,2.023,0,0,0,.366-1.277A1.788,1.788,0,0,0,4.512-4,1.414,1.414,0,0,0,3.4-4.453a1.852,1.852,0,0,0-.656.1,1.859,1.859,0,0,0-.586.4Z" transform="translate(666.622 9323.292)"/>
    <path id="Trazado_892143" data-name="Trazado 892143" d="M6.375,0H.639V-.979l2.842-3.1a7.077,7.077,0,0,0,.876-1.146,1.856,1.856,0,0,0,.261-.923,1.4,1.4,0,0,0-.343-.984,1.189,1.189,0,0,0-.923-.375,1.37,1.37,0,0,0-1.072.422A1.659,1.659,0,0,0,1.9-5.93H.475a2.791,2.791,0,0,1,.354-1.4A2.441,2.441,0,0,1,1.843-8.3a3.226,3.226,0,0,1,1.521-.346,2.886,2.886,0,0,1,1.96.624A2.166,2.166,0,0,1,6.041-6.3a2.928,2.928,0,0,1-.36,1.339A7.613,7.613,0,0,1,4.5-3.369L2.414-1.137H6.375Z" transform="translate(1006.877 9323.292)"/>
    <path id="Trazado_892144" data-name="Trazado 892144" d="M2.285-4.916h.867a1.552,1.552,0,0,0,1.04-.34,1.212,1.212,0,0,0,.384-.967,1.321,1.321,0,0,0-.319-.946,1.285,1.285,0,0,0-.976-.337,1.36,1.36,0,0,0-.943.331,1.106,1.106,0,0,0-.369.864H.545a2.155,2.155,0,0,1,.349-1.2,2.342,2.342,0,0,1,.973-.841,3.168,3.168,0,0,1,1.4-.3,2.934,2.934,0,0,1,2.007.642A2.252,2.252,0,0,1,6-6.223a1.813,1.813,0,0,1-.366,1.081,2.3,2.3,0,0,1-.946.765,2.093,2.093,0,0,1,1.069.756,2.069,2.069,0,0,1,.366,1.23A2.291,2.291,0,0,1,5.335-.562a3.06,3.06,0,0,1-2.071.68A3.037,3.037,0,0,1,1.248-.539,2.161,2.161,0,0,1,.463-2.285H1.887a1.191,1.191,0,0,0,.378.914,1.433,1.433,0,0,0,1.017.352,1.478,1.478,0,0,0,1.043-.352,1.319,1.319,0,0,0,.381-1.02,1.332,1.332,0,0,0-.4-1.037,1.7,1.7,0,0,0-1.184-.363H2.285Z" transform="translate(982.059 9323.292)"/>
    <path id="Trazado_892145" data-name="Trazado 892145" d="M6.375,0H.639V-.979l2.842-3.1a7.077,7.077,0,0,0,.876-1.146,1.856,1.856,0,0,0,.261-.923,1.4,1.4,0,0,0-.343-.984,1.189,1.189,0,0,0-.923-.375,1.37,1.37,0,0,0-1.072.422A1.659,1.659,0,0,0,1.9-5.93H.475a2.791,2.791,0,0,1,.354-1.4A2.441,2.441,0,0,1,1.843-8.3a3.226,3.226,0,0,1,1.521-.346,2.886,2.886,0,0,1,1.96.624A2.166,2.166,0,0,1,6.041-6.3a2.928,2.928,0,0,1-.36,1.339A7.613,7.613,0,0,1,4.5-3.369L2.414-1.137H6.375Z" transform="translate(1097.977 9323.292)"/>
  </g>
</svg>
