<svg xmlns="http://www.w3.org/2000/svg" width="399.472" height="177.022" viewBox="0 0 399.472 177.022">
  <g id="Grupo_1107564" data-name="Grupo 1107564" transform="translate(-600.051 -2368.759)">
    <path id="Trazado_890614" data-name="Trazado 890614" d="M-8042.435-4258.519V-4401.7h351.572v143.179" transform="translate(8651.065 6804.3)" fill="none" stroke="#000" stroke-width="3"/>
    <g id="Trazado_892103" data-name="Trazado 892103" transform="translate(600.051 2450)" fill="#14b8a6">
      <path d="M 20 71 L 1 71 L 1 1 L 20 1 L 20 71 Z" stroke="none"/>
      <path d="M 2 2 L 2 70 L 19 70 L 19 2 L 2 2 M 0 0 L 21 0 L 21 72 L 0 72 L 0 0 Z" stroke="none" fill="#000"/>
    </g>
    <g id="Trazado_892104" data-name="Trazado 892104" transform="translate(951.051 2450)" fill="#14b8a6">
      <path d="M 20 71 L 1 71 L 1 1 L 20 1 L 20 71 Z" stroke="none"/>
      <path d="M 2 2 L 2 70 L 19 70 L 19 2 L 2 2 M 0 0 L 21 0 L 21 72 L 0 72 L 0 0 Z" stroke="none" fill="#000"/>
    </g>
    <g id="Trazado_892105" data-name="Trazado 892105" transform="translate(784.051 2443)" fill="#14b8a6">
      <path d="M 21 71 L 1 71 L 1 1 L 21 1 L 21 71 Z" stroke="none"/>
      <path d="M 2 2 L 2 70 L 20 70 L 20 2 L 2 2 M 0 0 L 22 0 L 22 72 L 0 72 L 0 0 Z" stroke="none" fill="#000"/>
    </g>
    <g id="Trazado_892106" data-name="Trazado 892106" transform="translate(677.592 2414.895) rotate(-90)" fill="#14b8a6">
      <path d="M 20.16139984130859 71.55335998535156 L 0.9999989867210388 71.55335998535156 L 0.9999989867210388 1 L 20.16139984130859 1 L 20.16139984130859 71.55335998535156 Z" stroke="none"/>
      <path d="M 1.999998092651367 2 L 1.999998092651367 70.55335998535156 L 19.16139984130859 70.55335998535156 L 19.16139984130859 2 L 1.999998092651367 2 M -1.9073486328125e-06 0 L 21.16139984130859 0 L 21.16139984130859 72.55335998535156 L -1.9073486328125e-06 72.55335998535156 L -1.9073486328125e-06 0 Z" stroke="none" fill="#000"/>
    </g>
    <g id="Trazado_892107" data-name="Trazado 892107" transform="translate(845.875 2414.895) rotate(-90)" fill="#14b8a6">
      <path d="M 20.16139984130859 71.55335998535156 L 0.9999989867210388 71.55335998535156 L 0.9999989867210388 1 L 20.16139984130859 1 L 20.16139984130859 71.55335998535156 Z" stroke="none"/>
      <path d="M 1.999998092651367 2 L 1.999998092651367 70.55335998535156 L 19.16139984130859 70.55335998535156 L 19.16139984130859 2 L 1.999998092651367 2 M -1.9073486328125e-06 0 L 21.16139984130859 0 L 21.16139984130859 72.55335998535156 L -1.9073486328125e-06 72.55335998535156 L -1.9073486328125e-06 0 Z" stroke="none" fill="#000"/>
    </g>
    <path id="Trazado_892108" data-name="Trazado 892108" d="M11.452,0H9.229l-5.7-9.079V0H1.3V-12.8H3.524L9.246-3.683V-12.8h2.206Zm8.183-.932A3.312,3.312,0,0,1,16.963.176a2.952,2.952,0,0,1-2.342-.905,3.851,3.851,0,0,1-.8-2.619V-9.51h2.136v6.135q0,1.811,1.5,1.811a2.111,2.111,0,0,0,2.1-1.116V-9.51H21.7V0H19.688Zm3.841-3.894A5.654,5.654,0,0,1,24.5-8.354a3.267,3.267,0,0,1,2.733-1.332,3.1,3.1,0,0,1,2.443,1.055V-13.5h2.136V0H29.874l-.105-.984A3.148,3.148,0,0,1,27.211.176a3.248,3.248,0,0,1-2.7-1.345A5.861,5.861,0,0,1,23.476-4.825Zm2.136.185a3.958,3.958,0,0,0,.558,2.263,1.811,1.811,0,0,0,1.586.813,2.017,2.017,0,0,0,1.916-1.169V-6.794a1.986,1.986,0,0,0-1.9-1.143,1.824,1.824,0,0,0-1.6.822A4.408,4.408,0,0,0,25.611-4.641Zm8.024-.2a5.607,5.607,0,0,1,.554-2.518,4.044,4.044,0,0,1,1.556-1.723,4.383,4.383,0,0,1,2.3-.6,4.154,4.154,0,0,1,3.125,1.239,4.874,4.874,0,0,1,1.3,3.287l.009.5a5.658,5.658,0,0,1-.541,2.514A4,4,0,0,1,40.39-.431a4.415,4.415,0,0,1-2.325.606,4.125,4.125,0,0,1-3.221-1.34,5.133,5.133,0,0,1-1.208-3.573Zm2.136.185a3.832,3.832,0,0,0,.606,2.3,1.971,1.971,0,0,0,1.688.831,1.95,1.95,0,0,0,1.683-.844,4.232,4.232,0,0,0,.6-2.47,3.782,3.782,0,0,0-.62-2.285,1.979,1.979,0,0,0-1.683-.844,1.96,1.96,0,0,0-1.661.831A4.152,4.152,0,0,0,35.771-4.658Z" transform="translate(794.797 2382.259)"/>
    <path id="Trazado_892109" data-name="Trazado 892109" d="M6.741,0H4.614V-10.281L1.477-9.211V-11l4.992-1.837h.272Zm8.464-5.528L13.755-3.99V0H11.531V-12.8h2.224v6l1.23-1.521L18.729-12.8h2.689L16.664-7.128,21.691,0H19.055Z" transform="translate(871.067 2382.259)"/>
    <path id="Trazado_892110" data-name="Trazado 892110" d="M6.741,0H4.614V-10.281L1.477-9.211V-11l4.992-1.837h.272Zm8.464-5.528L13.755-3.99V0H11.531V-12.8h2.224v6l1.23-1.521L18.729-12.8h2.689L16.664-7.128,21.691,0H19.055Z" transform="translate(815.959 2473.697)"/>
    <path id="Trazado_892111" data-name="Trazado 892111" d="M6.741,0H4.614V-10.281L1.477-9.211V-11l4.992-1.837h.272Zm8.464-5.528L13.755-3.99V0H11.531V-12.8h2.224v6l1.23-1.521L18.729-12.8h2.689L16.664-7.128,21.691,0H19.055Z" transform="translate(977.831 2485.789)"/>
    <path id="Trazado_892112" data-name="Trazado 892112" d="M6.741,0H4.614V-10.281L1.477-9.211V-11l4.992-1.837h.272Zm8.464-5.528L13.755-3.99V0H11.531V-12.8h2.224v6l1.23-1.521L18.729-12.8h2.689L16.664-7.128,21.691,0H19.055Z" transform="translate(627.156 2485.789)"/>
    <path id="Trazado_892113" data-name="Trazado 892113" d="M3.647,0H1.433V-12.8H3.647Z" transform="translate(668.471 2469.008)" fill="#6366f1"/>
    <path id="Trazado_892114" data-name="Trazado 892114" d="M3.647,0H1.433V-12.8H3.647Z" transform="translate(741.025 2469.008)" fill="#6366f1"/>
    <path id="Trazado_892115" data-name="Trazado 892115" d="M3.647,0H1.433V-12.8H3.647Z" transform="translate(914.347 2453.893)" fill="#6366f1"/>
    <path id="Trazado_892116" data-name="Trazado 892116" d="M5.243,0H3.589V-8l-2.44.832V-8.559L5.031-9.987h.212Z" transform="translate(673.561 2476.092)" fill="#6366f1"/>
    <path id="Trazado_892117" data-name="Trazado 892117" d="M7.438,0H.745V-1.142L4.061-4.758A8.256,8.256,0,0,0,5.083-6.094a2.165,2.165,0,0,0,.3-1.077,1.636,1.636,0,0,0-.4-1.148A1.387,1.387,0,0,0,3.91-8.757a1.6,1.6,0,0,0-1.251.492,1.936,1.936,0,0,0-.444,1.347H.554A3.256,3.256,0,0,1,.967-8.555,2.848,2.848,0,0,1,2.15-9.687a3.764,3.764,0,0,1,1.774-.4,3.367,3.367,0,0,1,2.287.728,2.527,2.527,0,0,1,.837,2.013,3.416,3.416,0,0,1-.42,1.562A8.882,8.882,0,0,1,5.25-3.931l-2.434,2.6H7.438Z" transform="translate(746.114 2476.092)" fill="#6366f1"/>
    <path id="Trazado_892118" data-name="Trazado 892118" d="M2.666-5.735H3.678a1.811,1.811,0,0,0,1.213-.4A1.414,1.414,0,0,0,5.339-7.26a1.541,1.541,0,0,0-.373-1.1,1.5,1.5,0,0,0-1.138-.393,1.586,1.586,0,0,0-1.1.386A1.291,1.291,0,0,0,2.3-7.362H.636a2.514,2.514,0,0,1,.407-1.395,2.733,2.733,0,0,1,1.135-.981,3.7,3.7,0,0,1,1.63-.352,3.423,3.423,0,0,1,2.341.749A2.627,2.627,0,0,1,7-7.26,2.115,2.115,0,0,1,6.573-6a2.679,2.679,0,0,1-1.1.892,2.442,2.442,0,0,1,1.248.882,2.414,2.414,0,0,1,.427,1.436A2.673,2.673,0,0,1,6.224-.656,3.57,3.57,0,0,1,3.808.137,3.543,3.543,0,0,1,1.456-.629,2.521,2.521,0,0,1,.54-2.666H2.2A1.39,1.39,0,0,0,2.642-1.6a1.672,1.672,0,0,0,1.186.41A1.725,1.725,0,0,0,5.045-1.6a1.539,1.539,0,0,0,.444-1.189A1.554,1.554,0,0,0,5.024-4a1.987,1.987,0,0,0-1.381-.424H2.666Z" transform="translate(919.436 2460.977)" fill="#6366f1"/>
    <path id="Trazado_892119" data-name="Trazado 892119" d="M6.741,0H4.614V-10.281L1.477-9.211V-11l4.992-1.837h.272Zm8.464-5.528L13.755-3.99V0H11.531V-12.8h2.224v6l1.23-1.521L18.729-12.8h2.689L16.664-7.128,21.691,0H19.055Z" transform="translate(702.784 2382.259)"/>
    <path id="Trazado_890615" data-name="Trazado 890615" d="M-7992.072-4287.375v-86.661h276.353v78.485" transform="translate(8651.452 6804.512)" fill="none" stroke="#6366f1" stroke-width="2"/>
    <path id="Trazado_890619" data-name="Trazado 890619" d="M0,0,7.25,7.25,14.5,0" transform="translate(707.417 2437.727) rotate(-90)" fill="none" stroke="#6366f1" stroke-linecap="round" stroke-width="2"/>
    <path id="Trazado_890618" data-name="Trazado 890618" d="M-7890.805-4374.036v78.292" transform="translate(8652.231 6804.512)" fill="none" stroke="#6366f1" stroke-width="2"/>
    <path id="Trazado_890620" data-name="Trazado 890620" d="M-7819.559-4418.134h-28.094l-5.936,5.936" transform="translate(8652.517 6804.173)" fill="none" stroke="#000" stroke-width="2"/>
    <path id="Trazado_892120" data-name="Trazado 892120" d="M5.5,0A5.5,5.5,0,1,1,0,5.5,5.5,5.5,0,0,1,5.5,0Z" transform="translate(790.051 2398)"/>
    <path id="Trazado_892121" data-name="Trazado 892121" d="M3.527,0,7.054,6.046H0Z" transform="translate(798.24 2397.197) rotate(-135)"/>
  </g>
</svg>
