<svg xmlns="http://www.w3.org/2000/svg" width="398.164" height="319" viewBox="0 0 398.164 319">
  <g id="Grupo_1107561" data-name="Grupo 1107561" transform="translate(-601.938 -3026.109)">
    <path id="Trazado_890623" data-name="Trazado 890623" d="M-7981.9-3605.623v-74.743h261.618v198.209H-7981.9v-101.731" transform="translate(8654.102 6761.109)" fill="none" stroke="#000" stroke-width="3"/>
    <g id="Trazado_892122" data-name="Trazado 892122" transform="translate(923.102 3150.109)" fill="#fff">
      <path d="M 19.5 45.5 L 1.5 45.5 L 1.5 1.5 L 19.5 1.5 L 19.5 45.5 Z" stroke="none"/>
      <path d="M 3 3 L 3 44 L 18 44 L 18 3 L 3 3 M 0 0 L 21 0 L 21 47 L 0 47 L 0 0 Z" stroke="none" fill="#000"/>
    </g>
    <g id="Trazado_892123" data-name="Trazado 892123" transform="translate(787.102 3091.109) rotate(-90)" fill="#fff">
      <path d="M 19.5 45.5 L 1.5 45.5 L 1.5 1.5 L 19.5 1.5 L 19.5 45.5 Z" stroke="none"/>
      <path d="M 3 3 L 3 44 L 18 44 L 18 3 L 3 3 M 0 0 L 21 0 L 21 47 L 0 47 L 0 0 Z" stroke="none" fill="#000"/>
    </g>
    <g id="Trazado_892124" data-name="Trazado 892124" transform="translate(787.102 3289.109) rotate(-90)" fill="#fff">
      <path d="M 19.5 45.5 L 1.5 45.5 L 1.5 1.5 L 19.5 1.5 L 19.5 45.5 Z" stroke="none"/>
      <path d="M 3 3 L 3 44 L 18 44 L 18 3 L 3 3 M 0 0 L 21 0 L 21 47 L 0 47 L 0 0 Z" stroke="none" fill="#000"/>
    </g>
    <g id="Trazado_892125" data-name="Trazado 892125" transform="translate(796.102 3026.109)" fill="#fff">
      <path d="M 40 40 L 1 40 L 1 1 L 40 1 L 40 40 Z" stroke="none"/>
      <path d="M 2 2 L 2 39 L 39 39 L 39 2 L 2 2 M 0 0 L 41 0 L 41 41 L 0 41 L 0 0 Z" stroke="none" fill="#6366f1"/>
    </g>
    <g id="Trazado_892126" data-name="Trazado 892126" transform="translate(959.102 3158.109)" fill="#fff">
      <path d="M 40 40 L 1 40 L 1 1 L 40 1 L 40 40 Z" stroke="none"/>
      <path d="M 2 2 L 2 39 L 39 39 L 39 2 L 2 2 M 0 0 L 41 0 L 41 41 L 0 41 L 0 0 Z" stroke="none" fill="#6366f1"/>
    </g>
    <g id="Trazado_892127" data-name="Trazado 892127" transform="translate(790.102 3304.109)" fill="#fff">
      <path d="M 40 40 L 1 40 L 1 1 L 40 1 L 40 40 Z" stroke="none"/>
      <path d="M 2 2 L 2 39 L 39 39 L 39 2 L 2 2 M 0 0 L 41 0 L 41 41 L 0 41 L 0 0 Z" stroke="none" fill="#6366f1"/>
    </g>
    <path id="Trazado_892128" data-name="Trazado 892128" d="M7.67-6.289H4.5V0H1.662V-16.352h5.75a6.689,6.689,0,0,1,4.369,1.27,4.493,4.493,0,0,1,1.539,3.676,4.6,4.6,0,0,1-.792,2.748,5.038,5.038,0,0,1-2.207,1.7L13.993-.146V0H10.95ZM4.5-8.58h2.92A3.247,3.247,0,0,0,9.669-9.3a2.526,2.526,0,0,0,.809-1.982,2.689,2.689,0,0,0-.747-2.033A3.173,3.173,0,0,0,7.5-14.061h-3ZM22.966,0H20.249V-13.136L16.239-11.77v-2.291l6.379-2.347h.348Z" transform="translate(797.102 3122.368)"/>
    <path id="Trazado_892129" data-name="Trazado 892129" d="M8.614,0H5.9V-13.136L1.887-11.77v-2.291l6.379-2.347h.348Zm16.34-6.884a8.918,8.918,0,0,1-1.32,5.318A4.661,4.661,0,0,1,19.62.225a4.722,4.722,0,0,1-3.992-1.746,8.539,8.539,0,0,1-1.376-5.172v-2.83a8.783,8.783,0,0,1,1.32-5.29A4.7,4.7,0,0,1,19.6-16.576a4.73,4.73,0,0,1,4,1.718,8.515,8.515,0,0,1,1.353,5.144ZM22.225-9.939a6.919,6.919,0,0,0-.629-3.375,2.146,2.146,0,0,0-2-1.073,2.145,2.145,0,0,0-1.965,1.016,6.394,6.394,0,0,0-.663,3.173v3.706a7.1,7.1,0,0,0,.64,3.414,2.15,2.15,0,0,0,2.01,1.123,2.112,2.112,0,0,0,1.943-1.039,6.678,6.678,0,0,0,.663-3.251ZM33.568-3.56l4.155-12.792h3.122L34.96,0H32.209L26.347-16.352h3.111Z" transform="translate(600.051 3175.368)"/>
    <path id="Trazado_892130" data-name="Trazado 892130" d="M8.392-4.024l4.7-14.46h3.529L9.966,0H6.855L.229-18.484H3.745Z" transform="translate(803.102 3053.368)" fill="#6366f1"/>
    <path id="Trazado_892131" data-name="Trazado 892131" d="M6.741,0H4.614V-10.281L1.477-9.211V-11l4.992-1.837h.272Z" transform="translate(820.102 3059.368)" fill="#6366f1"/>
    <path id="Trazado_892132" data-name="Trazado 892132" d="M8.392-4.024l4.7-14.46h3.529L9.966,0H6.855L.229-18.484H3.745Z" transform="translate(966.102 3185.368)" fill="#6366f1"/>
    <path id="Trazado_892133" data-name="Trazado 892133" d="M9.563,0H.958V-1.468L5.221-6.117A10.615,10.615,0,0,0,6.535-7.835,2.784,2.784,0,0,0,6.926-9.22,2.1,2.1,0,0,0,6.412-10.7a1.783,1.783,0,0,0-1.384-.562,2.056,2.056,0,0,0-1.608.633,2.489,2.489,0,0,0-.571,1.731H.712A4.186,4.186,0,0,1,1.244-11a3.662,3.662,0,0,1,1.521-1.455,4.84,4.84,0,0,1,2.281-.519,4.329,4.329,0,0,1,2.94.936A3.249,3.249,0,0,1,9.062-9.448,4.392,4.392,0,0,1,8.521-7.44,11.42,11.42,0,0,1,6.75-5.054L3.621-1.705H9.563Z" transform="translate(983.102 3191.368)" fill="#6366f1"/>
    <path id="Trazado_892134" data-name="Trazado 892134" d="M8.392-4.024l4.7-14.46h3.529L9.966,0H6.855L.229-18.484H3.745Z" transform="translate(797.102 3331.368)" fill="#6366f1"/>
    <path id="Trazado_892135" data-name="Trazado 892135" d="M3.428-7.374h1.3a2.328,2.328,0,0,0,1.56-.51,1.819,1.819,0,0,0,.576-1.45,1.982,1.982,0,0,0-.479-1.419,1.928,1.928,0,0,0-1.463-.505,2.039,2.039,0,0,0-1.415.5,1.659,1.659,0,0,0-.554,1.3H.817a3.233,3.233,0,0,1,.523-1.793A3.513,3.513,0,0,1,2.8-12.52a4.753,4.753,0,0,1,2.1-.453,4.4,4.4,0,0,1,3.01.962A3.377,3.377,0,0,1,9-9.334a2.719,2.719,0,0,1-.549,1.622A3.445,3.445,0,0,1,7.031-6.565a3.14,3.14,0,0,1,1.6,1.134,3.1,3.1,0,0,1,.549,1.846A3.437,3.437,0,0,1,8-.844,4.59,4.59,0,0,1,4.9.176,4.555,4.555,0,0,1,1.872-.809,3.242,3.242,0,0,1,.694-3.428H2.83A1.787,1.787,0,0,0,3.4-2.057a2.15,2.15,0,0,0,1.525.527,2.217,2.217,0,0,0,1.564-.527,1.978,1.978,0,0,0,.571-1.529,2,2,0,0,0-.6-1.556,2.555,2.555,0,0,0-1.775-.545H3.428Z" transform="translate(814.102 3337.368)" fill="#6366f1"/>
    <path id="Trazado_892136" data-name="Trazado 892136" d="M7.67-6.289H4.5V0H1.662V-16.352h5.75a6.689,6.689,0,0,1,4.369,1.27,4.493,4.493,0,0,1,1.539,3.676,4.6,4.6,0,0,1-.792,2.748,5.038,5.038,0,0,1-2.207,1.7L13.993-.146V0H10.95ZM4.5-8.58h2.92A3.247,3.247,0,0,0,9.669-9.3a2.526,2.526,0,0,0,.809-1.982,2.689,2.689,0,0,0-.747-2.033A3.173,3.173,0,0,0,7.5-14.061h-3Zm14.229-.842h1.662a2.974,2.974,0,0,0,1.993-.651,2.324,2.324,0,0,0,.736-1.853,2.532,2.532,0,0,0-.612-1.814,2.463,2.463,0,0,0-1.87-.646,2.606,2.606,0,0,0-1.808.635,2.12,2.12,0,0,0-.708,1.656H15.4a4.131,4.131,0,0,1,.668-2.291A4.489,4.489,0,0,1,17.929-16a6.073,6.073,0,0,1,2.678-.578,5.624,5.624,0,0,1,3.846,1.23,4.316,4.316,0,0,1,1.4,3.42,3.475,3.475,0,0,1-.7,2.072,4.4,4.4,0,0,1-1.814,1.466,4.012,4.012,0,0,1,2.05,1.449,3.967,3.967,0,0,1,.7,2.358,4.391,4.391,0,0,1-1.51,3.5,5.864,5.864,0,0,1-3.97,1.3,5.82,5.82,0,0,1-3.863-1.258,4.142,4.142,0,0,1-1.5-3.347h2.729a2.283,2.283,0,0,0,.724,1.752,2.747,2.747,0,0,0,1.948.674,2.833,2.833,0,0,0,2-.674,2.528,2.528,0,0,0,.73-1.954,2.554,2.554,0,0,0-.764-1.988,3.265,3.265,0,0,0-2.269-.7H18.732Z" transform="translate(797.102 3253.368)"/>
    <path id="Trazado_892137" data-name="Trazado 892137" d="M7.7-9h4.268V-6.5H7.7V-1.64H5.054V-6.5H.764V-9h4.29v-4.548H7.7Z" transform="translate(683.102 3143.348)"/>
    <path id="Trazado_892138" data-name="Trazado 892138" d="M7.67-6.289H4.5V0H1.662V-16.352h5.75a6.689,6.689,0,0,1,4.369,1.27,4.493,4.493,0,0,1,1.539,3.676,4.6,4.6,0,0,1-.792,2.748,5.038,5.038,0,0,1-2.207,1.7L13.993-.146V0H10.95ZM4.5-8.58h2.92A3.247,3.247,0,0,0,9.669-9.3a2.526,2.526,0,0,0,.809-1.982,2.689,2.689,0,0,0-.747-2.033A3.173,3.173,0,0,0,7.5-14.061h-3ZM26.571,0H15.577V-1.875l5.447-5.941a13.564,13.564,0,0,0,1.679-2.2,3.557,3.557,0,0,0,.5-1.769,2.687,2.687,0,0,0-.657-1.887,2.279,2.279,0,0,0-1.769-.719,2.627,2.627,0,0,0-2.055.809,3.18,3.18,0,0,0-.73,2.212H15.262a5.348,5.348,0,0,1,.679-2.69,4.679,4.679,0,0,1,1.943-1.859,6.184,6.184,0,0,1,2.914-.663,5.531,5.531,0,0,1,3.757,1.2,4.152,4.152,0,0,1,1.376,3.307,5.613,5.613,0,0,1-.691,2.566,14.592,14.592,0,0,1-2.263,3.049l-4,4.279h7.592Z" transform="translate(909.051 3193.348) rotate(-90)"/>
    <path id="Trazado_890624" data-name="Trazado 890624" d="M-8001.583-3604.626h37.3" transform="translate(8654.102 6761.109)" fill="none" stroke="#000" stroke-linecap="round" stroke-width="3"/>
    <path id="Trazado_890627" data-name="Trazado 890627" d="M-8001.583-3604.626h37.3" transform="translate(8654.102 6774.244)" fill="none" stroke="#000" stroke-linecap="round" stroke-width="3"/>
    <path id="Trazado_890625" data-name="Trazado 890625" d="M-8001.583-3604.626h23.862" transform="translate(8660.822 6767.109)" fill="none" stroke="#000" stroke-linecap="round" stroke-width="4"/>
    <path id="Trazado_890626" data-name="Trazado 890626" d="M-8001.583-3604.626h23.862" transform="translate(8660.822 6782.109)" fill="none" stroke="#000" stroke-linecap="round" stroke-width="4"/>
  </g>
</svg>
