<svg xmlns="http://www.w3.org/2000/svg" width="397.609" height="290.125" viewBox="0 0 397.609 290.125">
  <g id="Grupo_1107562" data-name="Grupo 1107562" transform="translate(-601.363 -3684.258)">
    <path id="Trazado_890631" data-name="Trazado 890631" d="M-8000.952-2661.82v-178.851h296.717v178.851" transform="translate(8654.102 6572.914)" fill="none" stroke="#000" stroke-width="3"/>
    <path id="Trazado_890636" data-name="Trazado 890636" d="M-8000.952-2840.671v25.031h296.717v-25.031" transform="translate(8654.102 6766.555)" fill="none" stroke="#000" stroke-width="3"/>
    <path id="Trazado_890632" data-name="Trazado 890632" d="M-7898-4299.152l4.053,4.053,4.053-4.053" transform="translate(-3407.699 11626.189) rotate(90)" fill="none" stroke="#000" stroke-linecap="round" stroke-width="2"/>
    <path id="Trazado_890633" data-name="Trazado 890633" d="M0,4.053,4.053,0,8.106,4.053" transform="translate(715.452 3728.189) rotate(90)" fill="none" stroke="#000" stroke-linecap="round" stroke-width="2"/>
    <path id="Trazado_890634" data-name="Trazado 890634" d="M0,4.053,4.053,0,8.106,4.053" transform="translate(805.479 3784.27) rotate(180)" fill="none" stroke="#000" stroke-linecap="round" stroke-width="2"/>
    <path id="Trazado_892139" data-name="Trazado 892139" d="M4,0A4,4,0,1,1,0,4,4,4,0,0,1,4,0Z" transform="translate(797.102 3727.914)"/>
    <path id="Trazado_892140" data-name="Trazado 892140" d="M4,0A4,4,0,1,1,0,4,4,4,0,0,1,4,0Z" transform="translate(797.102 3946.914)"/>
    <path id="Trazado_892141" data-name="Trazado 892141" d="M4,0A4,4,0,1,1,0,4,4,4,0,0,1,4,0Z" transform="translate(797.102 3946.914)"/>
    <path id="Trazado_892142" data-name="Trazado 892142" d="M4,0A4,4,0,1,1,0,4,4,4,0,0,1,4,0Z" transform="translate(649.102 3946.914)"/>
    <path id="Trazado_890635" data-name="Trazado 890635" d="M-7853-2840.671V-2622" transform="translate(8654.102 6572.914)" fill="none" stroke="#000" stroke-width="3"/>
    <path id="Trazado_890637" data-name="Trazado 890637" d="M-8012.731-2661.82h23.689" transform="translate(8654.102 6572.914)" fill="none" stroke="#000" stroke-width="3"/>
    <path id="Trazado_890648" data-name="Trazado 890648" d="M-8012.731-2661.82h23.689" transform="translate(8950.753 6572.914)" fill="none" stroke="#000" stroke-width="3"/>
    <path id="Trazado_890638" data-name="Trazado 890638" d="M-8012.731-2661.82h23.689" transform="translate(8654.102 6582.914)" fill="none" stroke="#000" stroke-width="3"/>
    <path id="Trazado_890646" data-name="Trazado 890646" d="M-8012.731-2661.82h23.689" transform="translate(8950.753 6582.914)" fill="none" stroke="#000" stroke-width="3"/>
    <path id="Trazado_890639" data-name="Trazado 890639" d="M-8012.731-2661.82h15.294" transform="translate(8658.299 6578.125)" fill="none" stroke="#000" stroke-width="3"/>
    <path id="Trazado_890647" data-name="Trazado 890647" d="M-8012.731-2661.82h15.294" transform="translate(8954.95 6578.125)" fill="none" stroke="#000" stroke-width="3"/>
    <path id="Trazado_890640" data-name="Trazado 890640" d="M-8012.731-2661.82h15.294" transform="translate(8658.299 6587.703)" fill="none" stroke="#000" stroke-width="3"/>
    <path id="Trazado_890645" data-name="Trazado 890645" d="M-8012.731-2661.82h15.294" transform="translate(8954.95 6587.703)" fill="none" stroke="#000" stroke-width="3"/>
    <path id="Trazado_890641" data-name="Trazado 890641" d="M-8012.731-2661.82h12.057" transform="translate(8659.918 6630.703)" fill="none" stroke="#000" stroke-width="3"/>
    <path id="Trazado_890643" data-name="Trazado 890643" d="M-8012.731-2661.82h19.557" transform="translate(8656.168 6626.703)" fill="none" stroke="#000" stroke-width="3"/>
    <path id="Trazado_890644" data-name="Trazado 890644" d="M-8012.731-2661.82h15.557" transform="translate(3315.036 -4047.849) rotate(-90)" fill="none" stroke="#000" stroke-width="3"/>
    <path id="Trazado_890642" data-name="Trazado 890642" d="M-8012.731-2661.82h5.375" transform="translate(8663.259 6634.703)" fill="none" stroke="#000" stroke-width="3"/>
    <g id="Trazado_892143" data-name="Trazado 892143" transform="translate(646.102 3802.914)" fill="#fff">
      <path d="M 12.5 31.5 L 1.5 31.5 L 1.5 1.5 L 12.5 1.5 L 12.5 31.5 Z" stroke="none"/>
      <path d="M 3 3 L 3 30 L 11 30 L 11 3 L 3 3 M 0 0 L 14 0 L 14 33 L 0 33 L 0 0 Z" stroke="none" fill="#000"/>
    </g>
    <g id="Trazado_892144" data-name="Trazado 892144" transform="translate(943.102 3814.914)" fill="#fff">
      <path d="M 12.5 31.5 L 1.5 31.5 L 1.5 1.5 L 12.5 1.5 L 12.5 31.5 Z" stroke="none"/>
      <path d="M 3 3 L 3 30 L 11 30 L 11 3 L 3 3 M 0 0 L 14 0 L 14 33 L 0 33 L 0 0 Z" stroke="none" fill="#000"/>
    </g>
    <g id="Trazado_892145" data-name="Trazado 892145" transform="translate(794.102 3871.914)" fill="#fff">
      <path d="M 12.5 31.5 L 1.5 31.5 L 1.5 1.5 L 12.5 1.5 L 12.5 31.5 Z" stroke="none"/>
      <path d="M 3 3 L 3 30 L 11 30 L 11 3 L 3 3 M 0 0 L 14 0 L 14 33 L 0 33 L 0 0 Z" stroke="none" fill="#000"/>
    </g>
    <g id="Trazado_892162" data-name="Trazado 892162" transform="translate(701.4 3684.258)" fill="#fff">
      <path d="M 22.89997673034668 29.57332038879395 L 0.9999964833259583 29.57332038879395 L 0.9999964833259583 1.000001192092896 L 22.89997673034668 1.000001192092896 L 22.89997673034668 29.57332038879395 Z" stroke="none"/>
      <path d="M 1.999996185302734 2.000001907348633 L 1.999996185302734 28.57332038879395 L 21.89997673034668 28.57332038879395 L 21.89997673034668 2.000001907348633 L 1.999996185302734 2.000001907348633 M -3.814697265625e-06 1.9073486328125e-06 L 23.89997673034668 1.9073486328125e-06 L 23.89997673034668 30.57332038879395 L -3.814697265625e-06 30.57332038879395 L -3.814697265625e-06 1.9073486328125e-06 Z" stroke="none" fill="#6366f1"/>
    </g>
    <path id="Trazado_892165" data-name="Trazado 892165" d="M3.85,0H1.512V-13.508H3.85Z" transform="translate(707.404 3704.451)" fill="#6366f1"/>
    <path id="Trazado_892166" data-name="Trazado 892166" d="M4.494,0H3.076V-6.854L.984-6.141v-1.2L4.313-8.561h.182Z" transform="translate(712.624 3707.891)" fill="#6366f1"/>
    <g id="Trazado_892163" data-name="Trazado 892163" transform="translate(879.502 3684.258)" fill="#fff">
      <path d="M 22.89997673034668 29.57332038879395 L 0.9999964833259583 29.57332038879395 L 0.9999964833259583 1.000001192092896 L 22.89997673034668 1.000001192092896 L 22.89997673034668 29.57332038879395 Z" stroke="none"/>
      <path d="M 1.999996185302734 2.000001907348633 L 1.999996185302734 28.57332038879395 L 21.89997673034668 28.57332038879395 L 21.89997673034668 2.000001907348633 L 1.999996185302734 2.000001907348633 M -3.814697265625e-06 1.9073486328125e-06 L 23.89997673034668 1.9073486328125e-06 L 23.89997673034668 30.57332038879395 L -3.814697265625e-06 30.57332038879395 L -3.814697265625e-06 1.9073486328125e-06 Z" stroke="none" fill="#6366f1"/>
    </g>
    <path id="Trazado_892167" data-name="Trazado 892167" d="M3.85,0H1.512V-13.508H3.85Z" transform="translate(885.506 3704.451)" fill="#6366f1"/>
    <path id="Trazado_892168" data-name="Trazado 892168" d="M6.375,0H.639V-.979l2.842-3.1a7.077,7.077,0,0,0,.876-1.146,1.856,1.856,0,0,0,.261-.923,1.4,1.4,0,0,0-.343-.984,1.189,1.189,0,0,0-.923-.375,1.37,1.37,0,0,0-1.072.422A1.659,1.659,0,0,0,1.9-5.93H.475a2.791,2.791,0,0,1,.354-1.4A2.441,2.441,0,0,1,1.843-8.3a3.226,3.226,0,0,1,1.521-.346,2.886,2.886,0,0,1,1.96.624A2.166,2.166,0,0,1,6.041-6.3a2.928,2.928,0,0,1-.36,1.339A7.613,7.613,0,0,1,4.5-3.369L2.414-1.137H6.375Z" transform="translate(890.726 3707.891)" fill="#6366f1"/>
    <g id="Trazado_892146" data-name="Trazado 892146" transform="translate(968.051 3817.341)" fill="#fff">
      <path d="M 22.89997673034668 29.57332038879395 L 0.9999964833259583 29.57332038879395 L 0.9999964833259583 1.000001192092896 L 22.89997673034668 1.000001192092896 L 22.89997673034668 29.57332038879395 Z" stroke="none"/>
      <path d="M 1.999996185302734 2.000001907348633 L 1.999996185302734 28.57332038879395 L 21.89997673034668 28.57332038879395 L 21.89997673034668 2.000001907348633 L 1.999996185302734 2.000001907348633 M -3.814697265625e-06 1.9073486328125e-06 L 23.89997673034668 1.9073486328125e-06 L 23.89997673034668 30.57332038879395 L -3.814697265625e-06 30.57332038879395 L -3.814697265625e-06 1.9073486328125e-06 Z" stroke="none" fill="#dc2626"/>
    </g>
    <g id="Trazado_892147" data-name="Trazado 892147" transform="translate(694.002 3753.914)" fill="#fff">
      <path d="M 41.89997482299805 22.57332038879395 L 1.000005483627319 22.57332038879395 L 1.000005483627319 1.000001192092896 L 41.89997482299805 1.000001192092896 L 41.89997482299805 22.57332038879395 Z" stroke="none"/>
      <path d="M 1.999996185302734 2.000001907348633 L 1.999996185302734 21.57332038879395 L 40.89996719360352 21.57332038879395 L 40.89996719360352 2.000001907348633 L 1.999996185302734 2.000001907348633 M -3.814697265625e-06 1.9073486328125e-06 L 42.89996719360352 1.9073486328125e-06 L 42.89996719360352 23.57332038879395 L -3.814697265625e-06 23.57332038879395 L -3.814697265625e-06 1.9073486328125e-06 Z" stroke="none" fill="#dc2626"/>
    </g>
    <path id="Trazado_892148" data-name="Trazado 892148" d="M6.336-5.2H3.72V0H1.373V-13.508h4.75a5.525,5.525,0,0,1,3.609,1.049A3.712,3.712,0,0,1,11-9.422a3.8,3.8,0,0,1-.654,2.27A4.162,4.162,0,0,1,8.526-5.745L11.56-.12V0H9.045ZM3.72-7.088H6.132a2.683,2.683,0,0,0,1.855-.6,2.087,2.087,0,0,0,.668-1.637A2.221,2.221,0,0,0,8.039-11,2.621,2.621,0,0,0,6.2-11.615H3.72Z" transform="translate(974.051 3840.341)" fill="#dc2626"/>
    <path id="Trazado_892149" data-name="Trazado 892149" d="M7.749-4.49a5.816,5.816,0,0,1-.861,3.468A3.04,3.04,0,0,1,4.27.146a3.08,3.08,0,0,1-2.6-1.139,5.569,5.569,0,0,1-.9-3.373V-6.211a5.728,5.728,0,0,1,.861-3.45,3.068,3.068,0,0,1,2.626-1.15A3.085,3.085,0,0,1,6.866-9.69a5.553,5.553,0,0,1,.883,3.354ZM5.969-6.482a4.512,4.512,0,0,0-.41-2.2,1.4,1.4,0,0,0-1.3-.7,1.4,1.4,0,0,0-1.282.663A4.17,4.17,0,0,0,2.542-6.65v2.417a4.629,4.629,0,0,0,.417,2.227,1.4,1.4,0,0,0,1.311.732,1.378,1.378,0,0,0,1.267-.677,4.355,4.355,0,0,0,.432-2.12Zm4.578,4.607a1.017,1.017,0,0,1,.769.282.979.979,0,0,1,.271.707.945.945,0,0,1-.271.692,1.032,1.032,0,0,1-.769.275A1.035,1.035,0,0,1,9.792-.19a.929.929,0,0,1-.278-.7.979.979,0,0,1,.271-.707A1.007,1.007,0,0,1,10.547-1.875Zm3.442-3.413.579-5.376H20.3v1.538H16.047l-.293,2.549A3.293,3.293,0,0,1,17.424-7a2.971,2.971,0,0,1,2.369.974,3.86,3.86,0,0,1,.846,2.622A3.553,3.553,0,0,1,19.7-.817a3.422,3.422,0,0,1-2.571.963A3.584,3.584,0,0,1,14.7-.685,3.005,3.005,0,0,1,13.66-2.878h1.721a1.88,1.88,0,0,0,.557,1.19,1.693,1.693,0,0,0,1.187.414A1.53,1.53,0,0,0,18.4-1.86a2.529,2.529,0,0,0,.458-1.6A2.235,2.235,0,0,0,18.354-5a1.768,1.768,0,0,0-1.392-.568,2.315,2.315,0,0,0-.82.128,2.323,2.323,0,0,0-.732.5Zm14.3,2.805H24.163L23.3,0H21.372L25.4-10.664h1.663L31.1,0H29.165ZM24.683-3.977h3.091L26.228-8.4Z" transform="translate(700.002 3771.914)" fill="#dc2626"/>
    <g id="Trazado_892164" data-name="Trazado 892164" transform="translate(817.425 3768.982)" fill="#fff">
      <path d="M 22.89997673034668 29.57332038879395 L 0.9999964833259583 29.57332038879395 L 0.9999964833259583 1.000001192092896 L 22.89997673034668 1.000001192092896 L 22.89997673034668 29.57332038879395 Z" stroke="none"/>
      <path d="M 1.999996185302734 2.000001907348633 L 1.999996185302734 28.57332038879395 L 21.89997673034668 28.57332038879395 L 21.89997673034668 2.000001907348633 L 1.999996185302734 2.000001907348633 M -3.814697265625e-06 1.9073486328125e-06 L 23.89997673034668 1.9073486328125e-06 L 23.89997673034668 30.57332038879395 L -3.814697265625e-06 30.57332038879395 L -3.814697265625e-06 1.9073486328125e-06 Z" stroke="none" fill="#6366f1"/>
    </g>
    <path id="Trazado_892169" data-name="Trazado 892169" d="M3.85,0H1.512V-13.508H3.85Z" transform="translate(823.428 3789.175)" fill="#6366f1"/>
    <path id="Trazado_892170" data-name="Trazado 892170" d="M2.285-4.916h.867a1.552,1.552,0,0,0,1.04-.34,1.212,1.212,0,0,0,.384-.967,1.321,1.321,0,0,0-.319-.946,1.285,1.285,0,0,0-.976-.337,1.36,1.36,0,0,0-.943.331,1.106,1.106,0,0,0-.369.864H.545a2.155,2.155,0,0,1,.349-1.2,2.342,2.342,0,0,1,.973-.841,3.168,3.168,0,0,1,1.4-.3,2.934,2.934,0,0,1,2.007.642A2.252,2.252,0,0,1,6-6.223a1.813,1.813,0,0,1-.366,1.081,2.3,2.3,0,0,1-.946.765,2.093,2.093,0,0,1,1.069.756,2.069,2.069,0,0,1,.366,1.23A2.291,2.291,0,0,1,5.335-.562a3.06,3.06,0,0,1-2.071.68A3.037,3.037,0,0,1,1.248-.539,2.161,2.161,0,0,1,.463-2.285H1.887a1.191,1.191,0,0,0,.378.914,1.433,1.433,0,0,0,1.017.352,1.478,1.478,0,0,0,1.043-.352,1.319,1.319,0,0,0,.381-1.02,1.332,1.332,0,0,0-.4-1.037,1.7,1.7,0,0,0-1.184-.363H2.285Z" transform="translate(828.648 3792.615)" fill="#6366f1"/>
    <path id="Trazado_892150" data-name="Trazado 892150" d="M5.992,0H4.1V-9.138l-2.789.951V-9.781L5.75-11.414h.242ZM17.359-4.789a6.2,6.2,0,0,1-.918,3.7A3.242,3.242,0,0,1,13.648.156a3.285,3.285,0,0,1-2.777-1.215,5.94,5.94,0,0,1-.957-3.6V-6.625a6.11,6.11,0,0,1,.918-3.68,3.272,3.272,0,0,1,2.8-1.227,3.291,3.291,0,0,1,2.785,1.2,5.924,5.924,0,0,1,.941,3.578Zm-1.9-2.125a4.813,4.813,0,0,0-.437-2.348,1.493,1.493,0,0,0-1.391-.746,1.492,1.492,0,0,0-1.367.707A4.448,4.448,0,0,0,11.8-7.094v2.578a4.937,4.937,0,0,0,.445,2.375,1.5,1.5,0,0,0,1.4.781A1.469,1.469,0,0,0,15-2.082a4.645,4.645,0,0,0,.461-2.262Z" transform="translate(623.371 3828.168)"/>
    <path id="Trazado_892151" data-name="Trazado 892151" d="M5.992,0H4.1V-9.138l-2.789.951V-9.781L5.75-11.414h.242ZM17.359-4.789a6.2,6.2,0,0,1-.918,3.7A3.242,3.242,0,0,1,13.648.156a3.285,3.285,0,0,1-2.777-1.215,5.94,5.94,0,0,1-.957-3.6V-6.625a6.11,6.11,0,0,1,.918-3.68,3.272,3.272,0,0,1,2.8-1.227,3.291,3.291,0,0,1,2.785,1.2,5.924,5.924,0,0,1,.941,3.578Zm-1.9-2.125a4.813,4.813,0,0,0-.437-2.348,1.493,1.493,0,0,0-1.391-.746,1.492,1.492,0,0,0-1.367.707A4.448,4.448,0,0,0,11.8-7.094v2.578a4.937,4.937,0,0,0,.445,2.375,1.5,1.5,0,0,0,1.4.781A1.469,1.469,0,0,0,15-2.082a4.645,4.645,0,0,0,.461-2.262Z" transform="translate(816.152 3894.914)"/>
    <path id="Trazado_892152" data-name="Trazado 892152" d="M5.336-4.375h-2.2V0H1.156V-11.375h4a4.653,4.653,0,0,1,3.039.884,3.126,3.126,0,0,1,1.07,2.557,3.2,3.2,0,0,1-.551,1.912A3.5,3.5,0,0,1,7.18-4.838L9.734-.1V0H7.617Zm-2.2-1.594H5.164a2.259,2.259,0,0,0,1.563-.5,1.757,1.757,0,0,0,.563-1.379,1.871,1.871,0,0,0-.52-1.414,2.207,2.207,0,0,0-1.551-.516H3.133Z" transform="translate(669.102 3827.414)"/>
    <path id="Trazado_892153" data-name="Trazado 892153" d="M5.336-4.375h-2.2V0H1.156V-11.375h4a4.653,4.653,0,0,1,3.039.884,3.126,3.126,0,0,1,1.07,2.557,3.2,3.2,0,0,1-.551,1.912A3.5,3.5,0,0,1,7.18-4.838L9.734-.1V0H7.617Zm-2.2-1.594H5.164a2.259,2.259,0,0,0,1.563-.5,1.757,1.757,0,0,0,.563-1.379,1.871,1.871,0,0,0-.52-1.414,2.207,2.207,0,0,0-1.551-.516H3.133Z" transform="translate(773.102 3891.414)"/>
    <path id="Trazado_892154" data-name="Trazado 892154" d="M5.336-4.375h-2.2V0H1.156V-11.375h4a4.653,4.653,0,0,1,3.039.884,3.126,3.126,0,0,1,1.07,2.557,3.2,3.2,0,0,1-.551,1.912A3.5,3.5,0,0,1,7.18-4.838L9.734-.1V0H7.617Zm-2.2-1.594H5.164a2.259,2.259,0,0,0,1.563-.5,1.757,1.757,0,0,0,.563-1.379,1.871,1.871,0,0,0-.52-1.414,2.207,2.207,0,0,0-1.551-.516H3.133Z" transform="translate(920.102 3837.414)"/>
    <path id="Trazado_892155" data-name="Trazado 892155" d="M5.243,0H3.589V-8l-2.44.832V-8.559L5.031-9.987h.212Z" transform="translate(681.051 3832.414)"/>
    <path id="Trazado_892156" data-name="Trazado 892156" d="M7.438,0H.745V-1.142L4.061-4.758A8.256,8.256,0,0,0,5.083-6.094a2.165,2.165,0,0,0,.3-1.077,1.636,1.636,0,0,0-.4-1.148A1.387,1.387,0,0,0,3.91-8.757a1.6,1.6,0,0,0-1.251.492,1.936,1.936,0,0,0-.444,1.347H.554A3.256,3.256,0,0,1,.967-8.555,2.848,2.848,0,0,1,2.15-9.687a3.764,3.764,0,0,1,1.774-.4,3.367,3.367,0,0,1,2.287.728,2.527,2.527,0,0,1,.837,2.013,3.416,3.416,0,0,1-.42,1.562A8.882,8.882,0,0,1,5.25-3.931l-2.434,2.6H7.438Z" transform="translate(785.051 3896.414)"/>
    <path id="Trazado_892157" data-name="Trazado 892157" d="M2.666-5.735H3.678a1.811,1.811,0,0,0,1.213-.4A1.414,1.414,0,0,0,5.339-7.26a1.541,1.541,0,0,0-.373-1.1,1.5,1.5,0,0,0-1.138-.393,1.586,1.586,0,0,0-1.1.386A1.291,1.291,0,0,0,2.3-7.362H.636a2.514,2.514,0,0,1,.407-1.395,2.733,2.733,0,0,1,1.135-.981,3.7,3.7,0,0,1,1.63-.352,3.423,3.423,0,0,1,2.341.749A2.627,2.627,0,0,1,7-7.26,2.115,2.115,0,0,1,6.573-6a2.679,2.679,0,0,1-1.1.892,2.442,2.442,0,0,1,1.248.882,2.414,2.414,0,0,1,.427,1.436A2.673,2.673,0,0,1,6.224-.656,3.57,3.57,0,0,1,3.808.137,3.543,3.543,0,0,1,1.456-.629,2.521,2.521,0,0,1,.54-2.666H2.2A1.39,1.39,0,0,0,2.642-1.6a1.672,1.672,0,0,0,1.186.41A1.725,1.725,0,0,0,5.045-1.6a1.539,1.539,0,0,0,.444-1.189A1.554,1.554,0,0,0,5.024-4a1.987,1.987,0,0,0-1.381-.424H2.666Z" transform="translate(932.051 3842.414)"/>
    <path id="Trazado_892158" data-name="Trazado 892158" d="M5.992,0H4.1V-9.138l-2.789.951V-9.781L5.75-11.414h.242Zm4.461-5.641.617-5.734H17.18v1.641H12.648l-.312,2.719a3.512,3.512,0,0,1,1.781-.453A3.169,3.169,0,0,1,16.645-6.43a4.118,4.118,0,0,1,.9,2.8,3.79,3.79,0,0,1-1,2.762A3.65,3.65,0,0,1,13.8.156a3.822,3.822,0,0,1-2.59-.887A3.206,3.206,0,0,1,10.1-3.07h1.836a2,2,0,0,0,.594,1.27,1.806,1.806,0,0,0,1.266.441,1.632,1.632,0,0,0,1.363-.625,2.7,2.7,0,0,0,.488-1.7,2.384,2.384,0,0,0-.539-1.645,1.885,1.885,0,0,0-1.484-.605,2.469,2.469,0,0,0-.875.137,2.478,2.478,0,0,0-.781.535ZM20.344-2a1.084,1.084,0,0,1,.82.3,1.045,1.045,0,0,1,.289.754,1.008,1.008,0,0,1-.289.738,1.1,1.1,0,0,1-.82.293,1.1,1.1,0,0,1-.8-.289.991.991,0,0,1-.3-.742,1.045,1.045,0,0,1,.289-.754A1.074,1.074,0,0,1,20.344-2ZM30.922-4.789A6.2,6.2,0,0,1,30-1.09,3.242,3.242,0,0,1,27.211.156a3.285,3.285,0,0,1-2.777-1.215,5.94,5.94,0,0,1-.957-3.6V-6.625a6.11,6.11,0,0,1,.918-3.68,3.272,3.272,0,0,1,2.8-1.227,3.291,3.291,0,0,1,2.785,1.2,5.924,5.924,0,0,1,.941,3.578Zm-1.9-2.125a4.813,4.813,0,0,0-.437-2.348,1.493,1.493,0,0,0-1.391-.746,1.492,1.492,0,0,0-1.367.707,4.448,4.448,0,0,0-.461,2.207v2.578a4.937,4.937,0,0,0,.445,2.375,1.5,1.5,0,0,0,1.4.781,1.469,1.469,0,0,0,1.352-.723,4.645,4.645,0,0,0,.461-2.262Z" transform="translate(600.051 3927.594)"/>
    <path id="Trazado_892159" data-name="Trazado 892159" d="M5.359-6.258H8.328v1.734H5.359v3.383H3.516V-4.523H.531V-6.258H3.516V-9.422H5.359Z" transform="translate(660.102 3902.305)"/>
    <path id="Trazado_892160" data-name="Trazado 892160" d="M5.359-6.258H8.328v1.734H5.359v3.383H3.516V-4.523H.531V-6.258H3.516V-9.422H5.359Z" transform="translate(957.211 3902.305)"/>
    <path id="Trazado_892161" data-name="Trazado 892161" d="M8.5,0H.852V-1.3L4.641-5.437A9.436,9.436,0,0,0,5.809-6.965,2.475,2.475,0,0,0,6.156-8.2,1.87,1.87,0,0,0,5.7-9.508a1.585,1.585,0,0,0-1.23-.5,1.827,1.827,0,0,0-1.43.563,2.212,2.212,0,0,0-.508,1.539H.633a3.721,3.721,0,0,1,.473-1.871A3.255,3.255,0,0,1,2.457-11.07a4.3,4.3,0,0,1,2.027-.461A3.848,3.848,0,0,1,7.1-10.7a2.888,2.888,0,0,1,.957,2.3,3.9,3.9,0,0,1-.48,1.785A10.151,10.151,0,0,1,6-4.492L3.219-1.516H8.5Zm8.859-4.789a6.2,6.2,0,0,1-.918,3.7A3.242,3.242,0,0,1,13.648.156a3.285,3.285,0,0,1-2.777-1.215,5.94,5.94,0,0,1-.957-3.6V-6.625a6.11,6.11,0,0,1,.918-3.68,3.272,3.272,0,0,1,2.8-1.227,3.291,3.291,0,0,1,2.785,1.2,5.924,5.924,0,0,1,.941,3.578Zm-1.9-2.125a4.813,4.813,0,0,0-.437-2.348,1.493,1.493,0,0,0-1.391-.746,1.492,1.492,0,0,0-1.367.707A4.448,4.448,0,0,0,11.8-7.094v2.578a4.937,4.937,0,0,0,.445,2.375,1.5,1.5,0,0,0,1.4.781A1.469,1.469,0,0,0,15-2.082a4.645,4.645,0,0,0,.461-2.262ZM20.344-2a1.084,1.084,0,0,1,.82.3,1.045,1.045,0,0,1,.289.754,1.008,1.008,0,0,1-.289.738,1.1,1.1,0,0,1-.82.293,1.1,1.1,0,0,1-.8-.289.991.991,0,0,1-.3-.742,1.045,1.045,0,0,1,.289-.754A1.074,1.074,0,0,1,20.344-2ZM30.922-4.789A6.2,6.2,0,0,1,30-1.09,3.242,3.242,0,0,1,27.211.156a3.285,3.285,0,0,1-2.777-1.215,5.94,5.94,0,0,1-.957-3.6V-6.625a6.11,6.11,0,0,1,.918-3.68,3.272,3.272,0,0,1,2.8-1.227,3.291,3.291,0,0,1,2.785,1.2,5.924,5.924,0,0,1,.941,3.578Zm-1.9-2.125a4.813,4.813,0,0,0-.437-2.348,1.493,1.493,0,0,0-1.391-.746,1.492,1.492,0,0,0-1.367.707,4.448,4.448,0,0,0-.461,2.207v2.578a4.937,4.937,0,0,0,.445,2.375,1.5,1.5,0,0,0,1.4.781,1.469,1.469,0,0,0,1.352-.723,4.645,4.645,0,0,0,.461-2.262Z" transform="translate(968.051 3927.594)"/>
  </g>
</svg>
