<svg xmlns="http://www.w3.org/2000/svg" width="51" height="51" viewBox="0 0 51 51">
  <g id="Grupo_1107554" data-name="Grupo 1107554" transform="translate(-179.984 -396)">
    <circle id="Elipse_11529" data-name="Elipse 11529" cx="25.5" cy="25.5" r="25.5" transform="translate(179.984 396)" fill="#0c6f64"/>
    <g id="voltaje" transform="translate(186.984 403)">
      <path id="Trazado_890898" data-name="Trazado 890898" d="M35.4,57.007a19.086,19.086,0,0,1-19.615.495l1.044-.165a.528.528,0,0,0-.165-1.044l-2.527.385a.544.544,0,0,0-.44.6l.385,2.527a.528.528,0,0,0,1.044-.165l-.22-1.374A20.1,20.1,0,0,0,36,57.886a.54.54,0,0,0,.165-.769.581.581,0,0,0-.769-.11Z" transform="translate(-5.715 -24.908)" fill="#fff"/>
      <path id="Trazado_890899" data-name="Trazado 890899" d="M13.891,5.56A16.437,16.437,0,0,1,24,2.1a17.3,17.3,0,0,1,7.582,1.813l-1.319.495a.556.556,0,0,0,.385,1.044l2.418-.879A1.457,1.457,0,0,0,33.4,4.3a.6.6,0,0,0,0-.44L32.517,1.44a.556.556,0,1,0-1.044.385l.385,1.044A17.772,17.772,0,0,0,24,1,17.269,17.269,0,0,0,13.231,4.681a.591.591,0,0,0-.11.769.537.537,0,0,0,.769.11Z" transform="translate(-5.418)" fill="#fff"/>
      <path id="Trazado_890900" data-name="Trazado 890900" d="M4.846,13.491l-2.527.495a.56.56,0,0,0,.22,1.1l1.209-.22A16.9,16.9,0,0,0,1,24.206a17.444,17.444,0,0,0,3.352,10.33.591.591,0,0,0,.769.11.591.591,0,0,0,.11-.769,16.523,16.523,0,0,1-.6-18.462l.22,1.209a.56.56,0,0,0,1.1-.22l-.495-2.527a.506.506,0,0,0-.6-.385Z" transform="translate(0 -5.623)" fill="#fff"/>
      <path id="Trazado_890901" data-name="Trazado 890901" d="M58.565,33.062l-1.209.165a17.83,17.83,0,0,0,3.132-10.055,17.652,17.652,0,0,0-4.56-11.813.545.545,0,1,0-.824.714,16.445,16.445,0,0,1,1.319,20.495l-.165-1.209a.552.552,0,0,0-1.1.11L55.488,34a.556.556,0,0,0,.22.385.781.781,0,0,0,.33.11h.055l2.527-.33a.644.644,0,0,0,.495-.6.475.475,0,0,0-.549-.495Z" transform="translate(-24.323 -4.589)" fill="#fff"/>
      <path id="Trazado_890902" data-name="Trazado 890902" d="M17.051,35.069a.578.578,0,0,0,.714,0l16.648-13.9a.5.5,0,0,0,.165-.549.463.463,0,0,0-.385-.385l-4.506-1.1,4.67-6.868a.534.534,0,0,0,.055-.495.581.581,0,0,0-.385-.33L28.04,10.288a.522.522,0,0,0-.549.22L19.908,21.442a.534.534,0,0,0-.055.495.581.581,0,0,0,.385.33l4.231.989-7.528,11.1a.571.571,0,0,0,.11.714ZM25.842,23.2a.534.534,0,0,0,.055-.495.581.581,0,0,0-.385-.33l-4.231-.934L28.15,11.5l4.78.934-4.615,6.813a.534.534,0,0,0-.055.495.581.581,0,0,0,.385.33l4.231,1.044-12.8,10.659Z" transform="translate(-7.15 -4.178)" fill="#fff"/>
    </g>
  </g>
</svg>
