<svg xmlns="http://www.w3.org/2000/svg" width="51" height="51" viewBox="0 0 51 51">
  <g id="Grupo_1107553" data-name="Grupo 1107553" transform="translate(-179.951 -1567)">
    <circle id="Elipse_11515" data-name="Elipse 11515" cx="25.5" cy="25.5" r="25.5" transform="translate(179.951 1567)" fill="#0c6f64"/>
    <g id="Electric_Plug-ev-electric_car-vehicle-plug" data-name="Electric Plug-ev-electric car-vehicle-plug" transform="translate(186.076 1573.125)">
      <path id="Trazado_890825" data-name="Trazado 890825" d="M41.52,9.769a2.893,2.893,0,0,0-.213-3.87L39.655,4.248a.6.6,0,0,0-.826,0l-.413.413L36.764,3.009l-.826.826L37.59,5.486l-.826.826L35.112,4.661l-.826.826,1.652,1.652-.413.413a.584.584,0,0,0,0,.826l1.652,1.652a2.88,2.88,0,0,0,3.446.494,16.171,16.171,0,0,1,3,9.417A16.363,16.363,0,0,1,21.064,35.075l-.443,1.08A17.529,17.529,0,0,0,44.786,19.94,17.328,17.328,0,0,0,41.52,9.769ZM38,9.2,36.764,7.964l2.478-2.478,1.239,1.239A1.752,1.752,0,1,1,38,9.2Z" transform="translate(-7.746 -0.42)" fill="#fff"/>
      <path id="Trazado_890826" data-name="Trazado 890826" d="M5.266,29.69a2.893,2.893,0,0,0,.213,3.87l1.652,1.652a.6.6,0,0,0,.826,0L8.37,34.8l1.652,1.652.826-.826L9.2,33.973l.826-.826L11.674,34.8l.826-.826-1.652-1.652.413-.413a.584.584,0,0,0,0-.826L9.609,29.431a2.88,2.88,0,0,0-3.446-.494,16.171,16.171,0,0,1-3-9.417A16.363,16.363,0,0,1,25.723,4.385l.443-1.08A17.529,17.529,0,0,0,2,19.52,17.328,17.328,0,0,0,5.266,29.69Zm3.517.566L10.022,31.5,7.544,33.973,6.306,32.734a1.752,1.752,0,1,1,2.478-2.478Z" transform="translate(0 0)" fill="#fff"/>
      <path id="Trazado_890827" data-name="Trazado 890827" d="M13,24.1A11.1,11.1,0,1,0,24.1,13,11.1,11.1,0,0,0,13,24.1Zm21.024,0A9.928,9.928,0,1,1,24.1,14.168,9.928,9.928,0,0,1,34.024,24.1Z" transform="translate(-4.576 -4.576)" fill="#fff"/>
      <path id="Trazado_890828" data-name="Trazado 890828" d="M28.565,21.323l-3.5,7.008a.584.584,0,0,0,.523.845H28.5v4.088a.584.584,0,0,0,1.107.261l3.5-7.008a.584.584,0,0,0-.523-.845h-2.92V21.584a.584.584,0,0,0-1.107-.261Zm3.082,5.517-1.975,3.95v-2.2a.584.584,0,0,0-.584-.584H26.529l1.975-3.95v2.2a.584.584,0,0,0,.584.584Z" transform="translate(-9.568 -7.904)" fill="#fff"/>
    </g>
  </g>
</svg>
