<svg xmlns="http://www.w3.org/2000/svg" width="51" height="51" viewBox="0 0 51 51">
  <g id="Grupo_1107554" data-name="Grupo 1107554" transform="translate(-180.018 -1616)">
    <circle id="Elipse_11530" data-name="Elipse 11530" cx="25.5" cy="25.5" r="25.5" transform="translate(180.018 1616)" fill="#0c6f64"/>
    <g id="resistor" transform="translate(189.107 1624.982)">
      <circle id="Elipse_11534" data-name="Elipse 11534" cx="0.518" cy="0.518" r="0.518" transform="translate(5.452 22.214)" fill="#fff"/>
      <path id="Trazado_890938" data-name="Trazado 890938" d="M15.564,9.1a3.1,3.1,0,0,0,.3-1.8A3.181,3.181,0,0,0,12.66,4.607H10.714V2.018a.518.518,0,1,0-1.036,0V4.607H8.209c-1.991,0-3.472,1.082-3.682,2.692a3.1,3.1,0,0,0,.3,1.809A15.531,15.531,0,0,1,6.788,15.78q.017.737,0,1.474a12.147,12.147,0,0,1-.546,3.256.518.518,0,0,0,.991.3c.068-.226.124-.446.18-.668h5.565A21.081,21.081,0,0,0,14.639,24.4a2.071,2.071,0,0,1,.2,1.2c-.142,1.088-1.184,1.792-2.655,1.792H7.732A2.146,2.146,0,0,1,5.554,25.6a2.118,2.118,0,0,1,.023-.7A.518.518,0,0,0,4.563,24.7a3.136,3.136,0,0,0-.035,1.037,3.182,3.182,0,0,0,3.2,2.692H9.678v2.589a.518.518,0,0,0,1.036,0V28.428h1.469c1.993,0,3.473-1.083,3.682-2.694a3.1,3.1,0,0,0-.3-1.8A15.453,15.453,0,0,1,13.6,17.25q-.017-.733,0-1.466A15.462,15.462,0,0,1,15.564,9.1ZM7.824,17.035c.006-.426.009-.853,0-1.278-.006-.263-.022-.527-.046-.793h4.834q-.036.4-.045.8c-.009.424-.006.849,0,1.274ZM6.738,10.821h6.918c-.139.353-.263.7-.374,1.036H7.11C7,11.518,6.876,11.173,6.738,10.821Zm6.015,3.107H7.636c-.06-.34-.136-.686-.225-1.036h5.567C12.889,13.242,12.812,13.588,12.753,13.928Zm-7.2-6.495C5.7,6.346,6.739,5.643,8.209,5.643H12.66a2.145,2.145,0,0,1,2.179,1.791,2.068,2.068,0,0,1-.2,1.2c-.2.4-.378.776-.547,1.15H6.3c-.169-.374-.348-.754-.546-1.145A2.072,2.072,0,0,1,5.554,7.434ZM7.639,19.107q.091-.522.138-1.036h4.836c.031.342.08.688.141,1.036Z" fill="#fff"/>
      <path id="Trazado_890939" data-name="Trazado 890939" d="M25.6,17.25h0q-.018-.731,0-1.465A15.465,15.465,0,0,1,27.564,9.1a3.1,3.1,0,0,0,.3-1.8A3.183,3.183,0,0,0,24.66,4.607H22.714V2.018a.518.518,0,1,0-1.036,0V4.607H20.21c-1.992,0-3.472,1.082-3.682,2.692a3.1,3.1,0,0,0,.3,1.81,15.532,15.532,0,0,1,1.956,6.671q.017.737,0,1.475a15.53,15.53,0,0,1-1.956,6.672,3.1,3.1,0,0,0-.3,1.809,3.181,3.181,0,0,0,3.2,2.692h1.947v2.589a.518.518,0,1,0,1.036,0V28.428h1.469c1.993,0,3.473-1.083,3.684-2.694a3.1,3.1,0,0,0-.3-1.8A15.457,15.457,0,0,1,25.6,17.25Zm-5.779.028c0-.081,0-.162,0-.243h4.744c0,.08,0,.159,0,.239q.009.4.045.8H19.778C19.8,17.805,19.818,17.541,19.824,17.278Zm4.744-1.518c0,.08,0,.159,0,.239H19.824c0-.081,0-.162,0-.243a12.22,12.22,0,0,0-.187-1.829h5.117A12.235,12.235,0,0,0,24.567,15.761Zm.411-2.868H19.411q-.13-.509-.3-1.036h6.172Q25.107,12.384,24.978,12.893ZM17.555,7.434c.142-1.088,1.184-1.791,2.655-1.791h4.45a2.145,2.145,0,0,1,2.179,1.791,2.066,2.066,0,0,1-.2,1.2c-.387.769-.71,1.491-.984,2.186H18.737c-.274-.7-.6-1.421-.981-2.18A2.063,2.063,0,0,1,17.555,7.434Zm6.628,19.959H19.731A2.144,2.144,0,0,1,17.555,25.6a2.061,2.061,0,0,1,.2-1.207,19.013,19.013,0,0,0,1.88-5.288h5.117A19.058,19.058,0,0,0,26.639,24.4a2.069,2.069,0,0,1,.2,1.2C26.7,26.689,25.654,27.392,24.183,27.392Z" transform="translate(0.428)" fill="#fff"/>
    </g>
  </g>
</svg>
