<svg xmlns="http://www.w3.org/2000/svg" width="51" height="51" viewBox="0 0 51 51">
  <g id="Grupo_1107554" data-name="Grupo 1107554" transform="translate(-180.051 -8878.481)">
    <circle id="Elipse_11516" data-name="Elipse 11516" cx="25.5" cy="25.5" r="25.5" transform="translate(180.051 8878.481)" fill="#0c6f64"/>
    <g id="circuitos-lc-en-paralelo" transform="translate(188.964 8829.053)">
      <g id="Grupo_1106914" data-name="Grupo 1106914" transform="translate(0 62.63)">
        <path id="Trazado_890748" data-name="Trazado 890748" d="M30.476,239.232a.472.472,0,0,0,.664-.054,1.455,1.455,0,0,1,.91-.51,1.454,1.454,0,0,1,.909.509,2.373,2.373,0,0,0,1.631.845,2.373,2.373,0,0,0,1.631-.845.471.471,0,0,0-.721-.608,1.455,1.455,0,0,1-.91.51,1.453,1.453,0,0,1-.909-.509,2.373,2.373,0,0,0-1.631-.845,2.373,2.373,0,0,0-1.631.845A.47.47,0,0,0,30.476,239.232Z" transform="translate(-28.404 -226.721)" fill="#fff"/>
        <path id="Trazado_890749" data-name="Trazado 890749" d="M32.177,69.81A2.46,2.46,0,0,0,30.208,67.4V63.1a.471.471,0,0,0-.471-.471H4.915a.471.471,0,0,0-.471.471v6.789A4.922,4.922,0,0,0,0,74.783a4.865,4.865,0,0,0,.535,2.232.471.471,0,1,0,.84-.428,3.931,3.931,0,0,1-.432-1.8A3.974,3.974,0,0,1,6.993,71.4a.471.471,0,1,0,.494-.8,4.895,4.895,0,0,0-2.1-.7V63.573H17.649V73.3H15.771a.471.471,0,1,0,0,.943h4.7a.471.471,0,1,0,0-.943H18.592V63.573H29.265v4.248a.471.471,0,0,0,.471.471,1.51,1.51,0,0,1,1.5,1.518q0,.024,0,.048a2.416,2.416,0,0,0-1.5-.519,2.446,2.446,0,0,0-2.115,1.231.471.471,0,0,0,0,.469,2.446,2.446,0,0,0,2.115,1.231,2.417,2.417,0,0,0,1.5-.519c0,.016,0,.032,0,.048v1.988q0,.024,0,.048a2.416,2.416,0,0,0-1.5-.519,2.446,2.446,0,0,0-2.115,1.231.471.471,0,0,0,0,.469,2.446,2.446,0,0,0,2.115,1.231,2.416,2.416,0,0,0,1.5-.519q0,.024,0,.048v1.988c0,.016,0,.032,0,.048a2.417,2.417,0,0,0-1.5-.519,2.446,2.446,0,0,0-2.115,1.231.471.471,0,0,0,0,.469,2.446,2.446,0,0,0,2.115,1.231,2.416,2.416,0,0,0,1.5-.519c0,.016,0,.032,0,.048a1.51,1.51,0,0,1-1.5,1.518.471.471,0,0,0-.471.471v4.248H18.592V76.27h1.878a.471.471,0,1,0,0-.943h-4.7a.471.471,0,1,0,0,.943h1.878v9.723H5.387V79.675a4.916,4.916,0,0,0,3.787-7.349.471.471,0,1,0-.816.472,3.973,3.973,0,0,1-5.7,5.256.471.471,0,0,0-.536.776,4.881,4.881,0,0,0,2.318.845v6.789a.471.471,0,0,0,.471.471H29.737a.471.471,0,0,0,.471-.471V82.17a2.467,2.467,0,0,0,1.761-3.409,2.463,2.463,0,0,0,.208-.995V75.777a2.464,2.464,0,0,0-.208-.995,2.463,2.463,0,0,0,.208-.995V71.8a2.464,2.464,0,0,0-.208-.995,2.464,2.464,0,0,0,.208-.995Zm-2.441,1.518a1.5,1.5,0,0,1-1.131-.523,1.484,1.484,0,0,1,2.262,0A1.487,1.487,0,0,1,29.737,71.327Zm0,3.978a1.5,1.5,0,0,1-1.131-.523,1.484,1.484,0,0,1,2.262,0A1.487,1.487,0,0,1,29.737,75.305Zm0,3.978a1.5,1.5,0,0,1-1.131-.523,1.484,1.484,0,0,1,2.262,0A1.487,1.487,0,0,1,29.737,79.284Z" transform="translate(0 -62.63)" fill="#fff"/>
      </g>
    </g>
  </g>
</svg>
