<svg xmlns="http://www.w3.org/2000/svg" width="51" height="51" viewBox="0 0 51 51">
  <g id="Grupo_1107553" data-name="Grupo 1107553" transform="translate(-180.051 -2636)">
    <circle id="Elipse_11528" data-name="Elipse 11528" cx="25.5" cy="25.5" r="25.5" transform="translate(180.051 2636)" fill="#0c6f64"/>
    <g id="planta-de-energia" transform="translate(139.852 2643)">
      <g id="Page-1_23_" transform="translate(51.2 0)">
        <g id="_x30_24---Power-Station" transform="translate(0)">
          <path id="Shape_102_" d="M146.937,248.475a2.241,2.241,0,0,0-3.746,0l-6.244,9.381a2.32,2.32,0,0,0-.112,2.385,2.223,2.223,0,0,0,1.985,1.2h12.488a2.223,2.223,0,0,0,1.985-1.2,2.321,2.321,0,0,0-.112-2.385Zm5.287,11.194a1.026,1.026,0,0,1-.912.557H138.82a1.026,1.026,0,0,1-.912-.557,1.094,1.094,0,0,1,.053-1.138l6.244-9.383a1.026,1.026,0,0,1,1.722,0l6.244,9.383a1.094,1.094,0,0,1,.05,1.138Z" transform="translate(-130.479 -229.841)" fill="#fff"/>
          <path id="Shape_101_" d="M225.515,310.116H223.55L224.82,308a.608.608,0,1,0-1.041-.626l-1.823,3.038a.608.608,0,0,0,.521.921h1.965l-1.271,2.118a.608.608,0,1,0,1.042.626l1.823-3.038a.608.608,0,0,0-.521-.921Z" transform="translate(-209.715 -285.201)" fill="#fff"/>
          <path id="Shape_100_" d="M69.337,4.111a1.227,1.227,0,0,0-.3-1.358L67.563,1.5a1.215,1.215,0,0,0-.786-.289h-.385V.608a.608.608,0,0,0-1.215,0v.608h-.385a1.215,1.215,0,0,0-.786.289L62.5,2.787A1.215,1.215,0,0,0,62.982,4.8l-.486.416a1.215,1.215,0,0,0,.486,2.015l-.486.416a1.215,1.215,0,0,0,.858,2.075h.608v1.215H59.1V9.723h.608a1.215,1.215,0,0,0,.823-2.109l-.451-.382a1.211,1.211,0,0,0,.752-.69,1.227,1.227,0,0,0-.3-1.358L60.078,4.8a1.211,1.211,0,0,0,.752-.69,1.227,1.227,0,0,0-.3-1.358L59.056,1.5a1.215,1.215,0,0,0-.786-.289h-.385V.608a.608.608,0,0,0-1.215,0v.608h-.385A1.215,1.215,0,0,0,55.5,1.5L53.988,2.787A1.215,1.215,0,0,0,54.477,4.8l-.489.416a1.215,1.215,0,0,0,.489,2.015l-.489.416a1.215,1.215,0,0,0,.858,2.076h.608v1.215H53.023a1.823,1.823,0,1,0,0,3.646h.608V32.815h-.608a1.823,1.823,0,1,0,0,3.646H78.546a1.823,1.823,0,1,0,0-3.646h-.608V14.585h.608a1.823,1.823,0,1,0,0-3.646H76.115V9.723h.608a1.215,1.215,0,0,0,.823-2.109l-.451-.382a1.211,1.211,0,0,0,.752-.69,1.227,1.227,0,0,0-.3-1.358L77.093,4.8a1.211,1.211,0,0,0,.752-.69,1.227,1.227,0,0,0-.3-1.358L76.071,1.5a1.215,1.215,0,0,0-.786-.289H74.9V.608a.608.608,0,0,0-1.215,0v.608H73.3a1.215,1.215,0,0,0-.786.289L71,2.787A1.215,1.215,0,0,0,71.49,4.8L71,5.218a1.215,1.215,0,0,0,.486,2.015L71,7.648a1.215,1.215,0,0,0,.858,2.075h.608v1.215H67.608V9.723h.608a1.215,1.215,0,0,0,.823-2.109l-.451-.382a1.211,1.211,0,0,0,.752-.69,1.227,1.227,0,0,0-.3-1.358L68.586,4.8a1.211,1.211,0,0,0,.752-.69Zm-4.545-1.68h1.985l1.438,1.215H64.569a.57.57,0,0,0-.1.018l-1.15.016Zm3.423,3.646H64.569a.57.57,0,0,0-.1.018l-1.15.016,1.474-1.249h1.985Zm-12.154,0a.57.57,0,0,0-.1.018l-1.15.016,1.474-1.249H58.27l1.438,1.215Zm.223-3.646h1.985l1.438,1.215H56.062a.57.57,0,0,0-.1.018l-1.15.016ZM54.81,8.542l1.474-1.249H58.27l1.438,1.215H57.277l-1.138.016a.547.547,0,0,0-.077-.016.627.627,0,0,0-.089.018Zm1.859,1.181h1.215v1.215H56.669ZM76.723,32.815h-15.8a.608.608,0,0,0,0,1.215H78.546a.608.608,0,0,1,.608.608.592.592,0,0,1-.186.433.582.582,0,0,1-.422.175H53.023a.608.608,0,0,1-.608-.608.592.592,0,0,1,.186-.433.582.582,0,0,1,.422-.175h4.862a.608.608,0,0,0,0-1.215H54.846V14.585h1.823V15.8a.608.608,0,0,0,1.215,0V14.585h7.292V15.8a.608.608,0,1,0,1.215,0V14.585h7.292V15.8a.608.608,0,1,0,1.215,0V14.585h1.823V32.815Zm2.431-20.054a.608.608,0,0,1-.608.608H53.023a.608.608,0,0,1,0-1.215H78.546A.608.608,0,0,1,79.154,12.761ZM73.077,6.077a.57.57,0,0,0-.1.018l-1.15.016L73.3,4.861h1.985l1.438,1.215ZM73.3,2.431h1.985l1.438,1.215H73.077a.57.57,0,0,0-.1.018l-1.15.016ZM71.826,8.542,73.3,7.292h1.985l1.438,1.215H74.292l-1.138.016a.548.548,0,0,0-.077-.016.627.627,0,0,0-.089.018Zm1.859,1.181H74.9v1.215H73.685Zm-7.292,1.215H65.177V9.723h1.215Zm-.608-2.431-1.138.016a.548.548,0,0,0-.077-.016.627.627,0,0,0-.089.018l-1.162.016,1.474-1.249h1.985l1.438,1.215H65.785Z" transform="translate(-51.2 0)" fill="#fff"/>
        </g>
      </g>
    </g>
  </g>
</svg>
